<?xml version="1.0" standalone="no"?>
<!DOCTYPE svg PUBLIC "-//W3C//DTD SVG 20010904//EN"
 "http://www.w3.org/TR/2001/REC-SVG-20010904/DTD/svg10.dtd">
<svg version="1.0" xmlns="http://www.w3.org/2000/svg"
 width="1170.000000pt" height="2255.000000pt" viewBox="0 0 1170.000000 2255.000000"
 preserveAspectRatio="xMidYMid meet">

<g transform="translate(0.000000,2255.000000) scale(0.100000,-0.100000)"
fill="#000000" stroke="none">
<path d="M0 21965 l0 -585 5850 0 5850 0 0 585 0 585 -5850 0 -5850 0 0 -585z"/>
<path d="M11063 20225 c-9 -19 -20 -35 -25 -35 -4 0 -8 -6 -8 -14 0 -8 -13
-40 -30 -71 -16 -31 -30 -63 -30 -71 0 -8 -4 -22 -9 -32 -14 -29 -31 -87 -31
-110 0 -11 -4 -24 -10 -27 -5 -3 -10 -22 -10 -41 0 -20 -5 -44 -10 -55 -11
-19 -12 -19 -39 -3 -39 23 -55 14 -70 -37 -7 -24 -17 -58 -22 -75 -5 -17 -9
-40 -9 -52 0 -11 -4 -24 -10 -27 -5 -3 -10 -21 -10 -40 0 -19 -4 -37 -10 -40
-5 -3 -10 -19 -10 -35 0 -16 -4 -32 -10 -35 -5 -3 -10 -15 -10 -26 0 -23 -9
-24 -57 -4 -43 18 -38 18 -56 1 -11 -12 -12 -26 -5 -73 11 -62 4 -204 -10
-229 -6 -11 -11 8 -15 58 -6 70 -28 162 -48 200 -5 10 -9 22 -9 28 0 13 -50
70 -62 70 -5 0 -18 9 -30 20 -12 11 -28 20 -35 20 -7 0 -13 3 -13 8 0 4 -15
13 -32 20 -18 8 -43 18 -55 23 -13 5 -33 14 -45 19 -13 6 -73 9 -138 8 -128
-3 -136 -8 -107 -71 17 -38 45 -103 58 -134 5 -13 13 -33 18 -45 11 -28 70
-183 82 -218 7 -21 5 -20 -19 9 -57 72 -139 155 -197 198 -64 49 -194 114
-260 131 -22 6 -58 15 -80 20 -22 6 -87 12 -144 14 -144 4 -145 -2 -19 -102
82 -65 246 -236 298 -310 38 -55 59 -69 112 -76 48 -7 77 -24 40 -24 -11 0
-26 -7 -33 -16 -11 -14 -7 -22 32 -58 171 -157 188 -175 309 -311 36 -41 163
-210 191 -255 9 -14 19 -38 23 -55 19 -81 40 -179 55 -262 4 -27 11 -55 14
-63 3 -8 8 -37 11 -65 l6 -50 -37 45 c-68 82 -179 188 -249 237 -49 35 -167
92 -236 113 -91 29 -298 28 -406 -1 -42 -11 -93 -27 -112 -36 -90 -39 -207
-100 -224 -115 -11 -10 -23 -18 -28 -18 -9 0 -64 -38 -149 -104 -175 -136
-423 -386 -402 -407 10 -10 64 -3 183 22 43 9 75 16 190 39 28 6 71 14 98 20
26 5 72 13 102 19 87 15 93 20 137 101 l14 25 -3 -30 c-3 -27 0 -30 28 -33 16
-2 79 8 138 23 163 38 196 33 66 -11 -267 -90 -508 -277 -800 -620 -109 -127
-345 -469 -435 -629 -6 -11 -18 -30 -26 -43 -12 -19 -12 -24 0 -31 7 -5 21 -7
30 -6 67 12 143 30 181 42 25 8 68 21 97 29 28 7 109 34 180 59 133 48 137 49
215 84 26 12 51 21 54 21 9 0 441 215 494 246 25 15 59 35 75 44 30 17 133 81
253 156 56 35 66 47 96 109 53 110 66 141 72 174 4 17 11 31 16 31 11 0 6
-103 -7 -132 -10 -25 21 -23 65 3 158 97 469 225 484 200 2 -3 -1 -26 -7 -50
-10 -36 -18 -47 -47 -58 -218 -90 -388 -239 -547 -478 -66 -100 -163 -293
-218 -436 -20 -52 -41 -103 -45 -114 -11 -25 -40 -110 -51 -150 -4 -16 -13
-48 -19 -70 -16 -55 -31 -116 -59 -235 -9 -35 -47 -221 -78 -377 -16 -81 -13
-127 8 -106 9 9 23 46 108 288 18 50 37 104 44 120 l12 30 6 -35 c16 -86 29
-142 34 -151 19 -29 36 0 75 124 84 269 82 264 113 232 19 -18 46 -20 51 -2 2
6 9 32 15 57 7 25 16 59 21 75 4 17 14 58 21 93 7 34 16 62 19 62 3 0 13 -19
21 -42 25 -68 48 -59 77 32 14 41 28 84 32 95 4 11 13 40 20 65 7 25 16 54 20
65 4 11 13 40 20 65 7 25 14 51 16 59 7 21 17 5 34 -51 8 -28 21 -53 27 -55
14 -5 59 86 108 217 10 25 26 64 36 87 10 23 24 60 31 82 25 79 33 31 11 -69
-7 -35 -36 -333 -54 -555 -38 -481 -53 -1157 -39 -1825 11 -520 22 -798 34
-890 3 -25 8 -79 11 -120 7 -105 33 -327 50 -437 8 -51 15 -100 15 -108 0 -26
-68 -17 -190 26 -110 38 -123 41 -300 51 -170 11 -398 13 -845 10 -178 -1
-197 0 -385 24 -111 15 -158 19 -510 44 -91 7 -241 10 -335 7 -165 -4 -172 -5
-236 -36 l-66 -31 -182 0 c-127 0 -197 -4 -229 -14 -26 -8 -83 -19 -127 -26
-44 -6 -96 -20 -115 -30 -19 -9 -48 -23 -65 -31 -16 -7 -41 -22 -54 -32 -21
-15 -42 -17 -150 -15 -127 2 -184 -8 -223 -40 -13 -11 -68 -14 -255 -16 -188
-1 -250 -5 -298 -19 -42 -11 -108 -17 -220 -19 -158 -3 -161 -3 -212 25 -69
36 -109 35 -175 -4 l-53 -32 -380 7 c-375 7 -425 10 -425 26 0 5 -6 10 -12 13
-7 2 -5 3 4 2 9 -2 25 3 36 11 14 10 53 12 158 9 76 -2 162 -7 190 -10 34 -5
54 -3 58 4 9 14 41 14 65 -1 22 -14 51 -4 51 17 0 18 4 18 -360 16 -248 -2
-281 0 -335 17 -51 17 -69 18 -115 9 -67 -12 -72 -12 -335 -5 -168 5 -217 9
-242 23 -81 41 -267 45 -321 6 -37 -26 -60 -26 -115 -3 -105 46 -212 56 -297
26 -25 -9 -76 -18 -115 -21 -38 -3 -79 -12 -90 -19 -37 -26 -100 -11 -179 44
-30 21 -58 29 -125 37 -96 11 -219 2 -268 -21 -41 -19 -91 -18 -128 3 -21 11
-57 16 -125 17 -81 1 -99 -2 -125 -20 -16 -11 -57 -34 -90 -50 l-60 -29 -395
3 c-471 3 -648 3 -732 1 -35 0 -142 7 -238 16 -121 12 -191 15 -230 9 l-55 -9
-3 -99 -3 -99 798 8 c439 4 1579 10 2533 12 2818 8 3719 12 4760 23 542 5
1326 10 1743 10 742 0 757 0 757 -19 0 -17 32 -157 71 -316 6 -22 13 -55 16
-73 3 -18 9 -35 14 -38 5 -3 9 -18 9 -34 0 -16 5 -32 10 -35 6 -3 10 -17 10
-30 0 -13 5 -27 10 -30 6 -3 10 -21 10 -40 0 -19 5 -37 10 -40 6 -3 10 -24 10
-45 0 -21 6 -51 14 -67 17 -33 36 -113 36 -148 0 -14 4 -25 9 -25 22 0 21 13
-9 175 -7 33 -16 80 -20 105 -5 25 -18 74 -30 110 -12 36 -26 81 -30 100 -5
19 -22 89 -39 155 -35 136 -77 329 -92 425 -5 36 -14 92 -20 125 -60 367 -83
709 -99 1474 -19 922 13 1729 95 2366 3 22 10 78 16 125 6 47 27 188 47 313
l36 228 30 13 c17 8 47 21 66 29 72 32 121 49 125 45 4 -4 -1 -11 -81 -99 -39
-43 -42 -50 -52 -140 -7 -52 -19 -175 -27 -274 -8 -99 -18 -200 -21 -225 -7
-55 -19 -232 -36 -540 -17 -306 -17 -1216 0 -1555 17 -339 29 -529 36 -585 3
-25 8 -74 10 -110 10 -155 62 -430 113 -600 14 -47 28 -97 30 -113 3 -15 9
-30 14 -33 5 -3 9 -14 9 -25 0 -10 4 -27 9 -37 9 -18 16 -35 48 -112 19 -47
88 -186 139 -280 99 -181 282 -423 324 -428 79 -8 160 -41 237 -93 23 -16 44
-29 47 -29 16 0 3 47 -15 59 -87 54 -202 101 -247 101 -31 0 -72 42 -149 153
-27 37 -67 93 -90 124 -24 30 -43 61 -43 68 0 7 -4 15 -8 17 -4 2 -20 24 -34
51 l-27 47 37 15 c51 20 65 29 70 45 5 13 -7 12 -103 -6 -32 -6 -32 -7 -83
106 -50 111 -62 140 -62 150 0 6 -4 18 -10 28 -23 40 -100 306 -121 417 -44
236 -58 354 -79 685 -24 366 -31 577 -36 1110 -5 499 -4 567 10 585 15 19 15
19 16 -10 1 -85 88 -409 113 -418 7 -2 27 7 46 21 l34 25 -7 -24 c-32 -106
-32 -108 24 -219 61 -120 65 -127 121 -211 67 -98 86 -101 130 -21 16 29 29
61 29 70 0 10 4 22 8 27 5 6 14 35 20 65 6 30 15 79 21 108 15 74 13 527 -2
631 -12 80 -15 86 -56 122 -43 39 -43 44 4 51 43 7 26 61 -86 282 -55 109
-181 306 -240 377 -25 30 -51 80 -74 144 -19 54 -33 100 -31 103 3 2 17 -5 33
-16 15 -10 64 -41 108 -67 77 -46 128 -78 242 -151 l53 -34 -37 -69 c-44 -85
-40 -101 22 -101 l46 0 -20 -29 c-12 -16 -21 -36 -21 -44 0 -9 23 -55 51 -104
28 -48 61 -106 74 -128 23 -41 51 -90 84 -147 10 -18 57 -100 105 -181 47 -82
86 -151 86 -154 0 -2 13 -23 28 -46 16 -23 31 -50 35 -59 4 -10 13 -18 22 -18
13 0 15 43 15 353 l0 352 -62 71 c-89 100 -286 274 -312 274 -5 0 -2 8 6 18
13 14 40 62 145 265 8 15 18 27 22 27 4 0 27 -40 51 -90 42 -86 63 -110 76
-89 6 10 -10 152 -27 226 -5 23 -9 55 -9 72 l0 30 33 -20 c17 -11 42 -27 54
-35 l22 -16 0 107 0 107 -35 -5 c-18 -3 -36 -1 -39 4 -4 5 12 9 34 9 34 0 41
3 41 20 0 17 -8 20 -67 23 l-68 3 68 2 67 2 0 89 c0 62 -4 91 -12 94 -10 4
-10 6 0 6 9 1 12 32 12 120 l0 119 -37 30 c-104 80 -162 112 -205 112 l-43 1
40 14 c25 9 79 15 143 15 l102 0 0 350 c-1 388 3 368 -67 328 -21 -11 -47 -26
-58 -32 -46 -25 -147 -110 -199 -167 -59 -66 -156 -201 -156 -217 0 -6 -3 -12
-8 -14 -7 -3 -67 -122 -75 -148 -2 -8 -7 21 -11 65 -20 231 -39 348 -82 507
l-24 87 35 78 c20 43 41 89 47 103 5 14 14 33 19 42 5 10 9 25 9 33 0 8 4 23
9 33 14 28 29 66 36 92 3 14 11 41 16 60 29 102 69 288 69 322 0 22 -6 31 -21
35 -19 5 -17 9 20 47 45 46 45 40 5 146 -7 19 -18 53 -25 75 -6 22 -15 48 -20
57 -5 10 -9 26 -9 36 0 10 -4 22 -8 28 -4 5 -14 27 -21 49 -7 22 -16 49 -21
60 -4 11 -14 35 -22 53 -18 45 -53 44 -75 -3z m64 -117 c-3 -8 -6 -5 -6 6 -1
11 2 17 5 13 3 -3 4 -12 1 -19z m-97 -107 c0 -6 -4 -13 -10 -16 -5 -3 -10 1
-10 9 0 9 5 16 10 16 6 0 10 -4 10 -9z m47 -43 c-3 -8 -6 -5 -6 6 -1 11 2 17
5 13 3 -3 4 -12 1 -19z m-75 -38 c3 -16 1 -30 -4 -30 -4 0 -8 14 -8 30 0 17 2
30 4 30 2 0 6 -13 8 -30z m55 -52 c-3 -8 -6 -5 -6 6 -1 11 2 17 5 13 3 -3 4
-12 1 -19z m-80 -50 c-2 -13 -4 -3 -4 22 0 25 2 35 4 23 2 -13 2 -33 0 -45z
m-20 -95 c-2 -16 -4 -5 -4 22 0 28 2 40 4 28 2 -13 2 -35 0 -50z m80 45 c-3
-8 -6 -5 -6 6 -1 11 2 17 5 13 3 -3 4 -12 1 -19z m-134 -75 c-7 -2 -19 -2 -25
0 -7 3 -2 5 12 5 14 0 19 -2 13 -5z m114 -25 c-3 -7 -5 -2 -5 12 0 14 2 19 5
13 2 -7 2 -19 0 -25z m203 -37 c0 -6 -4 -13 -10 -16 -5 -3 -10 -2 -10 4 0 5
-8 12 -17 14 -11 3 -7 5 10 6 15 0 27 -3 27 -8z m-283 -33 c-3 -8 -6 -5 -6 6
-1 11 2 17 5 13 3 -3 4 -12 1 -19z m60 -20 c-3 -8 -6 -5 -6 6 -1 11 2 17 5 13
3 -3 4 -12 1 -19z m-190 -10 c-3 -8 -6 -5 -6 6 -1 11 2 17 5 13 3 -3 4 -12 1
-19z m-668 -42 c-8 -8 -88 -10 -95 -3 -4 4 17 7 46 7 29 0 51 -2 49 -4z m88
-22 c-3 -3 -12 -4 -19 -1 -8 3 -5 6 6 6 11 1 17 -2 13 -5z m560 -16 c-3 -8 -6
-5 -6 6 -1 11 2 17 5 13 3 -3 4 -12 1 -19z m190 -10 c-3 -8 -6 -5 -6 6 -1 11
2 17 5 13 3 -3 4 -12 1 -19z m190 -50 c-3 -8 -6 -5 -6 6 -1 11 2 17 5 13 3 -3
4 -12 1 -19z m-400 -10 c-3 -8 -6 -5 -6 6 -1 11 2 17 5 13 3 -3 4 -12 1 -19z
m-1300 1 c-14 -8 -22 -8 -30 0 -8 8 -3 11 19 11 25 -1 27 -2 11 -11z m1430
-11 c-3 -8 -6 -5 -6 6 -1 11 2 17 5 13 3 -3 4 -12 1 -19z m-812 2 c3 -5 1 -10
-4 -10 -6 0 -11 5 -11 10 0 6 2 10 4 10 3 0 8 -4 11 -10z m1062 -62 c-3 -8 -6
-5 -6 6 -1 11 2 17 5 13 3 -3 4 -12 1 -19z m-497 -8 c0 -5 -5 -10 -11 -10 -5
0 -7 5 -4 10 3 6 8 10 11 10 2 0 4 -4 4 -10z m227 -22 c-3 -8 -6 -5 -6 6 -1
11 2 17 5 13 3 -3 4 -12 1 -19z m-240 -105 c-2 -16 -4 -5 -4 22 0 28 2 40 4
28 2 -13 2 -35 0 -50z m470 5 c-3 -8 -6 -5 -6 6 -1 11 2 17 5 13 3 -3 4 -12 1
-19z m-1127 -218 c0 -5 -5 -10 -11 -10 -5 0 -7 5 -4 10 3 6 8 10 11 10 2 0 4
-4 4 -10z m1017 -22 c-3 -8 -6 -5 -6 6 -1 11 2 17 5 13 3 -3 4 -12 1 -19z
m-637 8 c0 -3 -4 -8 -10 -11 -5 -3 -10 -1 -10 4 0 6 5 11 10 11 6 0 10 -2 10
-4z m20 -26 c0 -5 -5 -10 -11 -10 -5 0 -7 5 -4 10 3 6 8 10 11 10 2 0 4 -4 4
-10z m557 -22 c-3 -7 -5 -2 -5 12 0 14 2 19 5 13 2 -7 2 -19 0 -25z m20 -50
c-3 -7 -5 -2 -5 12 0 14 2 19 5 13 2 -7 2 -19 0 -25z m-80 -10 c-3 -8 -6 -5
-6 6 -1 11 2 17 5 13 3 -3 4 -12 1 -19z m-570 -110 c-3 -8 -6 -5 -6 6 -1 11 2
17 5 13 3 -3 4 -12 1 -19z m20 -70 c-3 -8 -6 -5 -6 6 -1 11 2 17 5 13 3 -3 4
-12 1 -19z m720 -160 c-3 -7 -5 -2 -5 12 0 14 2 19 5 13 2 -7 2 -19 0 -25z
m-497 -18 c0 -5 -4 -10 -10 -10 -5 0 -10 5 -10 10 0 6 5 10 10 10 6 0 10 -4
10 -10z m517 -142 c-2 -13 -4 -5 -4 17 -1 22 1 32 4 23 2 -10 2 -28 0 -40z
m-480 -40 c-3 -8 -6 -5 -6 6 -1 11 2 17 5 13 3 -3 4 -12 1 -19z m20 -135 c-3
-10 -5 -2 -5 17 0 19 2 27 5 18 2 -10 2 -26 0 -35z m480 -80 c-2 -21 -4 -4 -4
37 0 41 2 58 4 38 2 -21 2 -55 0 -75z m-1404 70 c-7 -2 -19 -2 -25 0 -7 3 -2
5 12 5 14 0 19 -2 13 -5z m174 1 c-3 -3 -12 -4 -19 -1 -8 3 -5 6 6 6 11 1 17
-2 13 -5z m-287 -18 c0 -3 -4 -8 -10 -11 -5 -3 -10 -1 -10 4 0 6 5 11 10 11 6
0 10 -2 10 -4z m907 -43 c-3 -10 -5 -4 -5 12 0 17 2 24 5 18 2 -7 2 -21 0 -30z
m690 5 c-3 -8 -6 -5 -6 6 -1 11 2 17 5 13 3 -3 4 -12 1 -19z m146 -35 c-18 -2
-48 -2 -65 0 -18 2 -4 4 32 4 36 0 50 -2 33 -4z m-626 -35 c-3 -7 -5 -2 -5 12
0 14 2 19 5 13 2 -7 2 -19 0 -25z m-60 -10 c-3 -7 -5 -2 -5 12 0 14 2 19 5 13
2 -7 2 -19 0 -25z m741 -15 c-21 -2 -55 -2 -75 0 -21 2 -4 4 37 4 41 0 58 -2
38 -4z m-215 -40 c-7 -2 -19 -2 -25 0 -7 3 -2 5 12 5 14 0 19 -2 13 -5z m-636
-85 c-3 -7 -5 -2 -5 12 0 14 2 19 5 13 2 -7 2 -19 0 -25z m20 -115 c-3 -10 -5
-4 -5 12 0 17 2 24 5 18 2 -7 2 -21 0 -30z m-302 -13 c3 -5 -1 -10 -10 -10 -9
0 -13 5 -10 10 3 6 8 10 10 10 2 0 7 -4 10 -10z m-480 -30 c-11 -5 -33 -9 -50
-9 -23 -1 -26 2 -15 9 8 5 31 9 50 9 29 0 31 -2 15 -9z m-340 -10 c3 -5 1 -10
-4 -10 -6 0 -11 5 -11 10 0 6 2 10 4 10 3 0 8 -4 11 -10z m1038 -7 c-7 -2 -19
-2 -25 0 -7 3 -2 5 12 5 14 0 19 -2 13 -5z m924 -15 c-3 -8 -6 -5 -6 6 -1 11
2 17 5 13 3 -3 4 -12 1 -19z m-1006 -18 c134 -35 132 -34 141 -65 4 -16 6 -30
5 -32 -2 -1 -48 20 -102 47 -55 28 -108 50 -117 50 -9 0 -20 5 -23 10 -9 15
13 12 96 -10z m-574 4 c-3 -3 -12 -4 -19 -1 -8 3 -5 6 6 6 11 1 17 -2 13 -5z
m300 0 c-3 -3 -12 -4 -19 -1 -8 3 -5 6 6 6 11 1 17 -2 13 -5z m460 -31 c-3
-10 -5 -4 -5 12 0 17 2 24 5 18 2 -7 2 -21 0 -30z m150 0 c-3 -10 -5 -4 -5 12
0 17 2 24 5 18 2 -7 2 -21 0 -30z m-1514 0 c-7 -2 -19 -2 -25 0 -7 3 -2 5 12
5 14 0 19 -2 13 -5z m-100 -20 c-7 -2 -19 -2 -25 0 -7 3 -2 5 12 5 14 0 19 -2
13 -5z m2364 -190 c-2 -37 -3 -9 -3 62 0 72 1 102 3 68 2 -34 2 -93 0 -130z
m-2470 171 c-3 -3 -12 -4 -19 -1 -8 3 -5 6 6 6 11 1 17 -2 13 -5z m-100 -20
c-3 -3 -12 -4 -19 -1 -8 3 -5 6 6 6 11 1 17 -2 13 -5z m1690 -46 c-3 -8 -6 -5
-6 6 -1 11 2 17 5 13 3 -3 4 -12 1 -19z m820 -60 c-2 -13 -4 -3 -4 22 0 25 2
35 4 23 2 -13 2 -33 0 -45z m-807 -24 c0 -2 -7 -4 -15 -4 -8 0 -15 4 -15 10 0
5 7 7 15 4 8 -4 15 -8 15 -10z m330 6 c0 -5 -4 -10 -10 -10 -5 0 -10 5 -10 10
0 6 5 10 10 10 6 0 10 -4 10 -10z m55 -125 c-25 -48 -45 -91 -45 -96 0 -19 44
-7 120 33 82 43 101 44 83 5 -10 -21 -21 -47 -44 -104 -6 -16 -15 -36 -21 -46
-10 -20 -3 -37 14 -37 6 0 44 27 85 60 l73 60 0 -125 c0 -102 3 -125 14 -125
8 0 20 16 27 35 7 19 15 32 18 29 8 -7 10 -184 2 -183 -11 0 -280 197 -391
286 -8 6 -39 30 -67 53 -47 36 -53 45 -53 78 0 20 5 53 10 73 9 31 17 38 58
52 26 9 72 25 102 36 30 11 56 16 58 12 1 -5 -18 -48 -43 -96z m660 -15 c3 -5
1 -10 -4 -10 -6 0 -11 5 -11 10 0 6 2 10 4 10 3 0 8 -4 11 -10z m-258 -72 c-2
-13 -4 -3 -4 22 0 25 2 35 4 23 2 -13 2 -33 0 -45z m170 -20 c-3 -7 -5 -2 -5
12 0 14 2 19 5 13 2 -7 2 -19 0 -25z m-256 -51 c1 -37 -1 -70 -4 -74 -4 -3 -7
29 -7 72 0 95 8 96 11 2z m146 36 c-3 -10 -5 -4 -5 12 0 17 2 24 5 18 2 -7 2
-21 0 -30z m-270 -5 c-3 -8 -6 -5 -6 6 -1 11 2 17 5 13 3 -3 4 -12 1 -19z
m383 -22 c0 -3 -4 -8 -10 -11 -5 -3 -10 -1 -10 4 0 6 5 11 10 11 6 0 10 -2 10
-4z m-963 -48 c-3 -7 -5 -2 -5 12 0 14 2 19 5 13 2 -7 2 -19 0 -25z m234 12
c31 -25 12 -26 -21 0 -14 11 -20 20 -14 20 7 0 22 -9 35 -20z m616 -12 c-3 -8
-6 -5 -6 6 -1 11 2 17 5 13 3 -3 4 -12 1 -19z m-88 -52 c-9 -8 -10 -7 -5 7 3
10 7 26 7 35 1 9 4 6 6 -7 3 -13 -1 -28 -8 -35z m-1932 22 c-3 -8 -6 -5 -6 6
-1 11 2 17 5 13 3 -3 4 -12 1 -19z m2000 -20 c-3 -8 -6 -5 -6 6 -1 11 2 17 5
13 3 -3 4 -12 1 -19z m-2020 -50 c-3 -8 -6 -5 -6 6 -1 11 2 17 5 13 3 -3 4
-12 1 -19z m1393 -85 c8 -31 6 -55 -12 -130 -12 -51 -24 -89 -28 -84 -11 18
12 251 25 251 2 0 9 -17 15 -37z m-1753 5 c-3 -8 -6 -5 -6 6 -1 11 2 17 5 13
3 -3 4 -12 1 -19z m2323 12 c0 -5 -4 -10 -10 -10 -5 0 -10 5 -10 10 0 6 5 10
10 10 6 0 10 -4 10 -10z m-2403 -42 c-3 -8 -6 -5 -6 6 -1 11 2 17 5 13 3 -3 4
-12 1 -19z m400 -40 c-3 -8 -6 -5 -6 6 -1 11 2 17 5 13 3 -3 4 -12 1 -19z
m-420 -30 c-3 -8 -6 -5 -6 6 -1 11 2 17 5 13 3 -3 4 -12 1 -19z m-20 -70 c-3
-8 -6 -5 -6 6 -1 11 2 17 5 13 3 -3 4 -12 1 -19z m483 1 c0 -5 -4 -9 -10 -9
-5 0 -10 7 -10 16 0 8 5 12 10 9 6 -3 10 -10 10 -16z m1437 -41 c-3 -8 -6 -5
-6 6 -1 11 2 17 5 13 3 -3 4 -12 1 -19z m-1517 2 c0 -5 -4 -10 -10 -10 -5 0
-10 5 -10 10 0 6 5 10 10 10 6 0 10 -4 10 -10z m1487 -22 c-3 -8 -6 -5 -6 6
-1 11 2 17 5 13 3 -3 4 -12 1 -19z m110 -10 c-3 -8 -6 -5 -6 6 -1 11 2 17 5
13 3 -3 4 -12 1 -19z m353 6 c0 -2 -18 -4 -41 -4 -22 0 -38 4 -35 8 5 8 76 4
76 -4z m-413 -56 c-3 -7 -5 -2 -5 12 0 14 2 19 5 13 2 -7 2 -19 0 -25z m-70
-20 c-3 -8 -6 -5 -6 6 -1 11 2 17 5 13 3 -3 4 -12 1 -19z m-440 -10 c-3 -8 -6
-5 -6 6 -1 11 2 17 5 13 3 -3 4 -12 1 -19z m30 -50 c-3 -8 -6 -5 -6 6 -1 11 2
17 5 13 3 -3 4 -12 1 -19z m500 0 c-3 -8 -6 -5 -6 6 -1 11 2 17 5 13 3 -3 4
-12 1 -19z m-110 -30 c-3 -8 -6 -5 -6 6 -1 11 2 17 5 13 3 -3 4 -12 1 -19z
m-1847 8 c0 -3 -4 -8 -10 -11 -5 -3 -10 -1 -10 4 0 6 5 11 10 11 6 0 10 -2 10
-4z m2037 -28 c-3 -8 -6 -5 -6 6 -1 11 2 17 5 13 3 -3 4 -12 1 -19z m-2117 2
c0 -5 -4 -10 -10 -10 -5 0 -10 5 -10 10 0 6 5 10 10 10 6 0 10 -4 10 -10z
m2057 -42 c-3 -7 -5 -2 -5 12 0 14 2 19 5 13 2 -7 2 -19 0 -25z m-150 -20 c-3
-8 -6 -5 -6 6 -1 11 2 17 5 13 3 -3 4 -12 1 -19z m230 -30 c-3 -8 -6 -5 -6 6
-1 11 2 17 5 13 3 -3 4 -12 1 -19z m-60 -40 c-3 -8 -6 -5 -6 6 -1 11 2 17 5
13 3 -3 4 -12 1 -19z m-2460 6 c-3 -3 -12 -4 -19 -1 -8 3 -5 6 6 6 11 1 17 -2
13 -5z m2540 -66 c-3 -8 -6 -5 -6 6 -1 11 2 17 5 13 3 -3 4 -12 1 -19z m-60
-40 c-3 -8 -6 -5 -6 6 -1 11 2 17 5 13 3 -3 4 -12 1 -19z m-787 -60 c0 -16 -3
-19 -11 -11 -6 6 -8 16 -5 22 11 17 16 13 16 -11z m597 -75 c-2 -21 -4 -6 -4
32 0 39 2 55 4 38 2 -18 2 -50 0 -70z m270 65 c-3 -7 -5 -2 -5 12 0 14 2 19 5
13 2 -7 2 -19 0 -25z m-987 -72 c0 -3 -4 -8 -10 -11 -5 -3 -10 -1 -10 4 0 6 5
11 10 11 6 0 10 -2 10 -4z m1007 -43 c-3 -10 -5 -4 -5 12 0 17 2 24 5 18 2 -7
2 -21 0 -30z m-52 -13 c3 -5 1 -10 -4 -10 -6 0 -11 5 -11 10 0 6 2 10 4 10 3
0 8 -4 11 -10z m-1218 -32 c-3 -8 -6 -5 -6 6 -1 11 2 17 5 13 3 -3 4 -12 1
-19z m1440 -30 c-3 -7 -5 -2 -5 12 0 14 2 19 5 13 2 -7 2 -19 0 -25z m-440
-55 c-3 -10 -5 -4 -5 12 0 17 2 24 5 18 2 -7 2 -21 0 -30z m290 -5 c-3 -7 -5
-2 -5 12 0 14 2 19 5 13 2 -7 2 -19 0 -25z m-270 -120 c-3 -7 -5 -2 -5 12 0
14 2 19 5 13 2 -7 2 -19 0 -25z m290 -15 c-3 -10 -5 -4 -5 12 0 17 2 24 5 18
2 -7 2 -21 0 -30z m-50 -35 c-3 -8 -6 -5 -6 6 -1 11 2 17 5 13 3 -3 4 -12 1
-19z m205 -176 c2 -50 0 -92 -4 -92 -5 0 -7 62 -6 138 2 139 5 122 10 -46z
m-1542 143 c0 -8 -4 -15 -10 -15 -5 0 -7 7 -4 15 4 8 8 15 10 15 2 0 4 -7 4
-15z m1117 -7 c-3 -8 -6 -5 -6 6 -1 11 2 17 5 13 3 -3 4 -12 1 -19z m-1020
-30 c-3 -7 -5 -2 -5 12 0 14 2 19 5 13 2 -7 2 -19 0 -25z m1040 -50 c-3 -8 -6
-5 -6 6 -1 11 2 17 5 13 3 -3 4 -12 1 -19z m270 -20 c-3 -7 -5 -2 -5 12 0 14
2 19 5 13 2 -7 2 -19 0 -25z m-50 -35 c-3 -10 -5 -4 -5 12 0 17 2 24 5 18 2
-7 2 -21 0 -30z m-193 -9 c3 -8 2 -12 -4 -9 -6 3 -10 10 -10 16 0 14 7 11 14
-7z m123 -6 c-3 -8 -6 -5 -6 6 -1 11 2 17 5 13 3 -3 4 -12 1 -19z m90 -180
c-2 -13 -4 -3 -4 22 0 25 2 35 4 23 2 -13 2 -33 0 -45z m58 52 c3 -5 1 -10 -4
-10 -6 0 -11 5 -11 10 0 6 2 10 4 10 3 0 8 -4 11 -10z m22 -222 c-3 -7 -5 -2
-5 12 0 14 2 19 5 13 2 -7 2 -19 0 -25z m40 10 c-3 -8 -6 -5 -6 6 -1 11 2 17
5 13 3 -3 4 -12 1 -19z m-97 -44 c0 -30 -3 -53 -7 -51 -8 5 -5 107 3 107 2 0
4 -25 4 -56z m77 -16 c-3 -8 -6 -5 -6 6 -1 11 2 17 5 13 3 -3 4 -12 1 -19z"/>
<path d="M5825 12819 c-15 -6 -11 -8 18 -8 20 -1 37 1 37 3 0 9 -37 12 -55 5z"/>
<path d="M5443 12813 c15 -2 39 -2 55 0 15 2 2 4 -28 4 -30 0 -43 -2 -27 -4z"/>
<path d="M2968 3 c1585 -2 4179 -2 5765 0 1585 1 288 2 -2883 2 -3171 0 -4468
-1 -2882 -2z"/>
</g>
</svg>
