<?xml version="1.0" encoding="UTF-8"?>
<svg xmlns="http://www.w3.org/2000/svg" version="1.1" viewBox="0 0 34 24">
  <defs>
    <style>
      .cls-1 {
        fill: #04061b;
      }

      .cls-2 {
        fill: #e9d1b0;
      }

      .cls-3 {
        fill: #ba885a;
      }

      .cls-4 {
        fill: #6878a4;
      }

      .cls-5 {
        fill: #bdad94;
      }

      .cls-6 {
        fill: #bd8859;
      }

      .cls-7 {
        fill: #080715;
      }

      .cls-8 {
        fill: #121012;
      }

      .cls-9 {
        fill: #f9f9f9;
      }

      .cls-10 {
        fill: #03020a;
      }

      .cls-11 {
        stroke-width: .3px;
      }

      .cls-11, .cls-12, .cls-13 {
        fill: none;
        stroke: #000;
        stroke-linecap: round;
        stroke-linejoin: round;
      }

      .cls-12 {
        stroke-width: .5px;
      }

      .cls-13 {
        stroke-width: .5px;
      }

      .cls-14 {
        fill: #bb855a;
      }

      .cls-15 {
        fill: #916539;
      }
    </style>
  </defs>
  <!-- Generator: Adobe Illustrator 28.7.0, SVG Export Plug-In . SVG Version: 1.2.0 Build 136)  -->
  <g>
    <g id="Layer_1">
      <g>
        <g>
          <g id="Duplicate_Items_Folder_Symbol_1_copy_0_Layer3_0_FILL">
            <path class="cls-6" d="M15.3,13l-.5.4c0-3.6.7-6.1,2.1-7.4,2.5,0,5.1.5,7.6,1.1,0,1,.1,1.8.3,2.5l-.6-.5c.3,1.2.4,2.3.3,3.2l-.5-.4c0,.6.3,1.4.6,2.4.4,1,.5,2.2.3,3.5l-1.1-1.6c-.2.9-.3,1.9-.2,2.9,0,.9,0,1.6-.3,2.3-.1-1.1-.5-1.9-1-2.4.3,1.6.2,2.8-.3,3.6-.2-1.3-.5-2.3-.9-3-.2,1.1-.4,1.8-.7,2.1,0-1.3-.3-2.3-.7-2.8-.2,1.9-.5,3.4-1.1,4.7-.1-1.8-.4-3.1-1-4.1-.5,1-.9,2.1-1.2,3.2,0,.1,0,.2-.1.3,0,.1-.2.2-.3.2,0-.6,0-1.2,0-1.7-.1-.6-.3-1.1-.5-1.7-.1-.2-.2-.4-.2-.5,0-.1-.1-.3-.1-.4v-1.2c0-2,.1-3.5.3-4.5M16.6,11s0,0-.1,0c0,0,0,0,0,0,0,0,0,0,0,0,0,0,0,0,0,.2,0,0,0,.2,0,.3,0,.3-.2.7-.2,1.2,0,.3-.1.7-.2,1.2,0,0,0,.1,0,.2,0,0,0,.1,0,.1,0,0,0,0,.1,0,0,0,0,0,0,0,0,0,0-.1,0-.2.1-.7.2-1.1.2-1.2,0-.4.2-.8.2-1.2,0-.2,0-.3,0-.4,0,0,0-.2,0-.2,0,0,0,0,0,0M16.7,13.1c0,.1,0,.2,0,.2,0,0,0,.1,0,.3,0,.3-.2.7-.2,1.2,0,.1,0,.2,0,.3,0,0,0,0,.1,0,0,0,0,0,.1,0,0,0,0-.1,0-.2,0-.4,0-.8.2-1.2,0-.2,0-.3,0-.4,0-.1,0-.3,0-.5,0-.1,0-.2,0-.2,0,0,0,0-.1,0,0,0,0,0-.1,0,0,0,0,0,0,.2,0,0,0,.1,0,.2M16.9,15.9c0-.1,0-.2-.1-.3,0,0,0,0-.1,0,0,0,0,0,0,0,0,0,0,.1,0,.2,0,.5,0,1.2-.1,2-.1,1-.2,1.7-.2,2,0,.1,0,.2,0,.2,0,0,0,0,0,0,0,0,0,0,.1,0,0,0,.1,0,.1-.1,0,0,0,0,0-.2,0-.2,0-.5,0-.8,0,0,0-.3.1-.8.1-.9.2-1.7.1-2.4M18.8,15.8s0,0,0,0c0,0,0,0-.1-.1,0,0,0,0-.1-.1h0c0-.1,0-.1-.1-.1,0,.2,0,.4,0,.7,0,0,0,.1,0,.1,0,0,0,0,0,0,0,0,0,0,0,0,0,0,.1-.1.2-.3,0,0,.1-.1.2-.2M18.2,17.7s0,0,0,0c0,0,0,0,0,0,0,0,0,0,0,.2,0,0,0,.2,0,.2,0,.1,0,.3,0,.6v.8c0,.2,0,.4,0,.5,0,.2,0,.4,0,.5,0,.1,0,.2,0,.2,0,0,0,0,0,.2s0,.1,0,.2c0,0,0,.1,0,.1,0,0,0,0,.2,0,0,0,.1,0,.1-.1,0,0,0-.1,0-.2,0-.1,0-.2,0-.3v-.2c0-.2-.1-.4-.1-.8v-1c0-.3,0-.5-.1-.7,0,0,0-.1,0-.3,0-.1,0-.2-.1-.2,0,0,0,0,0,0s0,0,0,0M17.5,17.5c0,0,0,0-.1.1,0,0,0,0,0,.1,0,0,0,0,0,.1,0,0,0,.1,0,.2,0,.2,0,.4,0,.6,0,.4.1.7.2,1.1,0,0,0,0,0,.1,0,0,0,0,0,0,0,0,0,0,.1,0,0,0,0,0,.1,0,0,0,0-.1,0-.2,0-.3-.1-.6-.2-.9,0-.2,0-.4-.1-.6,0-.1,0-.2,0-.3,0-.1,0-.2,0-.3,0,0,0-.1,0-.1,0,0-.1,0-.2,0M15.5,15s0,0-.1,0c0,0,0,0,0,.1,0,0,0,.1,0,.2,0,.3,0,.7,0,1.1,0,0,0,.4-.2,1.1,0,.2,0,.4,0,.5,0,.1,0,.3,0,.5,0,.2,0,.4,0,.5,0,.2.1.3.2.5,0,.1.1.2.1.2,0,0,0,.1,0,.3,0,.1,0,.2.1.3,0,0,0,.1.1.1,0,0,.1,0,.2,0,0,0,.1,0,.1-.1,0,0,0-.1,0-.2-.1-.4-.2-.9-.3-1.3,0-.2,0-.6,0-1v-.6c0-.3,0-.5,0-.7,0-.3,0-.5,0-.7,0-.3,0-.5,0-.7,0-.2,0-.2-.2-.3M20.6,16.5c0-.1,0-.2,0-.3,0,0,0,0,0-.1,0,0,0,0,0-.1,0,0,0,0-.1,0,0,0-.1,0-.2,0,0,0,0,0,0,.2v.6c0,.1-.1.2-.1.2v.4c0,0,0,.1,0,.2,0,0,0,0,0,.1,0,0,0,0,.2,0s.1,0,.2,0c0,0,0,0,0,0,0,0,0,0,0,0,0,0,0,0,0-.2,0,0,0-.1,0-.2,0,0,0-.1,0-.2,0,0,0-.2,0-.2,0,0,0-.1,0-.2Z"/>
            <path class="cls-15" d="M20.6,16.2c0,0,0,.2,0,.3,0,0,0,.1,0,.2,0,0,0,.1,0,.2,0,.1,0,.2,0,.2,0,0,0,0,0,.2,0,0,0,.1,0,.2,0,0,0,0,0,0,0,0,0,0,0,0,0,0,0,0-.2,0s-.1,0-.2,0c0,0,0,0,0-.1,0,0,0-.1,0-.2v-.4c0,0,0-.1,0-.2v-.6c0,0,.1-.1.1-.2,0,0,0,0,.2,0,0,0,.1,0,.1,0,0,0,0,0,0,.1,0,0,0,0,0,.1M15.4,15s0,0,.1,0c0,0,.2.1.2.3,0,.2,0,.4,0,.7,0,.2,0,.4,0,.7,0,.1,0,.4,0,.7v.6c0,.5,0,.8,0,1,0,.4.1.9.3,1.3,0,0,0,.1,0,.2,0,0,0,.1-.1.1,0,0-.1,0-.2,0,0,0,0,0-.1-.1,0-.1,0-.2-.1-.3,0-.1,0-.2,0-.3,0,0,0,0-.1-.2,0-.1-.2-.3-.2-.5,0-.1,0-.3,0-.5,0-.2,0-.4,0-.5,0-.1,0-.3,0-.5.1-.7.2-1,.2-1.1,0-.4,0-.8,0-1.1,0-.1,0-.2,0-.2,0,0,0,0,0-.1M17.4,17.6c0,0,0,0,.1-.1,0,0,.1,0,.2,0,0,0,0,0,0,.1,0,0,0,.2,0,.3,0,0,0,.2,0,.3,0,.2,0,.4.1.6,0,.3.1.6.2.9,0,0,0,.1,0,.2,0,0,0,0-.1,0,0,0-.1,0-.1,0,0,0,0,0,0,0,0,0,0,0,0-.1,0-.4-.2-.7-.2-1.1,0-.3,0-.5,0-.6,0-.1,0-.2,0-.2,0,0,0-.1,0-.1,0,0,0,0,0-.1M18.1,17.8s0,0,0,0c0,0,0,0,0,0s0,0,0,0c0,0,0,.1.1.2,0,.2,0,.3,0,.3,0,.1,0,.4,0,.7v1c0,.3,0,.6.1.8v.2c0,0,0,.2,0,.3,0,0,0,.1,0,.2,0,0,0,.1-.1.1,0,0-.1,0-.2,0,0,0,0,0,0-.1,0,0,0,0,0-.2s0-.1,0-.2c0,0,0,0,0-.2,0-.2,0-.3,0-.5,0-.1,0-.3,0-.5v-.8c0-.3,0-.5-.1-.6,0,0,0-.2,0-.2,0,0,0-.1,0-.2,0,0,0,0,0,0M16.8,15.6c0,0,.1.1.1.3,0,.7,0,1.5-.1,2.4,0,.5-.1.8-.1.8,0,.3,0,.6,0,.8,0,0,0,.2,0,.2,0,0,0,.1-.1.1,0,0,0,0-.1,0,0,0,0,0,0,0,0,0,0-.1,0-.2,0-.3,0-.9.2-2,0-.8.1-1.4.1-2,0-.1,0-.2,0-.2,0,0,0,0,0,0,0,0,0,0,.1,0M16.7,13.3c0,0,0-.1,0-.2,0-.1,0-.2,0-.2,0,0,0-.1,0-.2,0,0,0,0,.1,0,0,0,0,0,.1,0,0,0,0,.1,0,.2,0,.2,0,.4,0,.5,0,0,0,.1,0,.4,0,.4-.2.8-.2,1.2s0,.2,0,.2c0,0,0,0-.1,0,0,0,0,0-.1,0,0,0,0-.1,0-.3,0-.5.1-.9.2-1.2,0-.2,0-.3,0-.3M16.5,11s0,0,.1,0c0,0,0,0,0,0,0,0,0,.1,0,.2,0,0,0,.2,0,.4,0,.3-.2.7-.2,1.2,0,0,0,.4-.2,1.2,0,.1,0,.2,0,.2,0,0,0,0,0,0,0,0,0,0-.1,0,0,0,0,0,0-.1,0,0,0,0,0-.2,0-.5.1-.9.2-1.2,0-.5.2-.9.2-1.2,0-.1,0-.3,0-.3,0-.1,0-.2,0-.2,0,0,0,0,0,0,0,0,0,0,0,0M13.6,8.6l-.6.4c.4-1.2,1-2.2,1.7-3,.7,0,1.4,0,2.2,0-1.4,1.4-2.1,3.8-2.1,7.4l.5-.4c-.2,1-.3,2.5-.3,4.5v1.2c0,0-.1.2-.2.3,0,.1,0,.3,0,.6,0,.2-.1.5-.2.8,0,.2-.2.4-.4.8,0-1.7,0-3.4-.5-5.1,0,.3,0,.5-.2.8-.1.3-.3.5-.5.6,0-1.2.2-2.4.4-3.7-.3,0-.5.2-.6.7,0-.8.1-2,.6-3.5l-.6.7c0-1,.4-2,.9-3.2Z"/>
            <path class="cls-3" d="M18.8,15.8s0,0,0,0c0,0,0,.1-.2.2,0,.1-.2.2-.2.3,0,0,0,0,0,0,0,0,0,0,0,0,0,0,0,0,0-.1,0-.2,0-.4,0-.7,0,0,0,0,.1,0h0c0,.1.1.2.1.2,0,0,.1,0,.1.1Z"/>
          </g>
          <path id="Duplicate_Items_Folder_Symbol_1_copy_0_Layer3_0_1_STROKES" class="cls-13" d="M15,18.8c0,0-.1.2-.2.3,0,.1,0,.3,0,.6,0,.2-.1.5-.2.8,0,.2-.2.4-.4.8,0-1.7,0-3.4-.5-5.1,0,.3,0,.5-.2.8-.1.3-.3.5-.5.6,0-1.2.2-2.4.4-3.7-.3,0-.5.2-.6.7,0-.8.1-2,.6-3.5l-.6.7c0-1,.4-2,.9-3.2l-.6.4c.4-1.2,1-2.2,1.7-3,.7,0,1.4,0,2.2,0M15,17.5v1.2c0,.1,0,.3.1.4,0,.1.1.3.2.5.3.5.4,1.1.5,1.7.1.6.1,1.2,0,1.7.1,0,.2,0,.3-.2,0,0,0-.2.1-.3.3-1.1.7-2.2,1.2-3.2.5,1,.9,2.4,1,4.1.6-1.3.9-2.8,1.1-4.7.4.6.7,1.5.7,2.8.2-.3.5-1,.7-2.1.4.8.7,1.8.9,3,.5-.8.6-2,.3-3.6.6.5.9,1.3,1,2.4.3-.7.4-1.5.3-2.3,0-1.1,0-2.1.2-2.9l1.1,1.6c.2-1.3,0-2.5-.3-3.5-.4-1-.6-1.8-.6-2.4l.5.4c0-.9,0-2-.3-3.2l.6.5c-.2-.7-.3-1.6-.3-2.5-2.5-.6-5-1-7.6-1.1M12.7,14.6s0,0,0,0"/>
        </g>
        <g id="Duplicate_Items_Folder_Symbol_1_copy_0_Layer3_1_FILL">
          <path class="cls-8" d="M20.4,11.5h.2c0-.1,0-.1,0-.1,0,0,0,0,0,0,0,0,0-.2,0-.3,0,0,0-.1.1-.2,0,0,0-.1,0-.2,0,0,0,0,.1-.1,0,0,.1,0,.2,0,0,0,.1,0,.2,0,0,0,.1.2.2.3,0,.2,0,.3,0,.4.1,0,.2.1.3.2,0,0,.2.2.2.3,0,.1,0,.2,0,.3,0,0,0,.1,0,.1,0,0,0,0-.1,0,0,0-.1,0-.2,0,0,0,0,0-.2,0h-.3c-.1-.1-.2-.2-.2-.2,0,0-.1,0-.2,0,0,0,0,0-.2,0-.1,0-.3,0-.4.1-.2,0-.3,0-.4,0,0,0,0-.1-.1-.2,0,0,0-.1,0-.2,0-.1.1-.2.3-.3,0,0,0,0,.1,0Z"/>
        </g>
        <g>
          <g>
            <g id="Duplicate_Items_Folder_Symbol_1_0_Layer0_0_FILL">
              <path class="cls-14" d="M23.7,12.5c.6-.3.8-.1.7.4-.6.4-1.4.5-2.3.4.9.1,1.7,0,2.3-.4.8-.2.9,0,.3.7-.8.4-1.7.6-2.7.5-1.1,0-2.1,0-3.2.5-.8.2-1.1.2-1,0,.2-.9,1.1-1.4,2.7-1.5,1.6-.1,2.7-.3,3.3-.6M22.1,13.4c-1.4,0-2.6.4-3.8.9,1.1-.6,2.4-.9,3.8-.9Z"/>
            </g>
            <path id="Duplicate_Items_Folder_Symbol_1_0_Layer0_0_1_STROKES" class="cls-11" d="M24.5,12.9c.8-.2.9,0,.3.7-.8.4-1.7.6-2.7.5-1.1,0-2.1,0-3.2.5-.8.2-1.1.2-1,0,.2-.9,1.1-1.4,2.7-1.5,1.6-.1,2.7-.3,3.3-.6.6-.3.8-.1.7.4-.6.4-1.4.5-2.3.4M22.1,13.4c-1.4,0-2.6.4-3.8.9"/>
          </g>
          <g id="Duplicate_Items_Folder_Symbol_1_0_Layer0_0_MEMBER_0_FILL">
            <path class="cls-10" d="M18.6,13c.2,0,.4-.1.6-.1.1,0,.3,0,.7,0,.4,0,.8,0,1.2-.1.2,0,.7,0,1.2-.2.2,0,.4,0,.5,0,.2,0,.3,0,.4-.1,0,0,.2,0,.4-.1.2,0,.3,0,.4-.1,0,0,.2,0,.2,0,0,0,0,0,0,0,0,0,0,0,0,0,0,0,0,0,0,.1,0,0,0,0-.1,0,0,0,0,0-.1,0h-.1c0,0-.2,0-.3.1-.1,0-.2,0-.3.1-.1,0-.3,0-.4.1,0,0-.2,0-.4,0-.9.1-1.9.2-2.8.3-.2,0-.3,0-.4,0-.1,0-.3,0-.4,0-.2,0-.5.2-.7.3-.2.2-.4.3-.5.5,0,.1-.1.2-.2.3,0,0,0,.2,0,.2,0,0,0,.1.1.2,0,0,.1,0,.2,0,0,0,.1,0,.2,0,.2,0,.4-.1.8-.2.4,0,.6-.1.8-.1,0,0,.1,0,.3,0,.1,0,.2,0,.3,0,.1,0,.3,0,.6,0,.6,0,1.1,0,1.4,0,0,0,.2,0,.3,0,.1,0,.2,0,.3,0,.1,0,.3,0,.6-.1l1.2-.4c0,0,.1,0,.1,0,0,0,0,0,.1,0,0,0,0,0,0-.2,0,0,0-.1,0-.2,0,0,0,0,.1,0,0,0,0,0,.1,0,0,0,0,.1,0,.2,0,.1,0,.2-.2.3,0,0-.1.1-.3.2,0,0-.2,0-.3.1l-1.2.4c-.2,0-.4.1-.5.1,0,0-.2,0-.3,0,0,0-.1,0-.3,0-.2,0-.4,0-.7,0-.1,0-.3,0-.7,0-.1,0-.3,0-.3,0-.1,0-.2,0-.3,0,0,0-.2,0-.3,0-.2,0-.3,0-.3,0-.1,0-.4,0-.7.1-.3,0-.6.1-.7.2-.1,0-.2,0-.2,0,0,0-.2,0-.2,0-.2,0-.3,0-.4-.2-.1-.1-.2-.3-.2-.4,0-.3.1-.5.4-.9,0,0,0,0,0-.1,0,0,0,0,0-.1,0,0,.1-.2.1-.2.1-.2.4-.3.7-.4Z"/>
          </g>
        </g>
        <g>
          <g id="Duplicate_Items_Folder_Symbol_1_copy_0_Layer1_0_FILL">
            <path class="cls-1" d="M21.4,10.2c-.3-.3-.6-.2-.8.3-.1.5-.8.7-1.9.6l2.4-2.8h2.6s-2,2.3-2,2.3c-.2-.2-.3-.4-.4-.5M24.6,8.4h1.1s0,.6,0,.6c-.2,0-.4.1-.5.3,0,.9-.4,1.5-1,1.7-.7.2-1.2.3-1.5.3-.1,0-.3,0-.4-.1l2.3-2.7M16,9v-.7s3.4,0,3.4,0l-2.3,2.5c-.4-.1-.7-.3-.8-.5-.3-.4-.4-.8-.3-1.3Z"/>
            <path class="cls-4" d="M22.3,11.1c-.1,0-.3-.2-.4-.3,0,0,0,0-.1-.1l2-2.3h.8s-2.3,2.7-2.3,2.7M18.8,11.1c0,0-.1,0-.2,0-.6,0-1.1-.1-1.5-.3l2.3-2.5h1.8s-2.4,2.8-2.4,2.8Z"/>
            <path class="cls-7" d="M16,9h-1c0,0-.2-.7-.2-.7h1.3s0,.7,0,.7Z"/>
          </g>
          <path id="Duplicate_Items_Folder_Symbol_1_copy_0_Layer1_0_1_STROKES" class="cls-13" d="M16,9h-1c0,0-.2-.7-.2-.7h1.3s0,.7,0,.7c-.1.5,0,1,.3,1.3.2.2.4.4.8.5.4.1.9.2,1.5.3,0,0,.1,0,.2,0,1.1,0,1.7-.1,1.9-.6.2-.5.4-.6.8-.3,0,.2.2.4.4.5,0,0,0,0,.1.1.1.1.2.2.4.3.1,0,.3,0,.4.1.3,0,.8,0,1.5-.3.7-.2,1-.8,1-1.7,0-.2.2-.3.5-.3v-.6s-1.1,0-1.1,0h-.8s-2.6,0-2.6,0h0M19.4,8.3h0s-3.4,0-3.4,0M19.4,8.4h1.8"/>
        </g>
        <g>
          <g id="Duplicate_Items_Folder_Symbol_1_copy_0_Layer0_0_MEMBER_0_FILL">
            <path class="cls-2" d="M15.8,7.3c.3-.2.6-.5.8-.8,2.9.3,5.8.3,8.9.1v.8c-3.4.3-6.6.3-9.6-.1M17.3,5.7l.3-1.3c1.4,0,3.4.1,5.8.1v1.4c-2,0-4.1,0-6.1-.2M16.5,6.5c.3-.1.5-.4.7-.8,2,.2,4.1.3,6.2.2l2,.7c-3.1.2-6,.2-8.9-.1M18.9,2.3c0,0-.2.2-.3.3l1-1.3c1.1.7,2.4,1.8,3.7,3.2-2.4,0-4.3,0-5.8-.1-.2-.3,0-.7.3-1.2.2-.2.5-.3.8-.6.1,0,.2-.2.3-.3M22.4,4c-1.2-.2-2.2-.8-2.8-1.9.7,1,1.6,1.7,2.8,1.9Z"/>
            <path class="cls-5" d="M16.5,6.5c-.2.3-.4.6-.8.8-.9-.1-1.8-.3-2.7-.5v-.8c1.1.2,2.3.3,3.5.4M18.6,2.6c-.3.2-.5.4-.8.6-.6.4-1.1.6-1.5.6.4,0,.9-.2,1.5-.6-.3.5-.4,1-.3,1.2-1.4,0-2.4-.2-2.8-.4,2.6-1.9,4-2.9,4.4-2.9.2,0,.3.2.5.3l-1,1.3M15,5.4l-.3-1.4c.4.2,1.4.3,2.8.4l-.3,1.3c-.7,0-1.5-.2-2.2-.3M13.1,6.1l2-.7c.7.1,1.5.2,2.2.3-.2.4-.4.7-.7.8-1.2-.1-2.3-.3-3.5-.4Z"/>
          </g>
          <path id="Duplicate_Items_Folder_Symbol_1_copy_0_Layer0_0_MEMBER_0_1_STROKES" class="cls-13" d="M19.6,1.4c-.2,0-.3-.2-.5-.3-.4,0-1.8,1-4.4,2.9l.3,1.4-2,.7v.8c.9.2,1.8.3,2.7.5,3.1.4,6.3.5,9.6.1v-.8s-2-.7-2-.7v-1.4c-1.4-1.4-2.7-2.5-3.8-3.2ZM18.6,2.6c-.3.2-.5.4-.8.6-.6.4-1.1.6-1.5.6M18.9,2.3c0,0-.2.2-.3.3M16.5,6.5c-1.2-.1-2.3-.3-3.5-.4M14.8,4c.4.2,1.4.3,2.8.4M17.3,5.7c-.7,0-1.5-.2-2.2-.3M17.6,4.4c1.4,0,3.4.1,5.8.1M23.4,5.9c-2.1,0-4.2,0-6.2-.2M25.4,6.6c-3.1.2-6,.2-8.9-.1M22.4,4c-1.2-.2-2.2-.8-2.8-1.9"/>
        </g>
        <g id="Duplicate_Items_Folder_Symbol_1_copy_0_Layer0_0_MEMBER_1_MEMBER_0_FILL">
          <path d="M20.9,5s0,0,0,0,0,0,0,0c0,0,0,0,0,0,0,0,0,0,0,0,0,0,0,0,0,0,0,0,0,0,0,0,0,0,0,0,0,0,0,0,0,0,0,0,0,0,0,0,0,0,0,0,0,0,0,0,0,0,0,0,0,0,0,0,0,0,0,0,0,0,0,0,0,0,0,0,0,0,0,0,0,0,0,0,0,0,0,0,0,0,0,0,0,0,0,.1,0,.2,0,0,0,0,0,.1,0,0,0,0,0,.1,0,0,0,0,0,0,0,0,0,0,0,0,0,0,0,0,0,0,0,0,0,0,0,0,0,0,0,0,0,0,0,0,0,0,0,0,0,0,0,0,0,0,0,0,0,0,0,0,0,0,0-.2.1-.2,0,0,0,0,0,0,0,0,0,0,0,0,0,0,0,0,0,0,0,0,0,0,0,0,0,0,0,0,0,0,0,0,0,0,0,0,0,0,0,0,0,0,0,0,0,0,0-.1,0,0,0,0,0,0M20.3,5.1s0,0,0,0c0,0,0,0,0,0,0,0,0,0,0,0,0,0,0,0,0,0,0,0,0,0,0,0,0,0,0,0,0,0,0,0,0,0,0,0,0,0,0,0,0,.1,0,0,0,.1,0,.1,0,0,0,0,0,0,0,0,0,0,0,0,0,0,0,0,0,0,0,0,0,0,0,0,0,0,0,0,0,0,0,0,0,0,0,0,0,0,0,0,0,0,0,0,0,0,0,0,0,0,0,0,0,0,0,0,0,0,0,0,0,0,0,0,0,0,0,0,0,0,0,0,0,0,0,0,0,0,0,0,0,0,0,0,0,0,0,0,0,0,0,0,0,0,0,0,0,0,0,0,0,0,0,0,0,0,0,0,0,0,0,0,0,0,0,0,0,0,0,0,0,0,0,0,0,0,0,0,0,0,0,0,0,0,0,0,0,0,0,0,0,0,0,0,0,0,0,0,0,0,0,0,0,0,0,0,0,0,0,0,0,0,0,0,0,0,0,0,0,0,0,0,0,0,0,0,0,0,0,0,0,0,0,0,0,0,0,0,0,0,0,0,0,0,0,0,0-.1,0,0,0-.1,0-.1M19.8,5.3c0,0,0-.1,0-.2,0,0,0,0,0-.1,0,0,0,0,0,0,0,0,0,0,0,0,0,0,0,0,0,0,0,0,0,0,0,0,0,0,0,0,0,0,0,0,0,0,0,0h0c0,0,0,0,0,0,0,0,0,0,0,0,0,0,0,0,0,0,0,0,0,0,0,0,0,0,0,0,0,0,0,0,0,0,0,0,0,0,0,0,0,0,0,0,0,0,0,0,0,0,0,0,0,0,0,0,0,0,0,0,0,0,0,0,0,.1,0,0,0,0,0,.1h.1c0,0,0-.1,0-.1,0,0,0,0,0,0,0,0,0,0,0,0s0,0,0,0c0,0,0,0,0,0,0,0,0,0,0,0,0,0,0,0,0,0,0,0,0,0,0,0,0,0,0,0,0,0,0,0,0,0,0,0,0,0,0,0,0,0,0,0,0,0,0,0,0,0,0,0,0,0,0,0,0,0,0,0,0,0,0,0,0,0,0,0,0,0,0,0,0,0,0-.1,0-.2M19.2,4.7s0,0,0,0c0,0,0,0,0,0,0,0,0,0,0,0,0,0,0,0,0,0,0,0,0,0,0,0,0,0,0,0,0,0,0,0,0,0-.1,0,0,0,0,0-.1,0,0,0,0,.1-.1.3,0,0,0,0,0,.1,0,0,0,0,0,.1,0,0,0,0,0,0,0,0,0,0,0,0,0,0,0,0,0,0,0,0,0,0,0,0,0,0,0,0,0,0,0,0,0,0,0,0,0,0,0,0,0,0,0,0,0,0,0,0,0,0,0,0-.2,0,0,0-.2,0-.2,0,0,0,0,0,0-.1,0,0,0,0,0-.1,0,0,0-.2,0-.2,0,0,0,0,0-.1,0,0,.1-.1.2-.2,0,0,.2,0,.2,0M19.5,4.7s0,0,0,0c0,0,0,0,0,0,0,0,0,0,0,0,0,0,0,0,0,0,0,0,0,0,0,0,0,0,0,0,0,0,0,0,0,0,0,0,0,0,0,.2,0,.3,0,0,0,0,0,0,0,0,0,0,0,0,0,0,0,0,0,0,0,0,0,0,0,0,0,0,0,0,0,0,0,0,0,0,0,0,0,0,0,0,0,0,0,0,0,0,0,0,0,0,0,0,0,0,0,0,0,0,0,0,0,0,0,0,0,0,0,0,0,0,0,0,0,0,0,0,0,0,0,0,0,0,0,0,0,0,0,0,0,0,0,0,0,0,0,0,0,0,0,0,0,0,0,0,0,0,0,0,0,0,0,0,0,0,0,0,0,0,0,0,0,0,0,0,0,0,0,0,0,0,0,0,0,0,0,0,0,0,0,0,0,0,0,0,0,0,0,0,0,0,0,0,0-.1,0-.2,0,0,0-.1,0-.1,0,0,0,0,0-.1,0,0,0,0,0-.1,0,0,0,0,0-.1Z"/>
        </g>
      </g>
      <g>
        <g id="Symbol_1_0_Layer0_0_FILL">
          <path class="cls-9" d="M1.9,19.7c.6,1.5,1.7,2,3.2,1.4.8-.3,1.8-1.1,2.9-2.1-1.1,1.1-2.1,1.8-2.9,2.1,1.1.4,2.1.4,2.9-.1.9-.6,1.7-1.8,2.4-3.4-.7,1.6-1.4,2.8-2.4,3.4,1.2.4,2.1,0,2.8-.9.4-.6.6-1.3.8-2.2-.2.9-.4,1.6-.8,2.2,2.3-.3,3.2-1.8,2.5-4.4.8-.5,1.4-1.1,1.5-1.6-2.4-1-4.5-.3-6.2,1.9-1.8,2.2-4,3.4-6.8,3.7Z"/>
        </g>
        <path id="Symbol_1_0_Layer0_0_1_STROKES" class="cls-12" d="M10.9,20c2.3-.3,3.2-1.8,2.5-4.4.8-.5,1.4-1.1,1.5-1.6-2.4-1-4.5-.3-6.2,1.9-1.8,2.2-4,3.4-6.8,3.7.6,1.5,1.7,2,3.2,1.4.8-.3,1.8-1.1,2.9-2.1M8.1,20.9c1.2.4,2.1,0,2.8-.9.4-.6.6-1.3.8-2.2M10.4,17.5c-.7,1.6-1.4,2.8-2.4,3.4-.9.5-1.8.6-2.9.1"/>
      </g>
    </g>
  </g>
</svg>