<?xml version="1.0" encoding="utf-8"?>
<svg version="1.1" preserveAspectRatio="none" x="0px" y="0px" width="47px" height="44px" viewBox="0 0 47 44" xmlns="http://www.w3.org/2000/svg">
  <defs>
    <g id="Duplicate_Items_Folder_Symbol_1_copy_1_Layer3_0_FILL">
      <path fill="#BD8859" stroke="none" d="&#10;M 67.7 15.75&#10;L 76 23.75&#10;Q 83.15 -72.6 48.4 -111.85 -20.15 -114.35 -88.75 -101.8 -90.45 -76.25 -97.6 -56.8&#10;L -86.5 -65.3&#10;Q -96.15 -32.85 -96.5 -8.75&#10;L -86.5 -15.75&#10;Q -88.8669921875 0.722265625 -100.85 26.85 -112.8220703125 53.0279296875 -110.85 89.3&#10;L -89.3 61.3&#10;Q -85.35 85.1 -89.15 114.15 -92.15 137.15 -85.95 156.3 -80.85 126.1 -64.35 114.8 -74.55 157.15 -62.65 178.8 -54.95 145.4 -42.15 125.8 -38.4 155.05 -32.75 163.8 -28.6 128.15 -16.1 113.8 -15.15 164.25 -2.25 199.3 4.15 152.25 20.65 126.65 32 155.1 37.25 185.3 37.95 188.95 39.1 191 40.75 193.95 43.5 194.45 42.9 178.8 46.75 163.45 50.6 148.1 58.6 134.2 61.8 129 63.2 126.3 65.2 122.45 65.95 119.2&#10;L 67.7 97.3&#10;Q 70.5 43.7 67.7 15.75&#10;M 46.85 -21.85&#10;Q 47.85 -22.4 48.8 -22.25 49.7 -22.1 50.45 -21.35 51.1 -20.7 51.4 -19.75 51.6 -19 51.6 -16.15 51.65 -14.1 52.45 -10.1 54.1 -1.15 55.25 11.7 55.95 19.05 57.1 33.65 57.3 35.55 57.05 36.5 56.65 38.2 55.15 38.7 54.1 39.05 53 38.55 51.95 38.1 51.35 37.15 50.55 36 50.35 33.2 48.8 13.3 48.65 11.8 47.5 -0.4 45.85 -9.5 44.9 -14.8 44.8 -16.9 44.7 -19.2 45.45 -20.5 45.95 -21.35 46.85 -21.85&#10;M 42.75 15.7&#10;Q 42.7 18.6 42.8 20.1 42.9 20.9 43.9 26.3 45.6 34.6 46.1 48.35 46.25 51.6 44.8 52.8 43.9 53.5 42.6 53.5 41.3 53.45 40.45 52.65 39.35 51.55 39.35 48.55 39.35 37.85 37.45 27.65 36.4 21.85 36.35 21.25 35.9 17.85 36.05 12.05 36.05 9.2 37.2 8.15 38.1 7.3 39.45 7.35 40.9 7.4 41.75 8.3 42.5 9.15 42.75 11.3 42.8 12.7 42.75 15.7&#10;M 35.4 64.75&#10;Q 35.75 60.8 38.15 60.3 39.25 60.05 40.35 60.75 41.4 61.4 41.85 62.45 42.35 63.7 42 66.75 40.3 80.25 41.4 101.8 42.9 130.2 42.8 137 42.8 139.8 42 141.15 41.45 142.15 40.4 142.7 39.25 143.3 38.2 143.05 36.3 142.6 35.8 140.55 35.55 139.6 35.75 137.15 36.4 130.75 36.05 122.2 35.95 121.5 35.05 107.25 33.5 83.8 35.4 64.75&#10;M 1.1 60.9&#10;Q 1.3 60.75 1.55 60.6 2.35 59.95 4.15 58.8 5.15 58.05 6.9 56.4&#10;L 8.4 55.2&#10;Q 9.5 54.3 10.35 53.95 11 60.1 8.95 65.8 8.3 67.7 8.2 68.15 7.95 68.95 7.9 69.65 7.7 69.5 7.55 69.35 5.9 68.05 3.55 64.55 2.15 62.5 1.1 60.9&#10;M 10.85 96.75&#10;Q 11.65 97.15 12.15 97.9 12.65 98.7 12.55 99.5 12.5 100.45 11.3 102.55 10.15 104.55 9.45 106.85 8.4 110.25 7.55 117.45&#10;L 5.8 132.4&#10;Q 5 139.05 4.55 141.85 3.65 147.1 2.3 151.15 1.3 154.45 1.25 155 1.2 155.65 1.2 157.85 1.2 159.65 0.95 160.65 0.55 162.15 -0.75 163.1 -2.1 164.1 -3.55 163.75 -5.4 163.3 -5.9 161.3 -6.2 160.2 -5.9 157.9 -5.5 154.75 -4.95 152.6&#10;L -3.65 148.4&#10;Q -2.35 144.05 -1.25 134.85&#10;L 0.85 117.4&#10;Q 1.95 109.2 3 105.7 3.3 104.65 4.9 100.25 5.9 97.6 7.3 96.8 8.1 96.35 9.1 96.35 10.1 96.35 10.85 96.75&#10;M 23.45 93.15&#10;Q 25 93.75 25.25 95.2 25.5 96.15 25 97.45 24.7 98.2 24 99.7 23.6 100.65 23.1 103.6 22.5 107.9 20.6 114.7 18 124.45 15.1 133.7 14.7 135.05 14.35 135.65 13.75 136.7 12.9 137.15 11.75 137.85 10.25 137.35 8.75 136.9 8.3 135.7 7.85 134.5 8.65 132.35 10.8 125.55 13.35 116.65 15.2 110.4 15.95 106.2 16.55 102.6 16.95 100.85 17.6 97.75 18.6 95.65 19.5 93.95 20.5 93.4 21.9 92.55 23.45 93.15&#10;M 61.35 50.7&#10;Q 62.55 50.65 63.45 51.45 64.35 52.25 64.65 53.35 64.95 54.7 64.25 57.65 62.3 66 62.75 77.25 62.85 79 64.35 97 64.85 103.25 64.6 106.8 64.4 109.55 63.3 115.05 62.2 120.95 61.15 124.15 59.55 129.1 57 132.5 54.95 135.25 54.6 135.85 54.1 136.85 53.2 140.35 52.5 143.15 50.9 146.05 50 147.6 48.8 148.5 47.3 149.55 45.85 149.05 44 148.35 43.9 146.25 43.85 145.1 44.75 142.9 49.1 131.4 51.1 119.65 52.15 113.6 53.4 101.5&#10;L 54.4 91.45&#10;Q 55.15 83.65 55.45 79.75 56 71.5 56.3 67.4 56.95 60.2 57.85 55.1 58.75 50.9 61.35 50.7&#10;M -31 70.65&#10;Q -31 67.1 -31.3 65.35 -31.5 63.85 -31.55 63.1 -31.6 61.8 -31.05 60.95 -30.25 59.55 -28.45 59.45 -26.75 59.4 -25.65 60.65 -24.9 61.55 -24.8 63.65&#10;L -24.1 73.6&#10;Q -23.85 76.4 -23.85 77.85&#10;L -23.45 85.95&#10;Q -23.25 88 -23.3 89.4 -23.4 90.9 -23.8 91.6 -24.75 93.1 -26.65 93.1 -28.5 93.1 -29.45 91.6 -29.85 90.9 -29.95 89.9 -29.95 89.65 -29.95 88.15 -29.95 87.05 -30.2 85.2 -30.4 82.95 -30.45 82.2 -30.5 81 -30.5 78.1 -30.45 75.45 -30.6 73.95 -30.9 71.75 -31 70.65 Z"/>
      <path fill="#916539" stroke="none" d="&#10;M -31.3 65.35&#10;Q -31 67.1 -31 70.65 -30.9 71.75 -30.6 73.95 -30.45 75.45 -30.5 78.1 -30.5 81 -30.45 82.2 -30.4 82.95 -30.2 85.2 -29.95 87.05 -29.95 88.15 -29.95 89.65 -29.95 89.9 -29.85 90.9 -29.45 91.6 -28.5 93.1 -26.65 93.1 -24.75 93.1 -23.8 91.6 -23.4 90.9 -23.3 89.4 -23.25 88 -23.45 85.95&#10;L -23.85 77.85&#10;Q -23.85 76.4 -24.1 73.6&#10;L -24.8 63.65&#10;Q -24.9 61.55 -25.65 60.65 -26.75 59.4 -28.45 59.45 -30.25 59.55 -31.05 60.95 -31.6 61.8 -31.55 63.1 -31.5 63.85 -31.3 65.35&#10;M 63.45 51.45&#10;Q 62.55 50.65 61.35 50.7 58.75 50.9 57.85 55.1 56.95 60.2 56.3 67.4 56 71.5 55.45 79.75 55.15 83.65 54.4 91.45&#10;L 53.4 101.5&#10;Q 52.15 113.6 51.1 119.65 49.1 131.4 44.75 142.9 43.85 145.1 43.9 146.25 44 148.35 45.85 149.05 47.3 149.55 48.8 148.5 50 147.6 50.9 146.05 52.5 143.15 53.2 140.35 54.1 136.85 54.6 135.85 54.95 135.25 57 132.5 59.55 129.1 61.15 124.15 62.2 120.95 63.3 115.05 64.4 109.55 64.6 106.8 64.85 103.25 64.35 97 62.85 79 62.75 77.25 62.3 66 64.25 57.65 64.95 54.7 64.65 53.35 64.35 52.25 63.45 51.45&#10;M 25.25 95.2&#10;Q 25 93.75 23.45 93.15 21.9 92.55 20.5 93.4 19.5 93.95 18.6 95.65 17.6 97.75 16.95 100.85 16.55 102.6 15.95 106.2 15.2 110.4 13.35 116.65 10.8 125.55 8.65 132.35 7.85 134.5 8.3 135.7 8.75 136.9 10.25 137.35 11.75 137.85 12.9 137.15 13.75 136.7 14.35 135.65 14.7 135.05 15.1 133.7 18 124.45 20.6 114.7 22.5 107.9 23.1 103.6 23.6 100.65 24 99.7 24.7 98.2 25 97.45 25.5 96.15 25.25 95.2&#10;M 12.15 97.9&#10;Q 11.65 97.15 10.85 96.75 10.1 96.35 9.1 96.35 8.1 96.35 7.3 96.8 5.9 97.6 4.9 100.25 3.3 104.65 3 105.7 1.95 109.2 0.85 117.4&#10;L -1.25 134.85&#10;Q -2.35 144.05 -3.65 148.4&#10;L -4.95 152.6&#10;Q -5.5 154.75 -5.9 157.9 -6.2 160.2 -5.9 161.3 -5.4 163.3 -3.55 163.75 -2.1 164.1 -0.75 163.1 0.55 162.15 0.95 160.65 1.2 159.65 1.2 157.85 1.2 155.65 1.25 155 1.3 154.45 2.3 151.15 3.65 147.1 4.55 141.85 5 139.05 5.8 132.4&#10;L 7.55 117.45&#10;Q 8.4 110.25 9.45 106.85 10.15 104.55 11.3 102.55 12.5 100.45 12.55 99.5 12.65 98.7 12.15 97.9&#10;M 38.15 60.3&#10;Q 35.75 60.8 35.4 64.75 33.5 83.8 35.05 107.25 35.95 121.5 36.05 122.2 36.4 130.75 35.75 137.15 35.55 139.6 35.8 140.55 36.3 142.6 38.2 143.05 39.25 143.3 40.4 142.7 41.45 142.15 42 141.15 42.8 139.8 42.8 137 42.9 130.2 41.4 101.8 40.3 80.25 42 66.75 42.35 63.7 41.85 62.45 41.4 61.4 40.35 60.75 39.25 60.05 38.15 60.3&#10;M 42.8 20.1&#10;Q 42.7 18.6 42.75 15.7 42.8 12.7 42.75 11.3 42.5 9.15 41.75 8.3 40.9 7.4 39.45 7.35 38.1 7.3 37.2 8.15 36.05 9.2 36.05 12.05 35.9 17.85 36.35 21.25 36.4 21.85 37.45 27.65 39.35 37.85 39.35 48.55 39.35 51.55 40.45 52.65 41.3 53.45 42.6 53.5 43.9 53.5 44.8 52.8 46.25 51.6 46.1 48.35 45.6 34.6 43.9 26.3 42.9 20.9 42.8 20.1&#10;M 48.8 -22.25&#10;Q 47.85 -22.4 46.85 -21.85 45.95 -21.35 45.45 -20.5 44.7 -19.2 44.8 -16.9 44.9 -14.8 45.85 -9.5 47.5 -0.4 48.65 11.8 48.8 13.3 50.35 33.2 50.55 36 51.35 37.15 51.95 38.1 53 38.55 54.1 39.05 55.15 38.7 56.65 38.2 57.05 36.5 57.3 35.55 57.1 33.65 55.95 19.05 55.25 11.7 54.1 -1.15 52.45 -10.1 51.65 -14.1 51.6 -16.15 51.6 -19 51.4 -19.75 51.1 -20.7 50.45 -21.35 49.7 -22.1 48.8 -22.25&#10;M 103.75 -60.8&#10;L 113.7 -53.3&#10;Q 105.6 -86.8 87.1 -109.3 67.75 -111.2 48.4 -111.85 83.15 -72.6 76 23.75&#10;L 67.7 15.75&#10;Q 70.5 43.7 67.7 97.3&#10;L 65.95 119.2&#10;Q 68.2 121.35 68.7 124.2 69.35 127.55 69.7 134.55 70.25 141.15 73 149.05 74.75 153.9 79.4 164.05 80.1 117.45 95.65 74.2 95.9 81.35 98.45 88.3 101.05 95.3 106.45 100.55 108.1 67.9 103.1 34.2 111.2 34.8 113.05 46.95 116.6 25.5 106.15 -16.95&#10;L 115.9 -3.25&#10;Q 115.9 -29.65 103.75 -60.8 Z"/>
      <path fill="#BA885A" stroke="none" d="&#10;M 1.55 60.6&#10;Q 1.3 60.75 1.1 60.9 2.15 62.5 3.55 64.55 5.9 68.05 7.55 69.35 7.7 69.5 7.9 69.65 7.95 68.95 8.2 68.15 8.3 67.7 8.95 65.8 11 60.1 10.35 53.95 9.5 54.3 8.4 55.2&#10;L 6.9 56.4&#10;Q 5.15 58.05 4.15 58.8 2.35 59.95 1.55 60.6 Z"/>
    </g>
    <g id="Duplicate_Items_Folder_Symbol_1_copy_1_Layer3_1_FILL">
      <path fill="#121012" stroke="none" d="&#10;M 3.9 -50.9&#10;L 0.7 -53.5&#10;Q 0.05 -54.05 -0.2 -54.4 -0.35 -54.75 -0.6 -56 -0.9 -58.55 -1.75 -61.75 -2.2 -63.4 -3.5 -67.4 -4.4 -69.95 -5.1 -71.2 -6.3 -73.2 -7.95 -73.95 -9.6 -74.7 -11.6 -74.2 -13.45 -73.75 -14.95 -72.4 -17.1 -70.45 -18.9 -65.95 -21.15 -60.65 -20.6 -57.45 -24.55 -56.45 -27.9 -53.6 -31.05 -50.9 -33.1 -47.1 -35.1 -43.45 -34.9 -40.2 -34.75 -38.35 -33.75 -36.8 -32.7 -35.15 -31.05 -34.5 -29.55 -33.95 -27.55 -34.2 -26.25 -34.4 -24.05 -35.15&#10;L -18.4 -37&#10;Q -15.15 -38.05 -13.55 -37.9 -12.05 -37.75 -10.25 -36.8 -9.2 -36.25 -7.2 -35 -3.35 -32.75 1 -31.75 6.55 -30.4 9.55 -32.7 11.35 -34.05 11.95 -36.45 12.55 -38.7 11.9 -41 10.9 -44.75 6.75 -48.45 6.25 -48.9 3.9 -50.9 Z"/>
    </g>
    <g id="Duplicate_Items_Folder_Symbol_1_0_Layer0_0_FILL">
      <path fill="#BB855A" stroke="none" d="&#10;M -43.95 -14.6&#10;Q -68.35 -24.95 -63.35 -2.3 -37.2 12.45 -1.25 7.4 -37.2 12.45 -63.35 -2.3 -96.55 -9.55 -70.3 17.4 -39.9 33.05 2.6 29.9 45 26.7 88.9 40.25 119.35 48.25 116.65 37.1 108.2 1.9 44.3 -1.2 -19.65 -4.25 -43.95 -14.6&#10;M -0.8 7.5&#10;Q 54.2 8.45 100.25 29.9 54.2 8.45 -0.8 7.5 Z"/>
    </g>
    <g id="Duplicate_Items_Folder_Symbol_1_0_Layer0_0_MEMBER_0_FILL">
      <path fill="#03020A" stroke="none" d="&#10;M 34.4 53.3&#10;Q 27.85 52 19.3 51.95 15.15 51.9 4 52.4 -8.75 53 -25 53.25 -33.3 53.35 -54 53.45 -61 53.45 -64.5 53.25 -70.3 52.95 -74.85 52 -77.9 51.35 -83.95 49.55 -89.4 48.1 -93.15 48.05 -96.6 48.05 -98.4 49.1 -99.6 49.8 -100.3 51 -101.05 52.25 -100.9 53.55 -100.7 55 -99.4 56.15 -98.25 57.15 -96.65 57.55 -95.45 57.85 -93.6 57.9&#10;L -90.5 58&#10;Q -87.75 58.2 -83.85 59.4 -79.5 60.85 -77.3 61.4 -73.1 62.5 -67.75 62.85 -64.35 63.1 -58.05 63.1 -24.9 63 6.5 62 13.15 61.85 15.6 61.9 20.75 62 24.65 62.7 33.15 64.2 40.6 69 48.05 73.85 52.9 80.95 55.75 85.2 57.2 89.25 58.35 92.4 58.2 95.1 58.05 98.35 55.95 100.05 54.1 101.55 50.95 101.35 49.4 101.3 45.45 100.4 39.05 98.95 27.75 98.7 14.75 98.4 9.9 97.7 8.3 97.5 2.65 96.45 -1.85 95.65 -4.65 95.45 -9.4 95.1 -18 95.95 -40.3 97.95 -51.45 99.85 -53.65 100.25 -58.15 101 -61.95 101.55 -64.85 101.55 -69.45 101.55 -78.25 99.75&#10;L -106.3 94&#10;Q -108.5 93.55 -109.75 93.05 -111.6 92.35 -112.55 91.05 -113.25 90.15 -114.25 86.85 -115.1 84.1 -116.55 83.2 -117.85 82.4 -119.6 82.9 -121.25 83.35 -122.2 84.7 -123.95 87.15 -123.25 90.85 -122.3 95.85 -118.55 98.9 -116.25 100.85 -112.65 102.05 -110.5 102.8 -106.05 103.75&#10;L -77.3 109.6&#10;Q -69.55 111.25 -65.25 111.3 -62.2 111.35 -58.25 110.75 -57.15 110.6 -51.25 109.6 -44.45 108.4 -35.75 107.4 -31.35 106.9 -20.15 105.75 -15.05 105.25 -12.45 105.1 -8.2 104.85 -4.75 105.1 -1.9 105.3 2.65 106.1 8.4 107.1 10 107.3 14.9 108 27 108.35 37.95 108.7 44 109.85 49.1 110.9 49.25 110.9 52.25 111.4 54.5 111.1 60.35 110.35 64.3 104.9 68.05 99.7 67.95 93.4 67.75 83.05 58.05 71.7 56.5 69.95 55.7 69.05 54.3 67.45 53.45 66.25 51.4 63 50.15 61.5 45.3 55.5 34.4 53.3 Z"/>
    </g>
    <g id="Duplicate_Items_Folder_Symbol_1_copy_1_Layer1_0_FILL">
      <path fill="#04061B" stroke="none" d="&#10;M -38.15 -43.15&#10;Q -28.3615234375 -50.101953125 -25.1 -36.05 -22.027734375 -22.8279296875 8 -22.6&#10;L -32 -75 -78.9 -78.3 -46.1 -33.9&#10;Q -41.1400390625 -38.4650390625 -38.15 -43.15&#10;M -92.8 -79.25&#10;L -113 -80.65 -113 -70.75&#10;Q -106.5 -69.45 -105.3 -64 -106.5884765625 -39.503125 -88.8 -32.85 -70.9478515625 -26.2029296875 -62.75 -26.45 -58.835546875 -26.5337890625 -55.35 -27.85&#10;L -92.8 -79.25&#10;M 60.85 -56.75&#10;L 60.85 -68.55 0.3 -72.75 38.7 -25.4&#10;Q 49.79296875 -27.9958984375 54.2 -33.05 62.7513671875 -42.7962890625 60.85 -56.75 Z"/>
      <path fill="#6878A4" stroke="none" d="&#10;M -55.35 -27.85&#10;Q -51.496875 -29.2572265625 -48.15 -32.1 -47.087890625 -32.9998046875 -46.1 -33.9&#10;L -78.9 -78.3 -92.8 -79.25 -55.35 -27.85&#10;M 8 -22.6&#10;Q 9.9078125 -22.587890625 11.9 -22.65 28.274609375 -22.9296875 38.7 -25.4&#10;L 0.3 -72.75 -32 -75 8 -22.6 Z"/>
      <path fill="#080715" stroke="none" d="&#10;M 60.85 -56.75&#10;L 79.3 -56.75 84.45 -66.85 60.85 -68.55 60.85 -56.75 Z"/>
    </g>
    <g id="Duplicate_Items_Folder_Symbol_1_copy_1_Layer0_0_MEMBER_0_FILL">
      <path fill="#E9D1B0" stroke="none" d="&#10;M 66.95 -86.25&#10;Q 58.4 -93.1 54 -101.65 -23.05 -99.55 -104.7 -110.9&#10;L -105.7 -95.9&#10;Q -15.75 -80.85 66.95 -86.25&#10;M 42.4 -117.1&#10;L 38.2 -141.15&#10;Q -0.4 -141.65 -65.3 -146.1&#10;L -68.55 -120.95&#10;Q -11.8 -115.1 42.4 -117.1&#10;M 54 -101.65&#10;Q 46.15 -105.9 42.4 -117.1 -11.8 -115.1 -68.55 -120.95&#10;L -104.7 -110.9&#10;Q -23.05 -99.55 54 -101.65&#10;M 17.1 -179.55&#10;Q 19.5 -176.7 22.05 -174.05&#10;L 5.45 -197.95&#10;Q -26.05 -180.95 -65.3 -146.1 -0.4 -141.65 38.2 -141.15 43.4 -147.7 35.25 -163.1 29.1 -167.7 22.05 -174.05 19.5 -176.7 17.1 -179.55&#10;M -47.05 -153.5&#10;Q -14.15 -156.9 6 -183.5 -14.15 -156.9 -47.05 -153.5 Z"/>
      <path fill="#BDAD94" stroke="none" d="&#10;M 54 -101.65&#10;Q 58.4 -93.1 66.95 -86.25 91.75 -87.85 115.9 -91.3&#10;L 116.8 -105.25&#10;Q 85.85 -102.55 54 -101.65&#10;M 22.05 -174.05&#10;Q 29.1 -167.7 35.25 -163.1 51.05 -151.25 61 -150.85 51.05 -151.25 35.25 -163.1 43.4 -147.7 38.2 -141.15 77 -140.7 89.2 -144.25 24.3 -200.7 14.25 -202.4 9.9 -200.3 5.45 -197.95&#10;L 22.05 -174.05&#10;M 82.25 -119.9&#10;L 89.2 -144.25&#10;Q 77 -140.7 38.2 -141.15&#10;L 42.4 -117.1&#10;Q 62.55 -117.9 82.25 -119.9&#10;M 116.8 -105.25&#10;L 82.25 -119.9&#10;Q 62.55 -117.9 42.4 -117.1 46.15 -105.9 54 -101.65 85.85 -102.55 116.8 -105.25 Z"/>
    </g>
    <g id="Duplicate_Items_Folder_Symbol_1_copy_1_Layer0_0_MEMBER_1_MEMBER_0_FILL">
      <path fill="#000000" stroke="none" d="&#10;M -75 18.55&#10;Q -76.7 17.3 -78.85 17 -81 16.7 -83 17.4 -85 18.1 -86.5 19.7 -87.95 21.3 -88.5 23.35 -88.9 24.85 -88.85 27.25 -88.8 30.45 -88.85 31.15 -89.05 34.45 -90.8 37.35 -92.55 40.3 -95.35 42.05 -97.55 39.25 -99.75 35 -101.05 32.55 -103.5 27.5 -108.05 18.2 -112.95 13.9 -116.25 11 -120.2 9.75 -124.5 8.4 -128.4 9.35 -132 10.2 -135 13.05 -137.75 15.7 -139.35 19.45 -141.85 25.35 -141.4 34.6 -140.7 45.85 -135.65 61.15 -132.75 70 -128.05 81.6 -125.3 88.35 -119.65 101.8 -118.25 105.2 -117.25 106.9 -115.7 109.6 -113.65 111.05 -111.4 112.6 -108.55 112.65 -105.6 112.7 -103.5 111.05 -101.65 109.55 -100.85 107 -100.15 104.6 -100.5 102 -100.75 99.8 -101.75 97.2 -102.35 95.6 -103.8 92.65 -112.5 74.15 -118.95 54.7 -121.5 46.95 -122.5 41.95 -123.9 34.85 -123.35 28.95 -121.1 32.25 -117.85 38.95 -114.45 46.05 -112.55 49.05 -109.2 54.3 -104.75 57.45 -99.6 61.05 -94.25 60.8 -85.35 60.35 -77.55 49.5 -69.65 38.3 -70.45 28.2 -70.9 21.55 -75 18.55&#10;M 20.05 31.45&#10;Q 21.6 27.3 21.75 26.85 22.55 24.15 22.3 22.1 22.05 19.9 20.65 18 19.3 16.15 17.25 15.25 15.25 14.35 12.9 14.6 10.6 14.8 8.75 16.1 6 18.05 3.95 22.8 0.55 30.65 -1.2 43.6 -3.95 64 -4.15 65.1 -5.55 59.6 -6.95 57.25 -9.4 53.05 -13.25 52.2 -16.15 51.55 -19.2 53.1 -21.85 54.4 -24.1 57 -25.35 58.45 -27.75 62.1 -29.95 65.45 -31.45 67.05 -35.5 62.25 -36.25 52.75 -36.55 47.65 -36.75 45.05 -37.1 40.55 -38 37.5 -39.1 33.55 -41.5 30.65 -44.15 27.45 -47.65 26.45 -50.75 25.6 -53.95 26.7 -57.15 27.8 -59 30.4 -60.85 33.05 -60.7 36.45 -60.5 39.9 -58.4 42.25 -58.2 42.5 -56.5 44.15 -55.4 45.25 -54.95 46.15 -54.35 47.35 -54.25 50.35 -54.2 54.35 -53.6 59.45 -52.85 64.95 -51.55 68.35 -50.05 72.2 -46.2 77.4 -43.4 81.2 -41.05 83.2 -37.85 86.05 -34.45 86.75 -30.55 87.55 -26.35 85.65 -22.7 84 -19.5 80.7 -18.4 79.6 -17.7 79.9 -17.2 80.15 -16.9 81 -15.55 84.1 -12.9 86.3 -10.25 88.5 -7 89.3 -3.75 90.05 -0.35 89.25 3 88.45 5.55 86.3 10 82.55 12.35 73.9 13.9 68.15 15.7 52.55 17.25 38.9 20.05 31.45&#10;M 83.1 69.25&#10;Q 87.5 54.6 85.6 41.3 83.85 29.55 77.5 23.2 74 19.7 68.95 17.75 64.25 16 58.85 15.75 53.3 15.55 48.8 17.3 43.65 19.35 41.25 23.45 38.75 27.8 39.6 34.25 40.15 37.75 42.9 44.85&#10;L 46.9 55.15&#10;Q 48.1 58.3 49.05 59.95 50.5 62.45 52.45 63.75 55.65 65.9 59.75 64.6 63.85 63.3 65.25 59.7 66.5 56.35 65.05 51.85 64.6 50.3 61.7 44.1 59.45 39.25 58.3 34.35 60.55 33.7 62.9 34.9 65.1 36.05 66.4 38.25 68.3 41.5 68.3 47.65 68.2 59.7 63.55 71.1 58.95 82.55 50.65 91.25&#10;L 33.55 76&#10;Q 31.4 74.05 30.1 73.15 28.05 71.75 26.05 71.3 24.05 70.85 21.95 71.45 19.85 72.05 18.3 73.5 16.8 74.95 16.1 77 15.4 79.05 15.75 81.1 16.15 83.55 18 86.05 19.35 87.8 21.9 90.05 23.4 91.35 28.5 95.5 32.6 98.9 34.95 101.1 39.55 105.35 40.2 105.9 43.35 108.45 46.25 109.35 49.8 110.45 53.75 109.5 57.45 108.7 60.7 106.35 63.55 104.35 66.3 101.2 68.3 98.8 70.8 95 79.2 82.05 83.1 69.25&#10;M 194.7 -14.05&#10;Q 188 -13.6 184.8 -10.75 182.5 -8.6 182.15 -5.2 181.75 -1.8 183.65 0.65 186.4 4.25 192.2 4.6 194.2 4.75 197.05 4.5 198.65 4.4 201.85 4.1 212.9 3.55 223.6 9 233.75 14.2 241.1 23.35 254.05 39.4 257.2 65.15 258.65 77.15 256.95 85.35 254.7 96.5 247.5 102.9 242.65 107.25 235.2 109.35 229.3 111 221.1 111.4 213.45 111.8 209.05 109.9 208.25 109.6 205 107.8 202.55 106.5 200.85 106.15 196.6 105.35 193.2 108.9 189.75 112.45 190.65 116.65 191.7 121.65 197.9 125.1 207.8 130.65 224.4 129.35 245.35 127.65 257.55 117.95 265.2 111.85 269.95 102.15 274.3 93.15 275.45 82.6 277.3 65.45 270.4 42.55 266.6 30.2 262.2 22.25 252.4 4.5 233.65 -5.55 214.9 -15.65 194.7 -14.05&#10;M 146.6 -15.65&#10;Q 145.45 -21.2 143 -23.6 140 -26.55 135.3 -25.65 130.6 -24.7 128.95 -20.8 127.95 -18.4 128.3 -14.95 128.4 -14.05 129.35 -8.85 130.15 -4.65 130.45 1.3 130.6 4.75 130.85 11.6 132.15 34 140.25 54.65 130.85 51.95 125.95 51.2 117.85 49.9 111.5 51.45 104.25 53.2 98.65 58.65 93.05 64.1 91 71.3 90.1 74.6 89.7 79.65 89.45 82.5 89.05 88.15 88.9 89.95 88.45 93.5 88.2 96.6 88.55 98.8 89 101.65 90.5 103.85 92.2 106.25 94.65 107 98.3 108.15 101.85 105.35 105.2 102.75 106.35 98.6 107.2 95.55 107.1 90.7 107 83.3 107.05 82.6 107.25 78.15 109.05 74.7 111.1 70.75 114.65 69.5 116.65 68.85 120.35 68.95 126.3 69.15 129.75 70.4 137.65 73.3 142.25 83.6 143.8 87 145.3 92.4 146.15 95.4 147.85 101.35 151 111.15 157 111.85 159.55 112.15 162 110.6 164.25 109.2 165.6 106.75 167.65 103 167.65 96.45 167.75 81.65 159.65 56.85 154.55 41.2 153.4 37.3 150.2 26.15 149.2 17.35 148.75 13.45 148.25 0.8 147.85 -9.5 146.6 -15.65 Z"/>
    </g>
    <g id="Symbol_1_1_Layer0_0_FILL">
      <path fill="#F9F9F9" stroke="none" d="&#10;M 6.65 15.3&#10;Q 6.31953125 16.53984375 8.55 16.15 8.655859375 14.662890625 11 13.85 8.655859375 14.662890625 8.55 16.15 9.51640625 16.696484375 10.75 15.65 11.676953125 14.7126953125 12.75 14.15 11.676953125 14.7126953125 10.75 15.65 11.83046875 16.0390625 12.55 15.9 13.26875 15.76328125 13.8 15.4 14.4353515625 14.6708984375 15.15 14.4 14.4353515625 14.6708984375 13.8 15.4 17.15 15.8521484375 19.1 13.25 17.59921875 12.703515625 15.95 12.6 14.301953125 12.541015625 11.45 12.8 8.647265625 13.1150390625 6.65 15.3 Z"/>
    </g>
    <path id="Duplicate_Items_Folder_Symbol_1_copy_1_Layer3_0_1_STROKES" stroke="#000000" stroke-width="9" stroke-linejoin="round" stroke-linecap="round" fill="none" d="&#10;M 65.95 119.2&#10;Q 68.2 121.35 68.7 124.2 69.35 127.55 69.7 134.55 70.25 141.15 73 149.05 74.75 153.9 79.4 164.05 80.1 117.45 95.65 74.2 95.9 81.35 98.45 88.3 101.05 95.3 106.45 100.55 108.1 67.9 103.1 34.2 111.2 34.8 113.05 46.95 116.6 25.5 106.15 -16.95&#10;L 115.9 -3.25&#10;Q 115.9 -29.65 103.75 -60.8&#10;L 113.7 -53.3&#10;Q 105.6 -86.8 87.1 -109.3 67.75 -111.2 48.4 -111.85&#10;M 67.7 97.3&#10;L 65.95 119.2&#10;Q 65.2 122.45 63.2 126.3 61.8 129 58.6 134.2 50.6 148.1 46.75 163.45 42.9 178.8 43.5 194.45 40.75 193.95 39.1 191 37.95 188.95 37.25 185.3 32 155.1 20.65 126.65 4.15 152.25 -2.25 199.3 -15.15 164.25 -16.1 113.8 -28.6 128.15 -32.75 163.8 -38.4 155.05 -42.15 125.8 -54.95 145.4 -62.65 178.8 -74.55 157.15 -64.35 114.8 -80.85 126.1 -85.95 156.3 -92.15 137.15 -89.15 114.15 -85.35 85.1 -89.3 61.3&#10;L -110.85 89.3&#10;Q -112.8220703125 53.0279296875 -100.85 26.875 -88.8669921875 0.722265625 -86.5 -15.75&#10;L -96.5 -8.75&#10;Q -96.15 -32.85 -86.5 -65.3&#10;L -97.6 -56.8&#10;Q -90.45 -76.25 -88.75 -101.8 -20.15 -114.35 48.4 -111.85&#10;M 113.15 47.75&#10;Q 113.1 47.35 113.05 46.95"/>
    <path id="Duplicate_Items_Folder_Symbol_1_0_Layer0_0_1_STROKES" stroke="#000000" stroke-width="9" stroke-linejoin="round" stroke-linecap="round" fill="none" d="&#10;M -63.35 -2.3&#10;Q -96.55 -9.55 -70.3 17.4 -39.9 33.05 2.6 29.9 45 26.7 88.9 40.25 119.35 48.25 116.65 37.1 108.2 1.9 44.3 -1.2 -19.65 -4.25 -43.95 -14.6 -68.35 -24.95 -63.35 -2.3 -37.2 12.45 -1.25 7.4&#10;M -0.8 7.5&#10;Q 54.2 8.45 100.25 29.9"/>
    <path id="Duplicate_Items_Folder_Symbol_1_copy_1_Layer1_0_1_STROKES" stroke="#000000" stroke-width="9" stroke-linejoin="round" stroke-linecap="round" fill="none" d="&#10;M 60.85 -56.75&#10;L 79.3 -56.75 84.45 -66.85 60.85 -68.55 60.85 -56.75&#10;Q 62.7513671875 -42.7962890625 54.2 -33.025 49.79296875 -27.9958984375 38.725 -25.4 28.274609375 -22.9296875 11.9 -22.625 9.9078125 -22.587890625 8.025 -22.6 -22.027734375 -22.8279296875 -25.1 -36.05 -28.3615234375 -50.101953125 -38.15 -43.15 -41.1400390625 -38.4650390625 -46.1 -33.9 -47.087890625 -32.9998046875 -48.15 -32.1 -51.496875 -29.2572265625 -55.325 -27.825 -58.835546875 -26.5337890625 -62.75 -26.425 -70.9478515625 -26.2029296875 -88.775 -32.85 -106.5884765625 -39.503125 -105.3 -64 -106.5 -69.45 -113 -70.75&#10;L -113 -80.65 -92.775 -79.25 -78.875 -78.275 -32 -75 -32.25 -75.35&#10;M 0.05 -73.1&#10;L 0.325 -72.75 60.85 -68.55&#10;M 0.325 -72.75&#10;L -32 -75"/>
    <path id="Duplicate_Items_Folder_Symbol_1_copy_1_Layer0_0_MEMBER_0_1_STROKES" stroke="#000000" stroke-width="9" stroke-linejoin="round" stroke-linecap="round" fill="none" d="&#10;M 5.45 -197.95&#10;Q 9.9 -200.3 14.25 -202.4 24.3 -200.7 89.2 -144.25&#10;L 82.25 -119.9 116.8 -105.25 115.9 -91.3&#10;Q 91.75 -87.85 66.95 -86.25 -15.75 -80.85 -105.7 -95.9&#10;L -104.7 -110.9 -68.55 -120.95 -65.3 -146.1&#10;Q -26.05 -180.95 5.45 -197.95 Z&#10;M 22.05 -174.05&#10;Q 29.1 -167.7 35.25 -163.1 51.05 -151.25 61 -150.85&#10;M 17.1 -179.55&#10;Q 19.5 -176.7 22.05 -174.05&#10;M 54 -101.65&#10;Q 85.85 -102.55 116.8 -105.25&#10;M 89.2 -144.25&#10;Q 77 -140.7 38.2 -141.15&#10;M 42.4 -117.1&#10;Q 62.55 -117.9 82.25 -119.9&#10;M 38.2 -141.15&#10;Q -0.4 -141.65 -65.3 -146.1&#10;M -68.55 -120.95&#10;Q -11.8 -115.1 42.4 -117.1&#10;M -104.7 -110.9&#10;Q -23.05 -99.55 54 -101.65&#10;M -47.05 -153.5&#10;Q -14.15 -156.9 6 -183.5"/>
    <path id="Symbol_1_1_Layer0_0_1_STROKES" stroke="#000000" stroke-width="0.5" stroke-linejoin="round" stroke-linecap="round" fill="none" d="&#10;M 13.8 15.4&#10;Q 17.15 15.8521484375 19.1 13.275 17.59921875 12.703515625 15.95 12.625 14.301953125 12.541015625 11.475 12.825 8.647265625 13.1150390625 6.65 15.3 6.31953125 16.53984375 8.55 16.15 8.655859375 14.662890625 11 13.85&#10;M 10.75 15.65&#10;Q 11.676953125 14.7126953125 12.75 14.15&#10;M 13.8 15.4&#10;Q 14.4353515625 14.6708984375 15.15 14.4&#10;M 10.75 15.65&#10;Q 11.83046875 16.0390625 12.55 15.9 13.26875 15.76328125 13.8 15.4&#10;M 8.55 16.15&#10;Q 9.51640625 16.696484375 10.75 15.65"/>
  </defs>
  <g transform="matrix( -0.0984344482421875, -0.0069732666015625, -0.0069732666015625, 0.0984344482421875, 31.4,22.15) ">
    <g transform="matrix( 1, 0, 0, 1, 0,0) ">
      <g>
        <path fill="#BD8859" stroke="none" d="M 67.7 15.75 L 77.844 32.271 C 82.611 -31.962 71.567 -85.683 48.4 -111.85 C 2.7 -113.517 -43.017 -110.167 -88.75 -101.8 C -89.883 -84.767 -92.833 -69.767 -97.6 -56.8 L -86.5 -65.3 C -92.933 -43.667 -96.267 -24.817 -96.5 -8.75 L -86.5 -15.75 C -88.078 -4.768 -92.861 9.432 -100.85 26.85 C -108.831 44.302 -112.165 65.119 -110.85 89.3 L -89.3 61.3 C -86.667 77.167 -86.617 94.783 -89.15 114.15 C -91.15 129.483 -90.083 143.533 -85.95 156.3 C -82.55 136.167 -75.35 122.333 -64.35 114.8 C -71.15 143.033 -70.583 164.367 -62.65 178.8 C -57.517 156.533 -50.683 138.867 -42.15 125.8 C -39.65 145.3 -36.517 157.967 -32.75 163.8 C -29.983 140.033 -24.433 123.367 -16.1 113.8 C -15.467 147.433 -10.85 175.933 -2.25 199.3 C 2.017 167.933 9.65 143.717 20.65 126.65 C 28.217 145.617 33.75 165.167 37.25 185.3 C 37.717 187.733 38.333 189.633 39.1 191 C 40.2 192.967 41.667 194.117 43.5 194.45 C 43.1 184.017 44.183 173.683 46.75 163.45 C 49.317 153.217 53.267 143.467 58.6 134.2 C 60.733 130.733 62.267 128.1 63.2 126.3 C 64.533 123.733 65.45 121.367 65.95 119.2 L 67.7 97.3 C 69.567 61.567 80.439 58.578 78.572 39.945"/>
        <path fill="#916539" stroke="none" d="&#10;M -31.3 65.35&#10;Q -31 67.1 -31 70.65 -30.9 71.75 -30.6 73.95 -30.45 75.45 -30.5 78.1 -30.5 81 -30.45 82.2 -30.4 82.95 -30.2 85.2 -29.95 87.05 -29.95 88.15 -29.95 89.65 -29.95 89.9 -29.85 90.9 -29.45 91.6 -28.5 93.1 -26.65 93.1 -24.75 93.1 -23.8 91.6 -23.4 90.9 -23.3 89.4 -23.25 88 -23.45 85.95&#10;L -23.85 77.85&#10;Q -23.85 76.4 -24.1 73.6&#10;L -24.8 63.65&#10;Q -24.9 61.55 -25.65 60.65 -26.75 59.4 -28.45 59.45 -30.25 59.55 -31.05 60.95 -31.6 61.8 -31.55 63.1 -31.5 63.85 -31.3 65.35&#10;M 63.45 51.45&#10;Q 62.55 50.65 61.35 50.7 58.75 50.9 57.85 55.1 56.95 60.2 56.3 67.4 56 71.5 55.45 79.75 55.15 83.65 54.4 91.45&#10;L 53.4 101.5&#10;Q 52.15 113.6 51.1 119.65 49.1 131.4 44.75 142.9 43.85 145.1 43.9 146.25 44 148.35 45.85 149.05 47.3 149.55 48.8 148.5 50 147.6 50.9 146.05 52.5 143.15 53.2 140.35 54.1 136.85 54.6 135.85 54.95 135.25 57 132.5 59.55 129.1 61.15 124.15 62.2 120.95 63.3 115.05 64.4 109.55 64.6 106.8 64.85 103.25 64.35 97 62.85 79 62.75 77.25 62.3 66 64.25 57.65 64.95 54.7 64.65 53.35 64.35 52.25 63.45 51.45&#10;M 25.25 95.2&#10;Q 25 93.75 23.45 93.15 21.9 92.55 20.5 93.4 19.5 93.95 18.6 95.65 17.6 97.75 16.95 100.85 16.55 102.6 15.95 106.2 15.2 110.4 13.35 116.65 10.8 125.55 8.65 132.35 7.85 134.5 8.3 135.7 8.75 136.9 10.25 137.35 11.75 137.85 12.9 137.15 13.75 136.7 14.35 135.65 14.7 135.05 15.1 133.7 18 124.45 20.6 114.7 22.5 107.9 23.1 103.6 23.6 100.65 24 99.7 24.7 98.2 25 97.45 25.5 96.15 25.25 95.2&#10;M 12.15 97.9&#10;Q 11.65 97.15 10.85 96.75 10.1 96.35 9.1 96.35 8.1 96.35 7.3 96.8 5.9 97.6 4.9 100.25 3.3 104.65 3 105.7 1.95 109.2 0.85 117.4&#10;L -1.25 134.85&#10;Q -2.35 144.05 -3.65 148.4&#10;L -4.95 152.6&#10;Q -5.5 154.75 -5.9 157.9 -6.2 160.2 -5.9 161.3 -5.4 163.3 -3.55 163.75 -2.1 164.1 -0.75 163.1 0.55 162.15 0.95 160.65 1.2 159.65 1.2 157.85 1.2 155.65 1.25 155 1.3 154.45 2.3 151.15 3.65 147.1 4.55 141.85 5 139.05 5.8 132.4&#10;L 7.55 117.45&#10;Q 8.4 110.25 9.45 106.85 10.15 104.55 11.3 102.55 12.5 100.45 12.55 99.5 12.65 98.7 12.15 97.9&#10;M 38.15 60.3&#10;Q 35.75 60.8 35.4 64.75 33.5 83.8 35.05 107.25 35.95 121.5 36.05 122.2 36.4 130.75 35.75 137.15 35.55 139.6 35.8 140.55 36.3 142.6 38.2 143.05 39.25 143.3 40.4 142.7 41.45 142.15 42 141.15 42.8 139.8 42.8 137 42.9 130.2 41.4 101.8 40.3 80.25 42 66.75 42.35 63.7 41.85 62.45 41.4 61.4 40.35 60.75 39.25 60.05 38.15 60.3&#10;M 42.8 20.1&#10;Q 42.7 18.6 42.75 15.7 42.8 12.7 42.75 11.3 42.5 9.15 41.75 8.3 40.9 7.4 39.45 7.35 38.1 7.3 37.2 8.15 36.05 9.2 36.05 12.05 35.9 17.85 36.35 21.25 36.4 21.85 37.45 27.65 39.35 37.85 39.35 48.55 39.35 51.55 40.45 52.65 41.3 53.45 42.6 53.5 43.9 53.5 44.8 52.8 46.25 51.6 46.1 48.35 45.6 34.6 43.9 26.3 42.9 20.9 42.8 20.1&#10;M 48.8 -22.25&#10;Q 47.85 -22.4 46.85 -21.85 45.95 -21.35 45.45 -20.5 44.7 -19.2 44.8 -16.9 44.9 -14.8 45.85 -9.5 47.5 -0.4 48.65 11.8 48.8 13.3 50.35 33.2 50.55 36 51.35 37.15 51.95 38.1 53 38.55 54.1 39.05 55.15 38.7 56.65 38.2 57.05 36.5 57.3 35.55 57.1 33.65 55.95 19.05 55.25 11.7 54.1 -1.15 52.45 -10.1 51.65 -14.1 51.6 -16.15 51.6 -19 51.4 -19.75 51.1 -20.7 50.45 -21.35 49.7 -22.1 48.8 -22.25&#10;M 103.75 -60.8&#10;L 113.7 -53.3&#10;Q 105.6 -86.8 87.1 -109.3 67.75 -111.2 48.4 -111.85 83.15 -72.6 76 23.75&#10;L 67.7 15.75&#10;Q 70.5 43.7 67.7 97.3&#10;L 65.95 119.2&#10;Q 68.2 121.35 68.7 124.2 69.35 127.55 69.7 134.55 70.25 141.15 73 149.05 74.75 153.9 79.4 164.05 80.1 117.45 95.65 74.2 95.9 81.35 98.45 88.3 101.05 95.3 106.45 100.55 108.1 67.9 103.1 34.2 111.2 34.8 113.05 46.95 116.6 25.5 106.15 -16.95&#10;L 115.9 -3.25&#10;Q 115.9 -29.65 103.75 -60.8 Z"/>
        <path fill="#BA885A" stroke="none" d="&#10;M 1.55 60.6&#10;Q 1.3 60.75 1.1 60.9 2.15 62.5 3.55 64.55 5.9 68.05 7.55 69.35 7.7 69.5 7.9 69.65 7.95 68.95 8.2 68.15 8.3 67.7 8.95 65.8 11 60.1 10.35 53.95 9.5 54.3 8.4 55.2&#10;L 6.9 56.4&#10;Q 5.15 58.05 4.15 58.8 2.35 59.95 1.55 60.6 Z"/>
      </g>
      <path stroke="#000000" stroke-width="9" stroke-linejoin="round" stroke-linecap="round" fill="none" d="&#10;M 65.95 119.2&#10;Q 68.2 121.35 68.7 124.2 69.35 127.55 69.7 134.55 70.25 141.15 73 149.05 74.75 153.9 79.4 164.05 80.1 117.45 95.65 74.2 95.9 81.35 98.45 88.3 101.05 95.3 106.45 100.55 108.1 67.9 103.1 34.2 111.2 34.8 113.05 46.95 116.6 25.5 106.15 -16.95&#10;L 115.9 -3.25&#10;Q 115.9 -29.65 103.75 -60.8&#10;L 113.7 -53.3&#10;Q 105.6 -86.8 87.1 -109.3 67.75 -111.2 48.4 -111.85&#10;M 67.7 97.3&#10;L 65.95 119.2&#10;Q 65.2 122.45 63.2 126.3 61.8 129 58.6 134.2 50.6 148.1 46.75 163.45 42.9 178.8 43.5 194.45 40.75 193.95 39.1 191 37.95 188.95 37.25 185.3 32 155.1 20.65 126.65 4.15 152.25 -2.25 199.3 -15.15 164.25 -16.1 113.8 -28.6 128.15 -32.75 163.8 -38.4 155.05 -42.15 125.8 -54.95 145.4 -62.65 178.8 -74.55 157.15 -64.35 114.8 -80.85 126.1 -85.95 156.3 -92.15 137.15 -89.15 114.15 -85.35 85.1 -89.3 61.3&#10;L -110.85 89.3&#10;Q -112.8220703125 53.0279296875 -100.85 26.875 -88.8669921875 0.722265625 -86.5 -15.75&#10;L -96.5 -8.75&#10;Q -96.15 -32.85 -86.5 -65.3&#10;L -97.6 -56.8&#10;Q -90.45 -76.25 -88.75 -101.8 -20.15 -114.35 48.4 -111.85&#10;M 113.15 47.75&#10;Q 113.1 47.35 113.05 46.95"/>
    </g>
    <g transform="matrix( 0.884033203125, 0, 0, 0.7972259521484375, -24.3,22.05) ">
      <g>
        <path fill="#121012" stroke="none" d="&#10;M 3.9 -50.9&#10;L 0.7 -53.5&#10;Q 0.05 -54.05 -0.2 -54.4 -0.35 -54.75 -0.6 -56 -0.9 -58.55 -1.75 -61.75 -2.2 -63.4 -3.5 -67.4 -4.4 -69.95 -5.1 -71.2 -6.3 -73.2 -7.95 -73.95 -9.6 -74.7 -11.6 -74.2 -13.45 -73.75 -14.95 -72.4 -17.1 -70.45 -18.9 -65.95 -21.15 -60.65 -20.6 -57.45 -24.55 -56.45 -27.9 -53.6 -31.05 -50.9 -33.1 -47.1 -35.1 -43.45 -34.9 -40.2 -34.75 -38.35 -33.75 -36.8 -32.7 -35.15 -31.05 -34.5 -29.55 -33.95 -27.55 -34.2 -26.25 -34.4 -24.05 -35.15&#10;L -18.4 -37&#10;Q -15.15 -38.05 -13.55 -37.9 -12.05 -37.75 -10.25 -36.8 -9.2 -36.25 -7.2 -35 -3.35 -32.75 1 -31.75 6.55 -30.4 9.55 -32.7 11.35 -34.05 11.95 -36.45 12.55 -38.7 11.9 -41 10.9 -44.75 6.75 -48.45 6.25 -48.9 3.9 -50.9 Z"/>
      </g>
    </g>
    <g transform="matrix( 0.66827392578125, 0.0612945556640625, -0.0612945556640625, 0.66827392578125, -53.75,8.25) ">
      <g transform="matrix( 1, 0, 0, 1, 0,0) ">
        <g>
          <path fill="#BB855A" stroke="none" d="&#10;M -43.95 -14.6&#10;Q -68.35 -24.95 -63.35 -2.3 -37.2 12.45 -1.25 7.4 -37.2 12.45 -63.35 -2.3 -96.55 -9.55 -70.3 17.4 -39.9 33.05 2.6 29.9 45 26.7 88.9 40.25 119.35 48.25 116.65 37.1 108.2 1.9 44.3 -1.2 -19.65 -4.25 -43.95 -14.6&#10;M -0.8 7.5&#10;Q 54.2 8.45 100.25 29.9 54.2 8.45 -0.8 7.5 Z"/>
        </g>
        <path stroke="#000000" stroke-width="9" stroke-linejoin="round" stroke-linecap="round" fill="none" d="&#10;M -63.35 -2.3&#10;Q -96.55 -9.55 -70.3 17.4 -39.9 33.05 2.6 29.9 45 26.7 88.9 40.25 119.35 48.25 116.65 37.1 108.2 1.9 44.3 -1.2 -19.65 -4.25 -43.95 -14.6 -68.35 -24.95 -63.35 -2.3 -37.2 12.45 -1.25 7.4&#10;M -0.8 7.5&#10;Q 54.2 8.45 100.25 29.9"/>
      </g>
      <g transform="matrix( 1.1495513916015625, 0.1348114013671875, 0, 0.99993896484375, 52.9,-63) ">
        <g>
          <path fill="#03020A" stroke="none" d="&#10;M 34.4 53.3&#10;Q 27.85 52 19.3 51.95 15.15 51.9 4 52.4 -8.75 53 -25 53.25 -33.3 53.35 -54 53.45 -61 53.45 -64.5 53.25 -70.3 52.95 -74.85 52 -77.9 51.35 -83.95 49.55 -89.4 48.1 -93.15 48.05 -96.6 48.05 -98.4 49.1 -99.6 49.8 -100.3 51 -101.05 52.25 -100.9 53.55 -100.7 55 -99.4 56.15 -98.25 57.15 -96.65 57.55 -95.45 57.85 -93.6 57.9&#10;L -90.5 58&#10;Q -87.75 58.2 -83.85 59.4 -79.5 60.85 -77.3 61.4 -73.1 62.5 -67.75 62.85 -64.35 63.1 -58.05 63.1 -24.9 63 6.5 62 13.15 61.85 15.6 61.9 20.75 62 24.65 62.7 33.15 64.2 40.6 69 48.05 73.85 52.9 80.95 55.75 85.2 57.2 89.25 58.35 92.4 58.2 95.1 58.05 98.35 55.95 100.05 54.1 101.55 50.95 101.35 49.4 101.3 45.45 100.4 39.05 98.95 27.75 98.7 14.75 98.4 9.9 97.7 8.3 97.5 2.65 96.45 -1.85 95.65 -4.65 95.45 -9.4 95.1 -18 95.95 -40.3 97.95 -51.45 99.85 -53.65 100.25 -58.15 101 -61.95 101.55 -64.85 101.55 -69.45 101.55 -78.25 99.75&#10;L -106.3 94&#10;Q -108.5 93.55 -109.75 93.05 -111.6 92.35 -112.55 91.05 -113.25 90.15 -114.25 86.85 -115.1 84.1 -116.55 83.2 -117.85 82.4 -119.6 82.9 -121.25 83.35 -122.2 84.7 -123.95 87.15 -123.25 90.85 -122.3 95.85 -118.55 98.9 -116.25 100.85 -112.65 102.05 -110.5 102.8 -106.05 103.75&#10;L -77.3 109.6&#10;Q -69.55 111.25 -65.25 111.3 -62.2 111.35 -58.25 110.75 -57.15 110.6 -51.25 109.6 -44.45 108.4 -35.75 107.4 -31.35 106.9 -20.15 105.75 -15.05 105.25 -12.45 105.1 -8.2 104.85 -4.75 105.1 -1.9 105.3 2.65 106.1 8.4 107.1 10 107.3 14.9 108 27 108.35 37.95 108.7 44 109.85 49.1 110.9 49.25 110.9 52.25 111.4 54.5 111.1 60.35 110.35 64.3 104.9 68.05 99.7 67.95 93.4 67.75 83.05 58.05 71.7 56.5 69.95 55.7 69.05 54.3 67.45 53.45 66.25 51.4 63 50.15 61.5 45.3 55.5 34.4 53.3 Z"/>
        </g>
      </g>
    </g>
    <g transform="matrix( 1, 0, 0, 1, 0,0) ">
      <g>
        <path fill="#04061B" stroke="none" d="&#10;M -38.15 -43.15&#10;Q -28.3615234375 -50.101953125 -25.1 -36.05 -22.027734375 -22.8279296875 8 -22.6&#10;L -32 -75 -78.9 -78.3 -46.1 -33.9&#10;Q -41.1400390625 -38.4650390625 -38.15 -43.15&#10;M -92.8 -79.25&#10;L -113 -80.65 -113 -70.75&#10;Q -106.5 -69.45 -105.3 -64 -106.5884765625 -39.503125 -88.8 -32.85 -70.9478515625 -26.2029296875 -62.75 -26.45 -58.835546875 -26.5337890625 -55.35 -27.85&#10;L -92.8 -79.25&#10;M 60.85 -56.75&#10;L 60.85 -68.55 0.3 -72.75 38.7 -25.4&#10;Q 49.79296875 -27.9958984375 54.2 -33.05 62.7513671875 -42.7962890625 60.85 -56.75 Z"/>
        <path fill="#6878A4" stroke="none" d="&#10;M -55.35 -27.85&#10;Q -51.496875 -29.2572265625 -48.15 -32.1 -47.087890625 -32.9998046875 -46.1 -33.9&#10;L -78.9 -78.3 -92.8 -79.25 -55.35 -27.85&#10;M 8 -22.6&#10;Q 9.9078125 -22.587890625 11.9 -22.65 28.274609375 -22.9296875 38.7 -25.4&#10;L 0.3 -72.75 -32 -75 8 -22.6 Z"/>
        <path fill="#080715" stroke="none" d="&#10;M 60.85 -56.75&#10;L 79.3 -56.75 84.45 -66.85 60.85 -68.55 60.85 -56.75 Z"/>
      </g>
      <path stroke="#000000" stroke-width="9" stroke-linejoin="round" stroke-linecap="round" fill="none" d="&#10;M 60.85 -56.75&#10;L 79.3 -56.75 84.45 -66.85 60.85 -68.55 60.85 -56.75&#10;Q 62.7513671875 -42.7962890625 54.2 -33.025 49.79296875 -27.9958984375 38.725 -25.4 28.274609375 -22.9296875 11.9 -22.625 9.9078125 -22.587890625 8.025 -22.6 -22.027734375 -22.8279296875 -25.1 -36.05 -28.3615234375 -50.101953125 -38.15 -43.15 -41.1400390625 -38.4650390625 -46.1 -33.9 -47.087890625 -32.9998046875 -48.15 -32.1 -51.496875 -29.2572265625 -55.325 -27.825 -58.835546875 -26.5337890625 -62.75 -26.425 -70.9478515625 -26.2029296875 -88.775 -32.85 -106.5884765625 -39.503125 -105.3 -64 -106.5 -69.45 -113 -70.75&#10;L -113 -80.65 -92.775 -79.25 -78.875 -78.275 -32 -75 -32.25 -75.35&#10;M 0.05 -73.1&#10;L 0.325 -72.75 60.85 -68.55&#10;M 0.325 -72.75&#10;L -32 -75"/>
    </g>
    <g transform="matrix( 1, 0, 0, 1, 0,0) ">
      <g>
        <path fill="#E9D1B0" stroke="none" d="&#10;M 66.95 -86.25&#10;Q 58.4 -93.1 54 -101.65 -23.05 -99.55 -104.7 -110.9&#10;L -105.7 -95.9&#10;Q -15.75 -80.85 66.95 -86.25&#10;M 42.4 -117.1&#10;L 38.2 -141.15&#10;Q -0.4 -141.65 -65.3 -146.1&#10;L -68.55 -120.95&#10;Q -11.8 -115.1 42.4 -117.1&#10;M 54 -101.65&#10;Q 46.15 -105.9 42.4 -117.1 -11.8 -115.1 -68.55 -120.95&#10;L -104.7 -110.9&#10;Q -23.05 -99.55 54 -101.65&#10;M 17.1 -179.55&#10;Q 19.5 -176.7 22.05 -174.05&#10;L 5.45 -197.95&#10;Q -26.05 -180.95 -65.3 -146.1 -0.4 -141.65 38.2 -141.15 43.4 -147.7 35.25 -163.1 29.1 -167.7 22.05 -174.05 19.5 -176.7 17.1 -179.55&#10;M -47.05 -153.5&#10;Q -14.15 -156.9 6 -183.5 -14.15 -156.9 -47.05 -153.5 Z"/>
        <path fill="#BDAD94" stroke="none" d="&#10;M 54 -101.65&#10;Q 58.4 -93.1 66.95 -86.25 91.75 -87.85 115.9 -91.3&#10;L 116.8 -105.25&#10;Q 85.85 -102.55 54 -101.65&#10;M 22.05 -174.05&#10;Q 29.1 -167.7 35.25 -163.1 51.05 -151.25 61 -150.85 51.05 -151.25 35.25 -163.1 43.4 -147.7 38.2 -141.15 77 -140.7 89.2 -144.25 24.3 -200.7 14.25 -202.4 9.9 -200.3 5.45 -197.95&#10;L 22.05 -174.05&#10;M 82.25 -119.9&#10;L 89.2 -144.25&#10;Q 77 -140.7 38.2 -141.15&#10;L 42.4 -117.1&#10;Q 62.55 -117.9 82.25 -119.9&#10;M 116.8 -105.25&#10;L 82.25 -119.9&#10;Q 62.55 -117.9 42.4 -117.1 46.15 -105.9 54 -101.65 85.85 -102.55 116.8 -105.25 Z"/>
      </g>
      <path stroke="#000000" stroke-width="9" stroke-linejoin="round" stroke-linecap="round" fill="none" d="&#10;M 5.45 -197.95&#10;Q 9.9 -200.3 14.25 -202.4 24.3 -200.7 89.2 -144.25&#10;L 82.25 -119.9 116.8 -105.25 115.9 -91.3&#10;Q 91.75 -87.85 66.95 -86.25 -15.75 -80.85 -105.7 -95.9&#10;L -104.7 -110.9 -68.55 -120.95 -65.3 -146.1&#10;Q -26.05 -180.95 5.45 -197.95 Z&#10;M 22.05 -174.05&#10;Q 29.1 -167.7 35.25 -163.1 51.05 -151.25 61 -150.85&#10;M 17.1 -179.55&#10;Q 19.5 -176.7 22.05 -174.05&#10;M 54 -101.65&#10;Q 85.85 -102.55 116.8 -105.25&#10;M 89.2 -144.25&#10;Q 77 -140.7 38.2 -141.15&#10;M 42.4 -117.1&#10;Q 62.55 -117.9 82.25 -119.9&#10;M 38.2 -141.15&#10;Q -0.4 -141.65 -65.3 -146.1&#10;M -68.55 -120.95&#10;Q -11.8 -115.1 42.4 -117.1&#10;M -104.7 -110.9&#10;Q -23.05 -99.55 54 -101.65&#10;M -47.05 -153.5&#10;Q -14.15 -156.9 6 -183.5"/>
    </g>
    <g transform="matrix( 0.11181640625, 0, 0, 0.11181640625, -12.7,-136.2) ">
      <g>
        <path fill="#000000" stroke="none" d="&#10;M -75 18.55&#10;Q -76.7 17.3 -78.85 17 -81 16.7 -83 17.4 -85 18.1 -86.5 19.7 -87.95 21.3 -88.5 23.35 -88.9 24.85 -88.85 27.25 -88.8 30.45 -88.85 31.15 -89.05 34.45 -90.8 37.35 -92.55 40.3 -95.35 42.05 -97.55 39.25 -99.75 35 -101.05 32.55 -103.5 27.5 -108.05 18.2 -112.95 13.9 -116.25 11 -120.2 9.75 -124.5 8.4 -128.4 9.35 -132 10.2 -135 13.05 -137.75 15.7 -139.35 19.45 -141.85 25.35 -141.4 34.6 -140.7 45.85 -135.65 61.15 -132.75 70 -128.05 81.6 -125.3 88.35 -119.65 101.8 -118.25 105.2 -117.25 106.9 -115.7 109.6 -113.65 111.05 -111.4 112.6 -108.55 112.65 -105.6 112.7 -103.5 111.05 -101.65 109.55 -100.85 107 -100.15 104.6 -100.5 102 -100.75 99.8 -101.75 97.2 -102.35 95.6 -103.8 92.65 -112.5 74.15 -118.95 54.7 -121.5 46.95 -122.5 41.95 -123.9 34.85 -123.35 28.95 -121.1 32.25 -117.85 38.95 -114.45 46.05 -112.55 49.05 -109.2 54.3 -104.75 57.45 -99.6 61.05 -94.25 60.8 -85.35 60.35 -77.55 49.5 -69.65 38.3 -70.45 28.2 -70.9 21.55 -75 18.55&#10;M 20.05 31.45&#10;Q 21.6 27.3 21.75 26.85 22.55 24.15 22.3 22.1 22.05 19.9 20.65 18 19.3 16.15 17.25 15.25 15.25 14.35 12.9 14.6 10.6 14.8 8.75 16.1 6 18.05 3.95 22.8 0.55 30.65 -1.2 43.6 -3.95 64 -4.15 65.1 -5.55 59.6 -6.95 57.25 -9.4 53.05 -13.25 52.2 -16.15 51.55 -19.2 53.1 -21.85 54.4 -24.1 57 -25.35 58.45 -27.75 62.1 -29.95 65.45 -31.45 67.05 -35.5 62.25 -36.25 52.75 -36.55 47.65 -36.75 45.05 -37.1 40.55 -38 37.5 -39.1 33.55 -41.5 30.65 -44.15 27.45 -47.65 26.45 -50.75 25.6 -53.95 26.7 -57.15 27.8 -59 30.4 -60.85 33.05 -60.7 36.45 -60.5 39.9 -58.4 42.25 -58.2 42.5 -56.5 44.15 -55.4 45.25 -54.95 46.15 -54.35 47.35 -54.25 50.35 -54.2 54.35 -53.6 59.45 -52.85 64.95 -51.55 68.35 -50.05 72.2 -46.2 77.4 -43.4 81.2 -41.05 83.2 -37.85 86.05 -34.45 86.75 -30.55 87.55 -26.35 85.65 -22.7 84 -19.5 80.7 -18.4 79.6 -17.7 79.9 -17.2 80.15 -16.9 81 -15.55 84.1 -12.9 86.3 -10.25 88.5 -7 89.3 -3.75 90.05 -0.35 89.25 3 88.45 5.55 86.3 10 82.55 12.35 73.9 13.9 68.15 15.7 52.55 17.25 38.9 20.05 31.45&#10;M 83.1 69.25&#10;Q 87.5 54.6 85.6 41.3 83.85 29.55 77.5 23.2 74 19.7 68.95 17.75 64.25 16 58.85 15.75 53.3 15.55 48.8 17.3 43.65 19.35 41.25 23.45 38.75 27.8 39.6 34.25 40.15 37.75 42.9 44.85&#10;L 46.9 55.15&#10;Q 48.1 58.3 49.05 59.95 50.5 62.45 52.45 63.75 55.65 65.9 59.75 64.6 63.85 63.3 65.25 59.7 66.5 56.35 65.05 51.85 64.6 50.3 61.7 44.1 59.45 39.25 58.3 34.35 60.55 33.7 62.9 34.9 65.1 36.05 66.4 38.25 68.3 41.5 68.3 47.65 68.2 59.7 63.55 71.1 58.95 82.55 50.65 91.25&#10;L 33.55 76&#10;Q 31.4 74.05 30.1 73.15 28.05 71.75 26.05 71.3 24.05 70.85 21.95 71.45 19.85 72.05 18.3 73.5 16.8 74.95 16.1 77 15.4 79.05 15.75 81.1 16.15 83.55 18 86.05 19.35 87.8 21.9 90.05 23.4 91.35 28.5 95.5 32.6 98.9 34.95 101.1 39.55 105.35 40.2 105.9 43.35 108.45 46.25 109.35 49.8 110.45 53.75 109.5 57.45 108.7 60.7 106.35 63.55 104.35 66.3 101.2 68.3 98.8 70.8 95 79.2 82.05 83.1 69.25&#10;M 194.7 -14.05&#10;Q 188 -13.6 184.8 -10.75 182.5 -8.6 182.15 -5.2 181.75 -1.8 183.65 0.65 186.4 4.25 192.2 4.6 194.2 4.75 197.05 4.5 198.65 4.4 201.85 4.1 212.9 3.55 223.6 9 233.75 14.2 241.1 23.35 254.05 39.4 257.2 65.15 258.65 77.15 256.95 85.35 254.7 96.5 247.5 102.9 242.65 107.25 235.2 109.35 229.3 111 221.1 111.4 213.45 111.8 209.05 109.9 208.25 109.6 205 107.8 202.55 106.5 200.85 106.15 196.6 105.35 193.2 108.9 189.75 112.45 190.65 116.65 191.7 121.65 197.9 125.1 207.8 130.65 224.4 129.35 245.35 127.65 257.55 117.95 265.2 111.85 269.95 102.15 274.3 93.15 275.45 82.6 277.3 65.45 270.4 42.55 266.6 30.2 262.2 22.25 252.4 4.5 233.65 -5.55 214.9 -15.65 194.7 -14.05&#10;M 146.6 -15.65&#10;Q 145.45 -21.2 143 -23.6 140 -26.55 135.3 -25.65 130.6 -24.7 128.95 -20.8 127.95 -18.4 128.3 -14.95 128.4 -14.05 129.35 -8.85 130.15 -4.65 130.45 1.3 130.6 4.75 130.85 11.6 132.15 34 140.25 54.65 130.85 51.95 125.95 51.2 117.85 49.9 111.5 51.45 104.25 53.2 98.65 58.65 93.05 64.1 91 71.3 90.1 74.6 89.7 79.65 89.45 82.5 89.05 88.15 88.9 89.95 88.45 93.5 88.2 96.6 88.55 98.8 89 101.65 90.5 103.85 92.2 106.25 94.65 107 98.3 108.15 101.85 105.35 105.2 102.75 106.35 98.6 107.2 95.55 107.1 90.7 107 83.3 107.05 82.6 107.25 78.15 109.05 74.7 111.1 70.75 114.65 69.5 116.65 68.85 120.35 68.95 126.3 69.15 129.75 70.4 137.65 73.3 142.25 83.6 143.8 87 145.3 92.4 146.15 95.4 147.85 101.35 151 111.15 157 111.85 159.55 112.15 162 110.6 164.25 109.2 165.6 106.75 167.65 103 167.65 96.45 167.75 81.65 159.65 56.85 154.55 41.2 153.4 37.3 150.2 26.15 149.2 17.35 148.75 13.45 148.25 0.8 147.85 -9.5 146.6 -15.65 Z"/>
      </g>
    </g>
  </g>
  <g transform="matrix( 1.7701568603515625, 0, 0, 1.7701568603515625, 12.4,26) ">
    <g transform="matrix( 1, 0, 0, 1, -12.7,-14.5) ">
      <g>
        <path fill="#F9F9F9" stroke="none" d="&#10;M 6.65 15.3&#10;Q 6.31953125 16.53984375 8.55 16.15 8.655859375 14.662890625 11 13.85 8.655859375 14.662890625 8.55 16.15 9.51640625 16.696484375 10.75 15.65 11.676953125 14.7126953125 12.75 14.15 11.676953125 14.7126953125 10.75 15.65 11.83046875 16.0390625 12.55 15.9 13.26875 15.76328125 13.8 15.4 14.4353515625 14.6708984375 15.15 14.4 14.4353515625 14.6708984375 13.8 15.4 17.15 15.8521484375 19.1 13.25 17.59921875 12.703515625 15.95 12.6 14.301953125 12.541015625 11.45 12.8 8.647265625 13.1150390625 6.65 15.3 Z"/>
      </g>
      <path stroke="#000000" stroke-width="0.5" stroke-linejoin="round" stroke-linecap="round" fill="none" d="&#10;M 13.8 15.4&#10;Q 17.15 15.8521484375 19.1 13.275 17.59921875 12.703515625 15.95 12.625 14.301953125 12.541015625 11.475 12.825 8.647265625 13.1150390625 6.65 15.3 6.31953125 16.53984375 8.55 16.15 8.655859375 14.662890625 11 13.85&#10;M 10.75 15.65&#10;Q 11.676953125 14.7126953125 12.75 14.15&#10;M 13.8 15.4&#10;Q 14.4353515625 14.6708984375 15.15 14.4&#10;M 10.75 15.65&#10;Q 11.83046875 16.0390625 12.55 15.9 13.26875 15.76328125 13.8 15.4&#10;M 8.55 16.15&#10;Q 9.51640625 16.696484375 10.75 15.65"/>
    </g>
  </g>
</svg>