<?xml version="1.0" encoding="UTF-8"?>
<svg id="Layer_1" data-name="Layer 1" xmlns="http://www.w3.org/2000/svg" viewBox="0 0 459.43 96.8">
  <defs>
    <style>
      .cls-1 {
        fill: #fefeff;
      }
    </style>
  </defs>
  <path d="m378.24,29.71c1.2-.19,2.56-.37,3.9-.61,2.31-.4,4.62-.87,6.94-1.2.5-.07,1.21.18,1.59.53.9.83,1.67,1.79,2.45,2.73.11.14.1.61.01.64-.87.38-.67,1.29-1.02,1.91-.44.79-.97,1.55-1.52,2.27-.51.68-1.18,1.26-1.63,1.98-.75,1.18-1.28,1.42-2.66,1.15-.55-.11-1.21-.09-1.73.1-1.27.45-2.31-.11-3.25-.7-.77-.48-1.51-.39-2.23-.27-1.04.19-2.07.54-3.05.94-.4.16-.78.43-.6,1.17.41,1.69.52,3.45.87,5.15.33,1.6.13,3.24.42,4.81.29,1.56-.01,3.07.12,4.59.1,1.17.18,1.33,1.3,1.16,1.51-.23,3-.56,4.51-.82,2.25-.39,4.5-.77,6.75-1.11,1.56-.24,3.14-.37,4.7-.61.44-.07.86-.37,1.26-.61,1.29-.76,2.52-1.05,3.99-.22.66.38,1.68.24,2.52.18.77-.05,1.53-.44,2.29-.44.49,0,1.03.36,1.46.68,1.7,1.28,2.21,3.57,1,5.3-.52.74-1.44,1.39-2.31,1.69-2.05.69-4.2,1.11-6.29,1.7-3.49.98-7.02,1.73-10.61,2.33-2.31.39-4.53,1.31-6.78,2.06-1.12.37-2.19.89-3.28,1.33-1.91.77-2.25,2.88-2.02,4.47.12.85.27,1.77.07,2.58-.12.48-.25,1.01-.44,1.47-.11.26-.78.48-1.14.41-.39-.07-.9-.43-1.02-.78-.49-1.35-.85-2.75-1.24-4.13-.42-1.47-1.07-2.8-1.87-4.12-.73-1.2-.99-2.73-1.22-4.16-.16-.98.21-2.04.14-3.05-.12-1.61-.39-3.22-.63-4.82-.35-2.38-.89-4.74-1.06-7.13-.15-2.12-1.32-3.67-2.29-5.38-.52-.92-1.12-1.64-2.16-2.1-1.33-.58-2.09-1.79-2.24-3.21-.12-1.17.52-2.11,1.34-2.92.02-.02.06-.03.08-.05q2.04-1.53,1.47-4.03c-.65-2.88-1.24-5.78-1.95-8.65-.58-2.34-1.32-4.65-1.95-6.98-.25-.94-.43-1.91-.58-2.87-.4-2.47,1.66-4.14,3.4-4.55,1.63-.39,3.33-.44,5-.67,1.61-.23,2.73.48,3.61,1.74.14.2.51.4.74.37,2.68-.35,5.36-.71,8.02-1.14,2.97-.48,5.9-1.11,8.65-2.44,1.18-.57,2.47-.92,3.68-1.42,1.01-.42,1.96-1.02,2.99-1.36.94-.3,1.96-.44,2.96-.48.73-.03,2.18,1.89,2.27,2.62.32,2.53-.33,4.62-2.3,6.39-1.28,1.15-2.25,2.64-3.42,3.92-.95,1.04-1.15,2.31-1.33,3.59-.16,1.07-.16,2.18-.45,3.21-.13.46-.77.96-1.25,1.06-.37.08-1.09-.34-1.26-.71-.38-.84-.55-1.78-.74-2.7-.14-.68-.12-1.4-.27-2.08-.06-.25-.39-.6-.61-.62-.29-.02-.6.25-.89.42-.2.11-.36.3-.57.38-1.45.59-2.96,1.05-4.33,1.79-1.25.67-2.39,1.58-3.46,2.52-.44.39-.78,1.11-.81,1.69-.1,1.97-.04,3.94-.04,6.1Zm-3.89-2.88l-.42.03c0,1-.03,2,.02,2.99,0,.18.34.35.52.53.14-.18.41-.39.39-.55-.13-1.01-.33-2.01-.51-3.01Z"/>
  <path d="m174.63,29.73c1.25-.2,2.58-.38,3.89-.61,2.28-.4,4.55-.9,6.84-1.2.61-.08,1.44.27,1.92.69.93.83,1.69,1.85,2.37,2.62-.46,1.08-.82,1.97-1.22,2.84-.2.43-.41.87-.71,1.24-.92,1.15-1.9,2.25-2.84,3.39-.62.74-1.43.39-2.18.41-.58.01-1.21-.07-1.74.11-1.22.42-2.16-.21-3.19-.62-.65-.26-1.42-.45-2.1-.37-.93.11-1.82.52-2.74.76-.92.24-1.15.93-1.04,1.71.28,1.91.65,3.8.96,5.7.11.72.16,1.46.19,2.19.12,2.36.2,4.71.34,7.07.01.21.36.61.49.58,1.6-.27,3.19-.63,4.79-.91,2.47-.42,4.99-.64,7.41-1.25,1.38-.35,2.78-.06,4.1-.53.63-.22,1.31-.43,1.81-.84,1.02-.84,2.19-.76,3.14-.26,1.36.71,2.63.64,3.96.25,1.61-.48,2.75-.05,3.76,1.33,1.08,1.48,1.39,3,.16,4.47-.54.64-1.35,1.2-2.14,1.46-2.52.81-5.08,1.48-7.63,2.16-1.91.51-3.84.99-5.77,1.4-1.77.37-3.61.45-5.32.99-2.84.89-5.61,2-8.39,3.07-1.87.72-2.23,2.88-1.97,4.48.14.85.25,1.77.06,2.58-.1.45-.24.94-.41,1.38-.1.26-.7.51-1.02.45-.44-.08-1.05-.38-1.18-.73-.49-1.36-.75-2.8-1.22-4.17-.47-1.38-1-2.77-1.67-4.06-1.04-2.02-1.6-4.02-1.38-6.38.18-1.89-.32-3.85-.59-5.77-.32-2.35-.86-4.68-1.03-7.04-.15-2.1-1.29-3.68-2.26-5.39-.54-.95-1.15-1.7-2.22-2.16-1.34-.58-2.05-1.81-2.2-3.23-.12-1.14.54-2.04,1.3-2.85.02-.02.07-.02.09-.03,2.03-1.54,2.05-1.55,1.51-4.01-.63-2.92-1.23-5.85-1.96-8.74-.54-2.19-1.29-4.33-1.88-6.51-.3-1.12-.48-2.29-.65-3.44-.33-2.2,1.56-3.99,3.44-4.42,1.63-.38,3.34-.43,5-.66,1.58-.21,2.68.45,3.54,1.71.14.21.5.43.72.39,1.78-.28,3.55-.64,5.33-.92,1.81-.29,3.63-.56,5.45-.77,2.12-.25,4.02-1.09,5.95-1.91,2.42-1.03,4.85-2.05,7.3-2.98,1.22-.47,2.54-.41,3.59.4.5.38.79,1.17.94,1.83.16.68-.05,1.43.05,2.13.21,1.37-.46,2.32-1.3,3.26-1.61,1.81-3.29,3.56-4.71,5.51-.63.86-.79,2.11-1.03,3.21-.23,1.02-.17,2.11-.46,3.11-.13.47-.72.95-1.21,1.14-.58.22-1.17-.11-1.36-.76-.27-.93-.48-1.87-.67-2.82-.13-.66-.13-1.34-.29-1.99-.13-.57-.56-.81-1.12-.5-2.33,1.27-4.65,2.56-6.97,3.85-.45.25-.84.62-1.31.84-.91.44-1.31,1.14-1.31,2.11,0,1.94,0,3.88,0,6.02Zm-3.88-2.88c-.14.01-.29.02-.43.03,0,.99-.03,1.99.02,2.98,0,.19.33.36.51.54.14-.18.42-.38.39-.54-.13-1.01-.33-2.01-.5-3.01Z"/>
  <path d="m437.66,32.99c2.08,1.84,4.27,3.6,6.26,5.58,4.01,4,7.9,8.11,11.84,12.18.7.72,1.43,1.42,2.15,2.13,1.99,1.95,2.09,4.93-.05,6.85-1.27,1.14-1.68,2.59-1.7,4.19-.03,1.78-.02,3.57,0,5.35.06,4.65.17,9.31.18,13.96,0,2.67-.19,5.35-.22,8.02-.01,1.25.17,2.51.23,3.76.01.3-.06.64-.19.91-.51,1.05-1.21,1.15-2.09.42-.93-.77-1.22-1.85-1.41-2.93-.78-4.35-1.03-8.73-1.04-13.14,0-2.81-.34-5.62-.56-8.42-.18-2.33-.98-4.39-2.52-6.24-2.08-2.49-3.89-5.2-5.94-7.72-1.86-2.28-3.76-4.55-5.88-6.58-2.71-2.6-5.65-4.94-8.49-7.41-.46-.4-.89-.84-1.35-1.24-.15-.13-.35-.19-.72-.39.09,1.11.16,2.02.25,2.92.11,1.1.32,2.2.37,3.3.16,3.7.26,7.4.42,11.1.06,1.46-.42,2.47-1.91,2.97-.31.1-.59.72-.62,1.12-.08,1.06.03,2.14-.03,3.21-.04.75-.1,1.61-1.05,1.83-.96.23-1.86-.31-2.23-1.24-.72-1.8-1.53-3.57-2.11-5.41-.45-1.44-.69-2.95-.85-4.45-.33-3.11-.43-6.25-.83-9.35-.37-2.84-1.07-5.64-1.52-8.48-.35-2.22-.57-4.47-.79-6.71-.24-2.52-.24-5.07-.64-7.55-.63-3.96-1.07-7.92-.97-11.94.04-1.65,2.03-4.39,3.96-4.61.87-.1,1.52-.12,2.37.18.94.33,2.08.16,3.13.16,1.65,0,3.29-.13,4.93-.05,1.05.05,2.09.39,3.14.59.74.14,1.52.17,2.21.44,1.45.55,2.82,1.3,4.28,1.83,2.75,1.01,4.38,3.17,5.73,5.54.52.91.78,2.1.76,3.16-.03,1.93-.23,3.88-.6,5.78-.43,2.22-1.89,3.81-3.76,5.04-.73.48-1.47.95-2.14,1.38Zm-13.42-3.98c1.58-.26,3.07-.51,4.56-.75.22-.04.48.02.67-.08,1.88-.94,3.82-1.78,5.6-2.88,1.62-.99,1.57-4.24.04-5.41-1.77-1.36-3.91-1.76-6.02-1.9-1.43-.09-2.91.28-4.34.58-.76.16-1.31.81-1.27,1.64.09,2.14.25,4.27.42,6.4.07.87.24,1.73.34,2.39Z"/>
  <path d="m297.11,35.56c0,1.47.13,2.95-.04,4.4-.16,1.42-.57,2.81-.97,4.19-.92,3.22-1.74,6.48-2.88,9.63-.77,2.11-1.92,4.1-3.07,6.04-.5.85-1.4,1.48-2.16,2.17-.8.74-1.57,1.57-2.5,2.11-.82.48-1.83.65-2.77.88-1.38.34-2.78.61-4.17.92-.09.02-.19.08-.28.07-2.08-.13-3.96.79-5.93,1.19-.79.16-1.45.12-2.22-.18-1.42-.55-2.9-1-4.39-1.33-1.43-.32-2.6-1.11-3.76-1.89-1.94-1.29-3.81-2.68-5.71-4.03-1.9-1.35-3.84-2.64-5.68-4.06-.67-.52-1.17-1.29-1.62-2.02-.77-1.22-1.45-2.56-2.23-3.71-1.4-2.04-1.26-4.38-2.02-6.5-.28-.77-.48-1.57-.81-2.32-.64-1.47-.39-2.9.12-4.31.36-1.01.69-2.03.08-3.03-.76-1.25.12-2.34.24-3.49.23-2.12,1.61-3.61,2.86-5.18,1.31-1.66,2.6-3.33,3.85-5.04.14-.19.1-.67-.05-.88-1.87-2.76-.28-4.87,1.89-5.71.91-.35,1.77-.82,2.69-1.11.54-.17,1.26.11,1.72-.13,1.24-.67,2.45-1.46,3.57-2.32,2.24-1.72,4.18-3.92,7.05-4.63,1.81-.45,3.68-.64,5.53-.93.6-.09,1.23-.06,1.8-.24,1.87-.62,3.74-.44,5.51.15.62.2.97,1.23,1.42,1.9.52.77.78,1.55.51,2.53-.14.51.05,1.13.18,1.68.05.21.29.46.5.54,4.11,1.59,6.28,3.86,8.77,6.89,2.05,2.49,2.93,5.45,3.45,8.57.33,1.99.8,3.95,1.13,5.94.18,1.07.18,2.17.27,3.25h.1Zm-20.25-17.95c-.15,1.84-.35,3.65-.44,5.46-.17,3.47-.26,6.94-.41,10.42-.02.53-.1,1.08-.25,1.59-.28.96-1.14,1.34-1.98.77-.47-.32-.93-.88-1.06-1.41-.26-1.07-.38-2.19-.41-3.29-.1-3.32-.12-6.65-.22-9.97-.01-.53-.18-1.08-.38-1.57-.67-1.58-1.79-2-2.9-1-3.48,3.14-7.36,5.8-10.55,9.28-3.88,4.23-4.68,9.11-3.57,14.45.32,1.55,1.05,3.06,1.8,4.48,1.06,2.03,2.29,3.98,3.47,5.94.19.32.51.62.84.77.86.39,1.71.72,1.94,1.81.05.25.43.55.71.63,1.28.36,2.31,1.11,3.42,1.8,1.7,1.05,3.75.75,5.57.55,3.62-.4,6.92-1.95,10.15-3.6,1.25-.64,2.54-1.26,3.06-2.68.39-1.05.64-2.15.93-3.23.29-1.11.33-2.36.88-3.32,1.15-2,1.55-4.19,1.63-6.37.1-2.78-.03-5.59-.4-8.35-.32-2.35-1.04-4.65-1.73-6.93-1.21-4.03-5.74-6.43-10.11-6.23Z"/>
  <path d="m25.75,32.47c.91-.16,1.66-.28,2.4-.41,3.21-.56,6.43-.91,9.63.08,2.92.9,4.76,3.68,4.91,6.65.13,2.6-.66,5.04-.99,7.55-.27,1.98-.21,4.01-.31,6.02-.11,2.2.41,4.2,1.41,6.19,1.22,2.42.41,5.39-1.65,7.14-.93.79-2.54.63-3.69-.33-1.63-1.35-2.36-3.21-2.79-5.16-.62-2.84-1.07-5.71-1.61-8.57-.04-.22-.19-.55-.35-.59-.18-.04-.48.13-.64.3-2.68,2.64-5.29,5.35-8.03,7.92-1.4,1.31-3.01,2.41-4.54,3.58-1.36,1.04-1.79,2.53-1.39,4.2.25,1.03.2,2.13.28,3.2.06.73.22,1.47.15,2.19-.1,1.05-.26,2.12-.6,3.11-.12.36-.85.66-1.32.69-.31.02-.71-.45-.99-.77-1.13-1.27-.77-2.94-1.13-4.42-.36-1.47-.52-3-.94-4.45-.32-1.09-1.4-1.52-2.36-1.98-1.53-.74-3.16-1.33-4.54-2.29-2.1-1.46-3.38-3.61-4.18-6.01-.63-1.88-1.26-3.76-1.77-5.67-.3-1.13-.46-2.31-.52-3.48C.07,44.66.01,42.15,0,39.64c-.01-3.38.59-6.7,1.23-10,.45-2.32.9-4.65,1.3-6.98.56-3.29,1.73-6.33,4.27-8.58,1.44-1.27,3.17-2.31,4.92-3.15,2.32-1.12,4.75-2.1,7.21-2.86,3.01-.93,5.56.28,7.9,2.18,1.36,1.1,2.25,2.4,2.72,4.04.62,2.2-.02,4.09-1.43,5.79-.49.59-1.05,1.15-1.41,1.81-.34.61-.62,1.33-.66,2.01-.09,1.75.01,3.5-.03,5.25-.02,1.05-.16,2.09-.26,3.31Zm-3.52,17.55c-1.3-.72-1.57-.99-1.9-2.28-.31-1.21-.52-2.44-.77-3.67-.02-.12.04-.26.03-.38-.03-.21-.03-.46-.14-.62-.72-1.07-1.57-2.07-2.14-3.21-.29-.57-.25-1.43-.07-2.08.55-1.99,1.96-3.21,3.89-3.88,1.3-.45,1.29-.46,1.01-1.85-.11-.53-.16-1.06-.22-1.6-.27-2.27-.49-4.55-.81-6.82-.19-1.37-1.63-2.46-2.57-1.88-2.26,1.38-5.11,2.18-5.84,5.26-.1.42-.3.82-.45,1.23-.5,1.36-1.13,2.68-1.46,4.08-.52,2.23-.87,4.5-1.22,6.76-.35,2.21-.56,4.43-.2,6.68.47,2.98,2.28,5.01,5.16,5.69,1.04.24,2.06.61,3.1.86.36.09.76.02,1.14,0,1.54-.12,2.41-1.25,3.48-2.27Zm6.74-7.8c-.2-.08-.28-.15-.37-.15-1.99-.16-3.23,1.15-4.5,2.34-.29.27-.5.74-.54,1.13-.1,1.23-.1,2.46-.14,3.65,1.88-2.12,4.46-3.9,5.55-6.97Z"/>
  <path d="m124.26,39.93c1.17-4.57,2.28-8.92,3.39-13.26.63-2.44,1.11-4.93,1.95-7.3.76-2.17,2.66-2.98,4.86-2.38.52.14,1.04.54,1.39.96,2.62,3.13,4.76,6.54,6.08,10.42.48,1.42,1.19,2.77,1.63,4.2.41,1.34.59,2.76.9,4.13.5,2.28,1.11,4.53,1.51,6.82.39,2.25.54,4.54.86,6.81.26,1.88.62,3.75.89,5.63.38,2.63.8,5.26,1.02,7.91.16,1.88-.71,3.41-2.28,4.49-.62.42-1.2.48-1.93-.03-2.29-1.62-3.21-3.82-3.41-6.54-.16-2.14-.62-4.27-1.02-6.39-.22-1.17-.65-2.29-.89-3.46-.2-.98-.26-1.99-.41-2.98-.18-1.19-.41-2.37-.58-3.56-.22-1.54-.31-3.1-.6-4.63-.61-3.21-1.56-6.33-2.9-9.32-.05-.11-.12-.2-.18-.3-.11-.02-.21-.04-.32-.06-.3.95-.63,1.9-.88,2.87-.72,2.78-1.4,5.57-2.13,8.35-.16.59-.44,1.16-.64,1.74-.05.14-.03.32,0,.48.03.18.21.4.16.52-.79,1.76-.13,3.77-.81,5.47-.7,1.75-1.02,3.85-2.9,4.94-.4.23-.9.3-1.35.44-.32.1-.65.26-.97.25-.41-.02-.89-.07-1.22-.29-1.55-1.03-2.42-2.63-3.29-4.2-1.63-2.9-2.47-6.1-3.5-9.22-1.14-3.44-2.15-6.92-3.34-10.34-.48-1.36-1.31-2.59-1.99-3.88-.11.03-.21.06-.32.08-.2,1.67-.41,3.35-.61,5.02-.2,1.67-.4,3.34-.58,5.01-.1.99-.11,1.98-.21,2.97-.2,1.98-.44,3.95-.66,5.93-.32,2.83-.78,5.64-.35,8.51.1.68.33,1.48-.34,2.13-.13.13.1.59.08.89-.04.64-.84.55-1.05.96-.41.82-.68,1.72-1.02,2.58-.06.15-.25.26-.27.41-.05.49-.08.98-.07,1.48,0,.24.15.48.14.72-.05,1.71-.11,3.41-.2,5.11-.04.77-.78,1.43-1.52,1.44-.69,0-1.28-.63-1.43-1.45-.43-2.27-.81-4.56-1.39-6.8-.32-1.23-1.05-2.35-1.48-3.55-.3-.84-.51-1.73-.61-2.62-.13-1.11-.2-2.25-.1-3.35.08-.88.54-1.71.7-2.59.36-1.96.65-3.93.95-5.9.32-2.13.64-4.26.94-6.39.24-1.67.44-3.35.67-5.02.2-1.47.44-2.94.63-4.41.18-1.36.4-2.71.48-4.07.18-2.92.33-5.84.37-8.76.01-.89-.39-1.79-.55-2.69-.07-.44-.12-.94.01-1.35.57-1.71,1.31-3.32,3.25-3.91,1.55-.47,4.2-.13,5.02,2.15.25.7.9,1.24,1.3,1.89.89,1.46,1.77,2.92,2.58,4.42.96,1.78,1.86,3.6,2.72,5.43.25.53.26,1.16.38,1.74.06.3.07.64.22.9,1.18,2.15,1.58,4.59,2.49,6.84.91,2.25,1.47,4.63,2.2,6.95.09.29.28.54.54,1.03Z"/>
  <path d="m330.31,53.62c.27-1.77.37-3.34.78-4.82.4-1.44.09-2.93.69-4.38.49-1.18.44-2.58.66-3.88.35-2.03.71-4.06,1.08-6.08.34-1.81.73-3.61,1.05-5.43.08-.45-.05-.93-.07-1.14.28-.61.54-1.01.65-1.45.33-1.33.59-2.68.89-4.02.01-.06.11-.12.1-.15-.44-1.23.55-2.11.79-3.17.25-1.11.57-2.21.88-3.3.57-1.99,1.18-3.98,1.71-5.98.22-.82.14-1.72.43-2.5.41-1.1.97-2.16,1.6-3.15.55-.86.79-1.59.04-2.43-.12-.14-.17-.57-.12-.59.93-.43,1.86-1.03,2.84-1.14.72-.08,1.49.65,2.27.75,1.73.22,2.89,1.16,3.54,2.63.79,1.78,1.72,3.59,1.46,5.63-.12.97-.45,1.93-.77,2.86-.57,1.69-1.22,3.37-1.82,5.05-.72,2.01-1.39,4.04-2.14,6.04-.33.87-.07,1.33.77,1.61.19.06.34.25.57.42-.21.14-.33.28-.47.29-1.14.15-1.87.67-2.23,1.85-.11.35-.96.45-1.45.72-.36.2-.91.41-1,.71-1.03,3.75-2.05,7.51-2.96,11.3-.49,2.02-.82,4.07-1.14,6.12-.22,1.38-.26,2.79-.46,4.18-.32,2.16-.61,4.33-1.09,6.46-.66,2.98-1.4,5.95-2.27,8.87-.28.93-.9,1.9-1.64,2.54-1.17,1-1.3,2.26-1.45,3.59-.08.72,0,1.5-.26,2.15-.18.47-.81,1.09-1.21,1.07-.49-.02-1.36-.62-1.38-1-.12-2.87-1.56-5.27-2.53-7.84-.64-1.69-1.12-3.44-1.9-5.06-.57-1.19-1.58-2.17-2.24-3.33-1.63-2.82-3.16-5.7-4.75-8.55-.85-1.51-1.85-2.94-2.61-4.48-1.22-2.5-2.29-5.08-3.45-7.62-1.26-2.76-2.51-5.53-3.84-8.26-1.57-3.21-3.2-6.39-4.83-9.57-.91-1.77-1.53-3.63-1.7-5.59-.08-.91-.09-1.99.33-2.73.52-.92,1.42-1.76,2.35-2.31,1.78-1.04,4.93.05,6.08,1.82,2.15,3.32,3.45,7.03,5.1,10.58.56,1.21,1.16,2.4,1.65,3.64.55,1.37.95,2.81,1.51,4.18.85,2.07,1.77,4.11,2.67,6.16.68,1.55,1.35,3.1,2.07,4.63.72,1.54,1.52,3.03,2.23,4.57.77,1.67,1.43,3.38,2.21,5.04.61,1.29,1.33,2.52,2.02,3.76.11.2.35.34.77.72Z"/>
  <path d="m82.86,38.28c1.01.09,2.01.12,2.98.28,1.46.24,2.22,1.26,2.42,2.62.22,1.49,0,2.9-1.55,3.72-.25.13-.48.32-.96.65.68,1.61,1.36,3.28,2.08,4.93,1.07,2.44,2.18,4.86,3.24,7.3.72,1.67.33,3.21-.63,4.69-.49.75-.91,1.56-1.31,2.36-.35.69-.8,1.13-1.63,1.19-.86.06-1.24-.47-1.51-1.1-.34-.82-.58-1.68-.93-2.49-.16-.36-.59-.6-.75-.96-2.03-4.57-4.04-9.15-6.05-13.72-.04-.09-.1-.17-.12-.26-.29-1.08-.88-1.77-2.11-1.85-2.06-.14-4.08-.21-6.05.67-1.5.67-3.06,1.3-4.65,1.67-1.23.29-1.56,1.02-1.72,2.04-.06.4-.11.81-.22,1.2-.36,1.23-1.76,1.59-2.79.79-.39-.3-.73-.66-1.16-1.06.08,1.89-.7,3.39-1.45,4.98-.73,1.56-1.15,3.33-1.38,5.05-.4,3-.54,6.04-.82,9.05-.04.46-.26.9-.37,1.36-.17.7-.62,1-1.33,1.04-.76.04-1.16-.44-1.35-1.02-.24-.75-.42-1.54-.45-2.32-.06-1.84,0-3.69-.03-5.54-.04-2.04-.15-4.08-1.21-5.9-1.34-2.31-.86-4.61-.15-6.96,1.02-3.35,1.94-6.73,3.39-9.94,1.52-3.38,3-6.79,4.38-10.23,1.11-2.77,2.21-5.57,2.97-8.45.38-1.45,0-3.1-.04-4.66,0-.29-.03-.6.03-.88.89-3.71,3.95-4.88,7.08-5.96,1.14-.4,2.22-.1,3.26.29.82.3,1.3.89,1.48,1.86.32,1.68.43,3.31-.02,4.99-.28,1.06.42,1.91.86,2.78,2.43,4.79,4.91,9.55,7.31,14.34.56,1.11.86,2.34,1.27,3.47Zm-10-.79c-.7-2.07-2-3.74-3.35-5.49-.18.21-.34.31-.38.44-.35,1.16-.68,2.33-1,3.5-.21.79-.52,1.37-1.51,1.27-.6-.06-1.21-.01-1.79-.01-.18,1.04.38,1.03,1.04.92.75-.12,1.5-.25,2.26-.31,1.54-.13,3.08-.22,4.72-.33Z"/>
  <path class="cls-1" d="m374.36,26.83c.18,1,.37,2,.51,3.01.02.16-.25.37-.39.55-.18-.18-.51-.34-.52-.53-.05-1-.02-2-.02-2.99l.42-.03Z"/>
  <path class="cls-1" d="m170.75,26.84c.17,1,.37,2,.5,3.01.02.16-.26.36-.39.54-.18-.18-.5-.35-.51-.54-.05-.99-.02-1.98-.02-2.98.14-.01.29-.02.43-.03Z"/>
  <path class="cls-1" d="m424.24,29.01c-.1-.65-.27-1.52-.34-2.39-.17-2.13-.33-4.26-.42-6.4-.04-.83.51-1.48,1.27-1.64,1.43-.31,2.91-.68,4.34-.58,2.12.14,4.26.54,6.02,1.9,1.53,1.18,1.57,4.42-.04,5.41-1.78,1.1-3.72,1.94-5.6,2.88-.19.09-.45.04-.67.08-1.49.24-2.98.49-4.56.75Z"/>
  <path class="cls-1" d="m276.87,17.61c4.37-.2,8.91,2.2,10.11,6.23.68,2.28,1.41,4.59,1.73,6.93.37,2.75.5,5.57.4,8.35-.08,2.18-.48,4.36-1.63,6.37-.55.96-.59,2.21-.88,3.32-.29,1.08-.54,2.18-.93,3.23-.52,1.42-1.81,2.03-3.06,2.68-3.23,1.65-6.53,3.2-10.15,3.6-1.82.2-3.88.5-5.57-.55-1.11-.69-2.14-1.43-3.42-1.8-.28-.08-.66-.37-.71-.63-.23-1.09-1.08-1.42-1.94-1.81-.33-.15-.65-.46-.84-.77-1.19-1.96-2.42-3.91-3.47-5.94-.74-1.42-1.47-2.93-1.8-4.48-1.11-5.34-.32-10.22,3.57-14.45,3.2-3.48,7.08-6.15,10.55-9.28,1.11-1,2.24-.58,2.9,1,.21.49.37,1.04.38,1.57.09,3.32.11,6.65.22,9.97.03,1.1.15,2.22.41,3.29.13.53.59,1.09,1.06,1.41.84.57,1.7.19,1.98-.77.15-.51.23-1.06.25-1.59.15-3.47.24-6.94.41-10.42.09-1.81.29-3.62.44-5.46Z"/>
  <path class="cls-1" d="m22.23,50.02c-1.07,1.02-1.94,2.15-3.48,2.27-.38.03-.78.09-1.14,0-1.04-.25-2.05-.61-3.1-.86-2.88-.68-4.69-2.71-5.16-5.69-.36-2.25-.15-4.47.2-6.68.36-2.26.71-4.53,1.22-6.76.33-1.4.96-2.72,1.46-4.08.15-.41.35-.81.45-1.23.73-3.08,3.58-3.88,5.84-5.26.94-.58,2.38.51,2.57,1.88.32,2.27.54,4.55.81,6.82.06.53.12,1.07.22,1.6.28,1.39.3,1.4-1.01,1.85-1.93.67-3.34,1.9-3.89,3.88-.18.65-.22,1.51.07,2.08.57,1.14,1.43,2.14,2.14,3.21.11.17.11.41.14.62.02.12-.05.26-.03.38.25,1.22.46,2.46.77,3.67.33,1.3.59,1.56,1.9,2.28Z"/>
  <path class="cls-1" d="m28.98,42.22c-1.09,3.08-3.66,4.85-5.55,6.97.04-1.19.03-2.43.14-3.65.03-.39.25-.86.54-1.13,1.27-1.19,2.51-2.5,4.5-2.34.09,0,.17.07.37.15Z"/>
  <path class="cls-1" d="m72.86,37.49c-1.64.11-3.18.2-4.72.33-.76.06-1.51.19-2.26.31-.66.1-1.22.12-1.04-.92.58,0,1.19-.05,1.79.01.99.1,1.3-.48,1.51-1.27.31-1.17.65-2.34,1-3.5.04-.13.19-.23.38-.44,1.35,1.75,2.65,3.42,3.35,5.49Z"/>
</svg>