<?xml version="1.0" encoding="UTF-8"?>
<svg xmlns="http://www.w3.org/2000/svg" xmlns:xlink="http://www.w3.org/1999/xlink" width="320px" height="320px" viewBox="0 0 320 351" version="1.1">
<g id="surface1">
<path style=" stroke:none;fill-rule:nonzero;fill:rgb(38.039216%,52.156863%,31.764706%);fill-opacity:1;" d="M 303.769531 554.246094 L 303.769531 545.519531 C 290.054688 543.234375 270.667969 543.960938 245.621094 547.699219 C 268.285156 547.492188 287.667969 549.675781 303.769531 554.246094 M 28.519531 520.273438 L 28.519531 531.492188 L 123.054688 511.859375 C 90.050781 514.351562 58.539062 517.15625 28.519531 520.273438 M 28.519531 542.402344 L 28.519531 550.195312 L 119.175781 549.257812 L 28.519531 542.402344 M 44.324219 267.507812 L 28.519531 305.84375 L 299.894531 305.84375 L 280.808594 267.507812 L 44.324219 267.507812 M 47.605469 292.441406 L 54.167969 277.167969 C 65.699219 276.753906 73.949219 274.675781 78.917969 270.9375 L 247.707031 270.9375 C 252.476562 275.300781 260.828125 277.585938 272.757812 277.792969 L 277.230469 292.128906 C 267.089844 292.335938 260.730469 295.351562 258.144531 301.167969 L 70.570312 301.167969 C 69.773438 293.480469 62.117188 290.570312 47.605469 292.441406 M 151.085938 289.949219 C 155.0625 291.402344 159.832031 292.128906 165.398438 292.128906 C 171.164062 292.128906 175.9375 291.402344 179.714844 289.949219 C 183.890625 288.492188 185.976562 286.832031 185.976562 284.960938 C 185.976562 282.882812 183.890625 281.117188 179.714844 279.664062 C 175.9375 278.207031 171.164062 277.480469 165.398438 277.480469 C 159.832031 277.480469 155.0625 278.207031 151.085938 279.664062 C 147.109375 281.117188 145.121094 282.882812 145.121094 284.960938 C 145.121094 286.832031 147.109375 288.492188 151.085938 289.949219 Z M 151.085938 289.949219 "/>
<path style=" stroke:none;fill-rule:nonzero;fill:rgb(66.27451%,84.705882%,56.078431%);fill-opacity:1;" d="M 303.769531 512.480469 L 300.492188 501.574219 C 248.203125 503.652344 198.601562 506.351562 151.683594 509.675781 C 209.734375 507.597656 260.429688 508.535156 303.769531 512.480469 M 299.894531 394.359375 L 299.894531 410.253906 L 200.589844 410.253906 C 241.941406 413.164062 279.8125 419.082031 314.207031 428.019531 L 299.894531 394.359375 M 299.894531 347.605469 L 307.648438 348.542969 L 299.894531 322.671875 L 299.894531 339.503906 L 231.601562 340.75 L 299.894531 347.605469 M 28.519531 473.210938 L 28.519531 445.160156 L 13.3125 489.105469 C 58.839844 481.210938 108.042969 476.429688 160.925781 474.769531 C 117.1875 473.523438 73.054688 473.003906 28.519531 473.210938 M 54.167969 277.167969 L 47.605469 292.441406 C 62.117188 290.570312 69.773438 293.480469 70.570312 301.167969 L 258.144531 301.167969 C 260.730469 295.351562 267.089844 292.335938 277.230469 292.128906 L 272.757812 277.792969 C 260.828125 277.585938 252.476562 275.300781 247.707031 270.9375 L 78.917969 270.9375 C 73.949219 274.675781 65.699219 276.753906 54.167969 277.167969 M 165.398438 292.128906 C 159.832031 292.128906 155.0625 291.402344 151.085938 289.949219 C 147.109375 288.492188 145.121094 286.832031 145.121094 284.960938 C 145.121094 282.882812 147.109375 281.117188 151.085938 279.664062 C 155.0625 278.207031 159.832031 277.480469 165.398438 277.480469 C 171.164062 277.480469 175.9375 278.207031 179.714844 279.664062 C 183.890625 281.117188 185.976562 282.882812 185.976562 284.960938 C 185.976562 286.832031 183.890625 288.492188 179.714844 289.949219 C 175.9375 291.402344 171.164062 292.128906 165.398438 292.128906 M 109.335938 292.128906 C 105.160156 292.128906 101.683594 291.609375 98.898438 290.570312 C 95.917969 289.53125 94.425781 288.285156 94.425781 286.832031 C 94.425781 285.375 95.917969 284.128906 98.898438 283.089844 C 101.683594 282.050781 105.160156 281.53125 109.335938 281.53125 C 113.3125 281.53125 116.691406 282.050781 119.476562 283.089844 C 122.457031 284.128906 123.949219 285.375 123.949219 286.832031 C 123.949219 288.285156 122.457031 289.53125 119.476562 290.570312 C 116.691406 291.609375 113.3125 292.128906 109.335938 292.128906 M 227.726562 290.570312 C 224.746094 291.609375 221.265625 292.128906 217.289062 292.128906 C 213.3125 292.128906 209.832031 291.609375 206.851562 290.570312 C 204.066406 289.53125 202.675781 288.285156 202.675781 286.832031 C 202.675781 285.375 204.066406 284.128906 206.851562 283.089844 C 209.832031 282.050781 213.3125 281.53125 217.289062 281.53125 C 221.265625 281.53125 224.746094 282.050781 227.726562 283.089844 C 230.511719 284.128906 231.902344 285.375 231.902344 286.832031 C 231.902344 288.285156 230.511719 289.53125 227.726562 290.570312 M 37.167969 410.253906 L 28.519531 410.253906 L 28.519531 445.160156 C 77.226562 438.511719 125.441406 436.433594 173.152344 438.925781 C 128.222656 434.980469 82.894531 433.003906 37.167969 433.003906 L 37.167969 410.253906 M 25.835938 367.554688 L 26.433594 358.203125 L 18.082031 382.824219 L 27.925781 381.890625 L 140.945312 373.164062 C 106.15625 365.890625 67.785156 364.023438 25.835938 367.554688 Z M 25.835938 367.554688 "/>
<path style=" stroke:none;fill-rule:nonzero;fill:rgb(44.705882%,62.352941%,38.039216%);fill-opacity:1;" d="M 37.167969 433.003906 C 82.894531 433.003906 128.222656 434.980469 173.152344 438.925781 L 192.539062 440.796875 L 192.835938 440.796875 C 229.21875 444.328125 265.300781 449.109375 301.085938 455.132812 C 305.460938 455.964844 309.835938 456.796875 314.207031 457.628906 L 314.207031 428.019531 C 279.8125 419.082031 241.941406 413.164062 200.589844 410.253906 L 168.085938 410.253906 C 121.164062 411.5 77.527344 419.082031 37.167969 433.003906 M 28.519531 531.492188 L 28.519531 542.402344 L 119.175781 549.257812 L 28.519531 550.195312 L 28.519531 578.246094 L 303.769531 578.246094 L 303.769531 554.246094 C 287.667969 549.675781 268.285156 547.492188 245.621094 547.699219 L 228.917969 548.011719 L 245.621094 547.699219 C 270.667969 543.960938 290.054688 543.234375 303.769531 545.519531 L 303.769531 512.480469 C 260.429688 508.535156 209.734375 507.597656 151.683594 509.675781 C 142.140625 510.300781 132.597656 511.027344 123.054688 511.859375 L 28.519531 531.492188 M 13.3125 489.105469 L 13.3125 522.144531 C 18.480469 521.519531 23.550781 520.898438 28.519531 520.273438 C 58.539062 517.15625 90.050781 514.351562 123.054688 511.859375 C 132.597656 511.027344 142.140625 510.300781 151.683594 509.675781 C 198.601562 506.351562 248.203125 503.652344 300.492188 501.574219 L 301.085938 481.625 C 254.964844 478.507812 208.34375 476.222656 161.226562 474.769531 L 160.925781 474.769531 C 108.042969 476.429688 58.839844 481.210938 13.3125 489.105469 M 28.519531 445.160156 L 28.519531 473.210938 C 73.054688 473.003906 117.1875 473.523438 160.925781 474.769531 L 161.226562 474.769531 C 208.34375 476.222656 254.964844 478.507812 301.085938 481.625 L 301.085938 455.132812 C 265.300781 449.109375 229.21875 444.328125 192.835938 440.796875 L 192.539062 440.796875 L 173.152344 438.925781 C 125.441406 436.433594 77.226562 438.511719 28.519531 445.160156 M 28.519531 305.84375 L 26.433594 358.203125 L 25.835938 367.554688 C 67.785156 364.023438 106.15625 365.890625 140.945312 373.164062 L 27.925781 381.890625 L 28.519531 410.253906 L 299.894531 410.253906 L 299.894531 347.605469 L 231.601562 340.75 L 299.894531 339.503906 L 299.894531 305.84375 Z M 28.519531 305.84375 "/>
<path style=" stroke:none;fill-rule:nonzero;fill:rgb(95.294118%,100%,92.941176%);fill-opacity:1;" d="M 217.289062 292.128906 C 221.265625 292.128906 224.746094 291.609375 227.726562 290.570312 C 230.511719 289.53125 231.902344 288.285156 231.902344 286.832031 C 231.902344 285.375 230.511719 284.128906 227.726562 283.089844 C 224.746094 282.050781 221.265625 281.53125 217.289062 281.53125 C 213.3125 281.53125 209.832031 282.050781 206.851562 283.089844 C 204.066406 284.128906 202.675781 285.375 202.675781 286.832031 C 202.675781 288.285156 204.066406 289.53125 206.851562 290.570312 C 209.832031 291.609375 213.3125 292.128906 217.289062 292.128906 M 98.898438 290.570312 C 101.683594 291.609375 105.160156 292.128906 109.335938 292.128906 C 113.3125 292.128906 116.691406 291.609375 119.476562 290.570312 C 122.457031 289.53125 123.949219 288.285156 123.949219 286.832031 C 123.949219 285.375 122.457031 284.128906 119.476562 283.089844 C 116.691406 282.050781 113.3125 281.53125 109.335938 281.53125 C 105.160156 281.53125 101.683594 282.050781 98.898438 283.089844 C 95.917969 284.128906 94.425781 285.375 94.425781 286.832031 C 94.425781 288.285156 95.917969 289.53125 98.898438 290.570312 Z M 98.898438 290.570312 "/>
<path style="fill:none;stroke-width:0.5;stroke-linecap:round;stroke-linejoin:round;stroke:rgb(0%,0%,0%);stroke-opacity:1;stroke-miterlimit:4;" d="M 2113.755829 3247.422322 C 2113.755829 3268.713952 2090.028555 3287.689338 2042.574005 3304.259394 C 1999.651632 3320.829449 1945.398818 3329.114477 1879.859997 3329.114477 C 1816.587264 3329.114477 1762.378884 3320.829449 1717.190422 3304.259394 C 1672.001961 3287.689338 1649.385513 3268.713952 1649.385513 3247.422322 C 1649.385513 3223.725361 1672.001961 3203.591852 1717.190422 3187.021797 C 1762.378884 3170.451741 1816.587264 3162.166714 1879.859997 3162.166714 C 1945.398818 3162.166714 1999.651632 3170.451741 2042.574005 3187.021797 C 2090.028555 3203.591852 2113.755829 3223.725361 2113.755829 3247.422322 Z M 1408.73585 3268.713952 C 1408.73585 3285.284008 1391.806839 3299.493276 1357.904385 3311.341756 C 1326.268018 3323.190237 1287.877821 3329.114477 1242.68936 3329.114477 C 1195.23481 3329.114477 1155.689352 3323.190237 1124.052986 3311.341756 C 1090.150531 3299.493276 1073.221521 3285.284008 1073.221521 3268.713952 C 1073.221521 3252.143897 1090.150531 3237.934629 1124.052986 3226.086148 C 1155.689352 3214.282211 1195.23481 3208.357971 1242.68936 3208.357971 C 1287.877821 3208.357971 1326.268018 3214.282211 1357.904385 3226.086148 C 1391.806839 3237.934629 1408.73585 3252.143897 1408.73585 3268.713952 Z M 324.16834 3485.371882 L 300.441065 4082.116595 L 293.642801 4188.663834 C 770.409952 4148.396817 1206.520817 4169.688447 1601.930964 4252.583268 L 317.370076 4352.048144 L 324.16834 4675.253312 L 3408.491897 4675.253312 L 3408.491897 3961.315545 L 2632.334526 3883.186843 L 3408.491897 3868.977575 L 3408.491897 3485.371882 Z M 324.16834 3485.371882 L 503.811359 3048.537113 L 3191.569508 3048.537113 L 3408.491897 3485.371882 M 317.370076 4352.048144 L 205.531966 4362.693959 L 300.441065 4082.116595 M 615.649469 3158.603261 C 746.682677 3153.881686 840.480949 3130.229268 896.955417 3087.601464 L 2815.35446 3087.601464 C 2869.562841 3137.311631 2964.47194 3163.369379 3100.037325 3165.730167 L 3150.86879 3329.114477 C 3035.653764 3331.475265 2963.361113 3365.818041 2933.990834 3432.098263 L 802.046318 3432.098263 C 793.026399 3344.481867 706.026392 3311.341756 541.090729 3332.67793 Z M 324.16834 5073.068273 C 877.760319 4997.300358 1425.709294 4973.603397 1968.015265 5002.021933 M 324.16834 5073.068273 L 324.16834 5392.709989 C 830.305769 5390.349201 1331.911022 5396.273442 1829.028532 5410.48271 L 1832.405447 5410.48271 C 2367.957588 5427.052765 2897.822292 5453.110514 3422.043992 5488.611412 L 3422.043992 5186.697874 C 3015.303405 5118.056865 2605.185903 5063.58058 2191.691485 5023.313564 L 2188.314569 5023.313564 L 1968.015265 5002.021933 C 1457.34566 4957.033342 942.143879 4934.539046 422.454355 4934.539046 L 422.454355 4675.253312 M 151.279152 5573.86702 L 151.279152 5950.345807 C 210.064142 5943.263445 267.649438 5936.136539 324.16834 5929.054177 C 665.370106 5893.508735 1023.500883 5861.57129 1398.605103 5833.152754 C 1507.066298 5823.665061 1615.483059 5815.380033 1723.944253 5808.297671 C 2257.230306 5770.391441 2820.997464 5739.612118 3415.245728 5715.915157 L 3422.043992 5488.611412 M 324.16834 6181.213005 L 324.16834 6270.032066 L 1354.527469 6259.341708 Z M 324.16834 6181.213005 L 324.16834 5929.054177 M 324.16834 5073.068273 L 151.279152 5573.86702 C 668.747022 5483.889837 1227.982004 5429.413552 1829.028532 5410.48271 M 324.16834 6056.893046 L 1398.605103 5833.152754 M 324.16834 4675.253312 L 324.16834 5073.068273 M 422.454355 4934.539046 C 881.137234 4775.87631 1377.099484 4689.46258 1910.385536 4675.253312 M 2635.711442 3268.713952 C 2635.711442 3285.284008 2619.893258 3299.493276 2588.256892 3311.341756 C 2554.354438 3323.190237 2514.80898 3329.114477 2469.620518 3329.114477 C 2424.432057 3329.114477 2384.886599 3323.190237 2350.984144 3311.341756 C 2319.347778 3299.493276 2303.529595 3285.284008 2303.529595 3268.713952 C 2303.529595 3252.143897 2319.347778 3237.934629 2350.984144 3226.086148 C 2384.886599 3214.282211 2424.432057 3208.357971 2469.620518 3208.357971 C 2514.80898 3208.357971 2554.354438 3214.282211 2588.256892 3226.086148 C 2619.893258 3237.934629 2635.711442 3252.143897 2635.711442 3268.713952 Z M 3408.491897 3677.174728 L 3496.602732 3972.005904 L 3408.491897 3961.315545 M 2601.808987 6245.13244 L 2791.627185 6241.61353 C 3076.31005 6198.985726 3296.653787 6190.700698 3452.525098 6216.758447 L 3452.525098 5840.235116 C 2959.939764 5795.246525 2383.775771 5784.60071 1723.944253 5808.297671 M 3415.245728 5715.915157 L 3452.525098 5840.235116 M 3452.525098 6316.17878 L 3452.525098 6216.758447 M 2791.627185 6241.61353 C 3049.20586 6239.252743 3269.505164 6264.107826 3452.525098 6316.17878 L 3452.525098 6589.673781 L 324.16834 6589.673781 L 324.16834 6270.032066 M 3571.161472 4877.701974 L 3571.161472 5215.11641 C 3521.440834 5205.67326 3471.76463 5196.185567 3422.043992 5186.697874 M 3571.161472 4877.701974 L 3408.491897 4494.096281 M 2279.80232 4675.253312 C 2749.815639 4708.393423 3180.283501 4775.87631 3571.161472 4877.701974 " transform="matrix(0.0879131,0,0,0.0876958,-0.108008,-0.219035)"/>
<path style=" stroke:none;fill-rule:nonzero;fill:rgb(38.039216%,52.156863%,31.764706%);fill-opacity:1;" d="M 26.675781 357.957031 L 26.675781 365.75 L 117.332031 364.816406 L 26.675781 357.957031 M 301.921875 369.800781 L 301.921875 361.074219 C 288.207031 358.789062 268.824219 359.519531 243.773438 363.257812 C 266.4375 363.050781 285.824219 365.230469 301.921875 369.800781 M 298.046875 121.398438 L 278.964844 83.0625 L 42.480469 83.0625 L 26.675781 121.398438 L 298.046875 121.398438 M 270.914062 93.347656 L 275.382812 107.6875 C 265.246094 107.894531 258.882812 110.90625 256.300781 116.726562 L 68.726562 116.726562 C 67.925781 109.035156 60.273438 106.125 45.761719 108 L 52.320312 92.726562 C 63.851562 92.308594 72.101562 90.230469 77.074219 86.492188 L 245.859375 86.492188 C 250.632812 90.855469 258.984375 93.140625 270.914062 93.347656 M 149.238281 95.21875 C 145.265625 96.675781 143.277344 98.441406 143.277344 100.519531 C 143.277344 102.386719 145.265625 104.046875 149.238281 105.5 C 153.214844 106.957031 157.988281 107.6875 163.554688 107.6875 C 169.320312 107.6875 174.09375 106.957031 177.871094 105.5 C 182.042969 104.046875 184.128906 102.386719 184.128906 100.519531 C 184.128906 98.441406 182.042969 96.675781 177.871094 95.21875 C 174.09375 93.765625 169.320312 93.035156 163.554688 93.035156 C 157.988281 93.035156 153.214844 93.765625 149.238281 95.21875 Z M 149.238281 95.21875 "/>
<path style=" stroke:none;fill-rule:nonzero;fill:rgb(66.27451%,84.705882%,56.078431%);fill-opacity:1;" d="M 301.921875 328.035156 L 298.644531 317.128906 C 246.359375 319.207031 196.757812 321.910156 149.835938 325.230469 C 207.890625 323.15625 258.585938 324.089844 301.921875 328.035156 M 159.082031 290.324219 C 115.34375 289.078125 71.207031 288.558594 26.675781 288.769531 L 26.675781 260.71875 L 11.464844 304.664062 C 56.992188 296.765625 106.199219 291.988281 159.082031 290.324219 M 26.675781 225.8125 L 26.675781 260.71875 C 75.386719 254.066406 123.597656 251.988281 171.308594 254.484375 C 126.378906 250.535156 81.050781 248.5625 35.320312 248.5625 L 35.320312 225.8125 L 26.675781 225.8125 M 23.992188 183.113281 L 24.585938 173.757812 L 16.238281 198.378906 L 26.078125 197.445312 L 139.097656 188.71875 C 104.308594 181.449219 65.941406 179.578125 23.992188 183.113281 M 298.046875 209.914062 L 298.046875 225.8125 L 198.742188 225.8125 C 240.097656 228.71875 277.96875 234.640625 312.363281 243.578125 L 298.046875 209.914062 M 298.046875 138.226562 L 298.046875 155.058594 L 229.757812 156.304688 L 298.046875 163.164062 L 305.804688 164.097656 L 298.046875 138.226562 M 275.382812 107.6875 L 270.914062 93.347656 C 258.984375 93.140625 250.632812 90.855469 245.859375 86.492188 L 77.074219 86.492188 C 72.101562 90.230469 63.851562 92.308594 52.320312 92.726562 L 45.761719 108 C 60.273438 106.125 67.925781 109.035156 68.726562 116.726562 L 256.300781 116.726562 C 258.882812 110.90625 265.246094 107.894531 275.382812 107.6875 M 117.632812 98.648438 C 120.613281 99.6875 122.105469 100.933594 122.105469 102.386719 C 122.105469 103.839844 120.613281 105.089844 117.632812 106.128906 C 114.847656 107.167969 111.46875 107.6875 107.492188 107.6875 C 103.316406 107.6875 99.835938 107.167969 97.050781 106.128906 C 94.070312 105.089844 92.582031 103.839844 92.582031 102.386719 C 92.582031 100.933594 94.070312 99.6875 97.050781 98.648438 C 99.835938 97.605469 103.316406 97.085938 107.492188 97.085938 C 111.46875 97.085938 114.847656 97.605469 117.632812 98.648438 M 143.277344 100.519531 C 143.277344 98.441406 145.265625 96.675781 149.238281 95.21875 C 153.214844 93.765625 157.988281 93.035156 163.554688 93.035156 C 169.320312 93.035156 174.09375 93.765625 177.871094 95.21875 C 182.042969 96.675781 184.128906 98.441406 184.128906 100.519531 C 184.128906 102.386719 182.042969 104.046875 177.871094 105.5 C 174.09375 106.957031 169.320312 107.6875 163.554688 107.6875 C 157.988281 107.6875 153.214844 106.957031 149.238281 105.5 C 145.265625 104.046875 143.277344 102.386719 143.277344 100.519531 M 215.445312 97.085938 C 219.421875 97.085938 222.898438 97.605469 225.882812 98.648438 C 228.667969 99.6875 230.058594 100.933594 230.058594 102.386719 C 230.058594 103.839844 228.667969 105.089844 225.882812 106.128906 C 222.898438 107.167969 219.421875 107.6875 215.445312 107.6875 C 211.464844 107.6875 207.988281 107.167969 205.007812 106.128906 C 202.226562 105.089844 200.832031 103.839844 200.832031 102.386719 C 200.832031 100.933594 202.226562 99.6875 205.007812 98.648438 C 207.988281 97.605469 211.464844 97.085938 215.445312 97.085938 Z M 215.445312 97.085938 "/>
<path style=" stroke:none;fill-rule:nonzero;fill:rgb(44.705882%,62.352941%,38.039216%);fill-opacity:1;" d="M 159.378906 290.324219 L 159.082031 290.324219 C 106.199219 291.988281 56.992188 296.765625 11.464844 304.664062 L 11.464844 337.703125 C 16.636719 337.074219 21.707031 336.449219 26.675781 335.828125 C 56.699219 332.714844 88.207031 329.90625 121.207031 327.414062 C 130.75 326.582031 140.292969 325.855469 149.835938 325.230469 C 196.757812 321.910156 246.359375 319.207031 298.644531 317.128906 L 299.238281 297.183594 C 253.117188 294.066406 206.5 291.777344 159.378906 290.324219 M 190.992188 256.351562 L 190.695312 256.351562 L 171.308594 254.484375 C 123.597656 251.988281 75.386719 254.066406 26.675781 260.71875 L 26.675781 288.769531 C 71.207031 288.558594 115.34375 289.078125 159.082031 290.324219 L 159.378906 290.324219 C 206.5 291.777344 253.117188 294.066406 299.238281 297.183594 L 299.238281 270.691406 C 263.457031 264.664062 227.375 259.886719 190.992188 256.351562 M 190.695312 256.351562 L 190.992188 256.351562 C 227.375 259.886719 263.457031 264.664062 299.238281 270.691406 C 303.617188 271.523438 307.988281 272.351562 312.363281 273.183594 L 312.363281 243.578125 C 277.96875 234.640625 240.097656 228.71875 198.742188 225.8125 L 166.238281 225.8125 C 119.320312 227.058594 75.679688 234.640625 35.320312 248.5625 C 81.050781 248.5625 126.378906 250.535156 171.308594 254.484375 L 190.695312 256.351562 M 298.046875 155.058594 L 298.046875 121.398438 L 26.675781 121.398438 L 24.585938 173.757812 L 23.992188 183.113281 C 65.941406 179.578125 104.308594 181.449219 139.097656 188.71875 L 26.078125 197.445312 L 26.675781 225.8125 L 298.046875 225.8125 L 298.046875 163.164062 L 229.757812 156.304688 Z M 298.046875 155.058594 "/>
<path style=" stroke:none;fill-rule:nonzero;fill:rgb(44.313725%,63.137255%,35.686275%);fill-opacity:1;" d="M 35.320312 225.8125 L 35.320312 248.5625 C 75.679688 234.640625 119.320312 227.058594 166.238281 225.8125 Z M 35.320312 225.8125 "/>
<path style=" stroke:none;fill-rule:nonzero;fill:rgb(95.294118%,100%,92.941176%);fill-opacity:1;" d="M 225.882812 98.648438 C 222.898438 97.605469 219.421875 97.085938 215.445312 97.085938 C 211.464844 97.085938 207.988281 97.605469 205.007812 98.648438 C 202.226562 99.6875 200.832031 100.933594 200.832031 102.386719 C 200.832031 103.839844 202.226562 105.089844 205.007812 106.128906 C 207.988281 107.167969 211.464844 107.6875 215.445312 107.6875 C 219.421875 107.6875 222.898438 107.167969 225.882812 106.128906 C 228.667969 105.089844 230.058594 103.839844 230.058594 102.386719 C 230.058594 100.933594 228.667969 99.6875 225.882812 98.648438 M 122.105469 102.386719 C 122.105469 100.933594 120.613281 99.6875 117.632812 98.648438 C 114.847656 97.605469 111.46875 97.085938 107.492188 97.085938 C 103.316406 97.085938 99.835938 97.605469 97.050781 98.648438 C 94.070312 99.6875 92.582031 100.933594 92.582031 102.386719 C 92.582031 103.839844 94.070312 105.089844 97.050781 106.128906 C 99.835938 107.167969 103.316406 107.6875 107.492188 107.6875 C 111.46875 107.6875 114.847656 107.167969 117.632812 106.128906 C 120.613281 105.089844 122.105469 103.839844 122.105469 102.386719 Z M 122.105469 102.386719 "/>
<path style="fill:none;stroke-width:0.5;stroke-linecap:round;stroke-linejoin:round;stroke:rgb(0%,0%,0%);stroke-opacity:1;stroke-miterlimit:4;" d="M 594.653052 1197.512963 C 725.712915 1192.749786 819.479321 1169.06745 875.996667 1126.465954 L 2794.345459 1126.465954 C 2848.59856 1176.189957 2943.519287 1202.231624 3079.107642 1204.590954 L 3129.897778 1368.007977 C 3014.687634 1370.367308 2942.364966 1404.688889 2913.018567 1471.017236 L 781.120337 1471.017236 C 772.018958 1383.365883 685.045288 1350.201709 520.110535 1371.569231 Z M 303.186926 1524.257977 L 482.817078 1087.381197 L 3170.609802 1087.381197 L 3387.489014 1524.257977 L 3387.489014 1716.031481 L 3475.661401 2010.858761 L 3387.489014 2000.219516 L 3387.489014 2532.983048 L 3550.203918 2916.619088 L 3550.203918 3254.003348 C 3500.479309 3244.52151 3450.799097 3235.084188 3401.03009 3225.60235 L 3401.03009 3527.507621 L 3394.28175 3754.80463 L 3431.530811 3879.092379 M 1377.593665 3872.014387 C 1002.52804 3900.415385 644.422058 3932.422151 303.186926 3967.90114 C 246.713977 3974.979131 189.086707 3982.101638 130.305115 3989.268661 L 130.305115 3612.755128 L 303.186926 3111.953846 L 303.186926 2714.161823 L 296.394189 2390.889031 L 184.558215 2401.528276 L 279.434546 2120.946011 L 303.186926 1524.257977 L 3387.489014 1524.257977 M 3387.489014 1716.031481 L 3387.489014 1907.849501 L 2611.341138 1922.05 L 3387.489014 2000.219516 M 3387.489014 2532.983048 L 3387.489014 2714.161823 L 2258.829175 2714.161823 C 2728.859924 2747.281481 3159.288574 2814.767236 3550.203918 2916.619088 M 1387.804968 1307.600214 C 1387.804968 1324.160043 1370.845325 1338.405057 1336.970435 1350.246225 C 1305.315393 1362.087393 1266.912012 1368.007977 1221.715894 1368.007977 C 1174.25553 1368.007977 1134.697827 1362.087393 1103.042786 1350.246225 C 1069.167896 1338.405057 1052.252649 1324.160043 1052.252649 1307.600214 C 1052.252649 1291.040385 1069.167896 1276.839886 1103.042786 1264.998718 C 1134.697827 1253.113034 1174.25553 1247.19245 1221.715894 1247.19245 C 1266.912012 1247.19245 1305.315393 1253.113034 1336.970435 1264.998718 C 1370.845325 1276.839886 1387.804968 1291.040385 1387.804968 1307.600214 Z M 2092.7401 1286.321724 C 2092.7401 1307.600214 2069.032117 1326.519373 2021.61615 1343.079202 C 1978.684277 1359.683547 1924.431177 1368.007977 1858.901245 1368.007977 C 1795.635559 1368.007977 1741.382458 1359.683547 1696.18634 1343.079202 C 1651.034619 1326.519373 1628.43656 1307.600214 1628.43656 1286.321724 C 1628.43656 1262.639387 1651.034619 1242.518305 1696.18634 1225.91396 C 1741.382458 1209.354131 1795.635559 1201.029701 1858.901245 1201.029701 C 1924.431177 1201.029701 1978.684277 1209.354131 2021.61615 1225.91396 C 2069.032117 1242.518305 2092.7401 1262.639387 2092.7401 1286.321724 Z M 2614.759705 1307.600214 C 2614.759705 1324.160043 2598.954382 1338.405057 2567.299341 1350.246225 C 2533.380054 1362.087393 2493.866748 1368.007977 2448.67063 1368.007977 C 2403.430115 1368.007977 2363.916809 1362.087393 2330.041919 1350.246225 C 2298.431274 1338.405057 2282.581555 1324.160043 2282.581555 1307.600214 C 2282.581555 1291.040385 2298.431274 1276.839886 2330.041919 1264.998718 C 2363.916809 1253.113034 2403.430115 1247.19245 2448.67063 1247.19245 C 2493.866748 1247.19245 2533.380054 1253.113034 2567.299341 1264.998718 C 2598.954382 1276.839886 2614.759705 1291.040385 2614.759705 1307.600214 Z M 279.434546 2120.946011 L 272.686206 2227.56104 C 749.465295 2187.274359 1185.532361 2208.597365 1580.931799 2291.441026 L 296.394189 2390.889031 M 303.186926 2714.161823 L 401.437427 2714.161823 L 401.437427 2973.421083 C 860.146948 2814.767236 1356.149927 2728.362322 1889.401965 2714.161823 L 401.437427 2714.161823 M 1947.029236 3040.906838 L 2167.371411 3062.185328 L 2170.745581 3062.185328 C 2584.258984 3102.472009 2994.353821 3156.914672 3401.03009 3225.60235 M 1889.401965 2714.161823 L 2258.829175 2714.161823 M 303.186926 3111.953846 C 856.817175 3036.143661 1404.764612 3012.461325 1947.029236 3040.906838 C 1436.375256 2995.901496 921.192786 2973.421083 401.437427 2973.421083 M 1808.066711 3449.338105 L 1811.440881 3449.338105 C 2347.001563 3465.897934 2876.835034 3491.984117 3401.03009 3527.507621 M 303.186926 4220.082407 L 303.186926 4308.891168 M 303.186926 3111.953846 L 303.186926 3431.620869 C 809.312415 3429.217023 1310.953809 3435.137607 1808.066711 3449.338105 C 1207.020496 3468.301781 647.751831 3522.744444 130.305115 3612.755128 M 3431.530811 4355.053917 L 3431.530811 4255.605912 M 1702.979077 3847.130128 C 2236.275513 3809.291809 2800.028271 3778.486966 3394.28175 3754.80463 " transform="matrix(0.0879846,0,0,0.08775,0,-12.3552)"/>
<path style=" stroke:none;fill-rule:nonzero;fill:rgb(44.705882%,62.352941%,38.039216%);fill-opacity:1;" d="M 298.417969 14.734375 L 298.417969 -2.09375 L 27.046875 -2.09375 L 24.957031 50.265625 L 24.363281 59.617188 C 66.3125 56.082031 104.679688 57.953125 139.46875 65.226562 L 26.449219 73.953125 L 27.046875 102.3125 L 298.417969 102.3125 L 298.417969 39.667969 L 230.128906 32.8125 L 298.417969 31.566406 L 298.417969 14.734375 M 299.609375 173.6875 L 299.609375 147.195312 C 263.828125 141.167969 227.742188 136.390625 191.363281 132.859375 L 191.0625 132.859375 L 171.679688 130.988281 C 123.964844 128.492188 75.753906 130.570312 27.046875 137.222656 L 27.046875 165.273438 C 71.578125 165.066406 115.714844 165.582031 159.449219 166.828125 L 159.75 166.828125 C 206.867188 168.285156 253.488281 170.570312 299.609375 173.6875 M 299.015625 193.632812 L 299.609375 173.6875 C 253.488281 170.570312 206.867188 168.285156 159.75 166.828125 L 159.449219 166.828125 C 106.570312 168.492188 57.363281 173.273438 11.832031 181.167969 L 11.832031 214.203125 C 17.003906 213.582031 22.074219 212.957031 27.046875 212.332031 C 57.066406 209.21875 88.578125 206.414062 121.578125 203.917969 C 131.121094 203.085938 140.664062 202.363281 150.207031 201.738281 C 197.125 198.414062 246.730469 195.710938 299.015625 193.632812 M 227.445312 240.074219 L 244.144531 239.761719 C 269.191406 236.023438 288.578125 235.296875 302.292969 237.578125 L 302.292969 204.542969 C 258.953125 200.597656 208.257812 199.660156 150.207031 201.738281 C 140.664062 202.363281 131.121094 203.085938 121.578125 203.917969 L 27.046875 223.554688 L 27.046875 234.460938 L 117.703125 241.320312 L 27.046875 242.253906 L 27.046875 270.304688 L 302.292969 270.304688 L 302.292969 246.304688 C 286.191406 241.734375 266.808594 239.554688 244.144531 239.761719 L 227.445312 240.074219 M 299.609375 147.195312 C 303.984375 148.027344 308.359375 148.855469 312.734375 149.6875 L 312.734375 120.078125 C 278.339844 111.144531 240.464844 105.222656 199.113281 102.3125 L 166.609375 102.3125 C 119.6875 103.558594 76.050781 111.144531 35.691406 125.066406 C 81.417969 125.066406 126.75 127.039062 171.679688 130.988281 L 191.0625 132.859375 L 191.363281 132.859375 C 227.742188 136.390625 263.828125 141.167969 299.609375 147.195312 Z M 299.609375 147.195312 "/>
<path style=" stroke:none;fill-rule:nonzero;fill:rgb(38.039216%,52.156863%,31.764706%);fill-opacity:1;" d="M 27.046875 234.460938 L 27.046875 242.253906 L 117.703125 241.320312 L 27.046875 234.460938 M 27.046875 212.332031 L 27.046875 223.554688 L 121.578125 203.917969 C 88.578125 206.414062 57.066406 209.21875 27.046875 212.332031 M 302.292969 237.578125 C 288.578125 235.296875 269.191406 236.023438 244.144531 239.761719 C 266.808594 239.554688 286.191406 241.734375 302.292969 246.304688 Z M 302.292969 237.578125 "/>
<path style=" stroke:none;fill-rule:nonzero;fill:rgb(66.27451%,84.705882%,56.078431%);fill-opacity:1;" d="M 27.046875 165.273438 L 27.046875 137.222656 L 11.832031 181.167969 C 57.363281 173.273438 106.570312 168.492188 159.449219 166.828125 C 115.714844 165.582031 71.578125 165.066406 27.046875 165.273438 M 35.691406 125.066406 L 35.691406 102.3125 L 27.046875 102.3125 L 27.046875 137.222656 C 75.753906 130.570312 123.964844 128.492188 171.679688 130.988281 C 126.75 127.039062 81.417969 125.066406 35.691406 125.066406 M 24.363281 59.617188 L 24.957031 50.265625 L 16.605469 74.886719 L 26.449219 73.953125 L 139.46875 65.226562 C 104.679688 57.953125 66.3125 56.082031 24.363281 59.617188 M 298.417969 86.417969 L 298.417969 102.3125 L 199.113281 102.3125 C 240.464844 105.222656 278.339844 111.144531 312.734375 120.078125 L 298.417969 86.417969 M 302.292969 204.542969 L 299.015625 193.632812 C 246.730469 195.710938 197.125 198.414062 150.207031 201.738281 C 208.257812 199.660156 258.953125 200.597656 302.292969 204.542969 M 298.417969 39.667969 L 306.171875 40.605469 L 298.417969 14.734375 L 298.417969 31.566406 L 230.128906 32.8125 Z M 298.417969 39.667969 "/>
<path style=" stroke:none;fill-rule:nonzero;fill:rgb(44.313725%,63.137255%,35.686275%);fill-opacity:1;" d="M 35.691406 102.3125 L 35.691406 125.066406 C 76.050781 111.144531 119.6875 103.558594 166.609375 102.3125 Z M 35.691406 102.3125 "/>
<path style="fill:none;stroke-width:0.5;stroke-linecap:round;stroke-linejoin:round;stroke:rgb(0%,0%,0%);stroke-opacity:1;stroke-miterlimit:4;" d="M 296.452258 1044.754778 L 320.204639 475.35677 L 3404.506726 475.35677 L 3404.506726 658.359353 L 3492.634717 939.70246 L 3404.506726 929.50733 L 3404.506726 1437.904477 L 3567.221631 1803.952123 L 3567.221631 2125.94831 C 3517.497021 2116.900133 3467.772412 2107.894434 3418.047803 2098.846257 L 3418.047803 2386.943637 L 3411.299463 2603.845027 L 3448.548523 2722.490852 L 3448.548523 3437.636739 M 320.204639 3437.636739 L 320.204639 2807.19539 C 263.687292 2813.992143 206.060022 2820.788897 147.27843 2827.54317 L 147.27843 2468.292278 L 320.204639 1990.395562 L 320.204639 1610.75441 L 313.411902 1302.351729 L 201.531531 1312.504379 L 296.452258 1044.754778 L 289.703918 1146.4512 C 766.483008 1108.007064 1202.550073 1128.354844 1597.949512 1207.452061 L 313.411902 1302.351729 M 3404.506726 658.359353 L 3404.506726 841.404415 L 2628.35885 854.955442 L 3404.506726 929.50733 M 2597.85813 3108.886278 L 2787.655188 3105.487901 C 3072.328577 3064.83482 3292.670752 3056.933594 3448.548523 3081.741744 M 3404.506726 1437.904477 L 3404.506726 1610.75441 L 2275.846887 1610.75441 C 2745.83324 1642.401792 3176.306287 1706.80103 3567.221631 1803.952123 M 418.455139 1610.75441 L 418.455139 1858.19871 C 877.164661 1706.80103 1373.123242 1624.305437 1906.419678 1610.75441 L 320.204639 1610.75441 M 1964.046948 1922.597947 C 1421.737927 1895.453414 873.790491 1918.052619 320.204639 1990.395562 L 320.204639 2295.442346 C 826.330127 2293.190921 1327.971521 2298.798243 1825.040027 2312.34927 L 1828.458594 2312.34927 C 2363.974878 2328.194201 2893.852747 2353.04483 3418.047803 2386.943637 M 1964.046948 1922.597947 L 2184.344727 1942.945728 L 2187.763293 1942.945728 C 2601.2323 1981.347384 3011.371533 2033.300067 3418.047803 2098.846257 M 1394.611377 2715.694099 C 1503.073181 2706.645921 1611.534985 2698.787175 1719.99679 2691.990422 C 2253.248828 2655.84019 2817.045984 2626.444232 3411.299463 2603.845027 M 1906.419678 1610.75441 L 2275.846887 1610.75441 M 320.204639 2807.19539 C 661.395374 2773.339063 1019.545752 2742.838632 1394.611377 2715.694099 L 320.204639 2929.239592 M 147.27843 2468.292278 C 664.769543 2382.440788 1224.038208 2330.445625 1825.040027 2312.34927 M 418.455139 1858.19871 C 938.166101 1858.19871 1453.392969 1879.650962 1964.046948 1922.597947 M 320.204639 3047.842937 L 1350.56958 3122.437304 L 320.204639 3132.589955 M 2787.655188 3105.487901 C 3045.246423 3103.236476 3265.544202 3126.940154 3448.548523 3176.641412 M 3448.548523 2722.490852 C 2955.964111 2679.586347 2379.7802 2669.391217 1719.99679 2691.990422 " transform="matrix(0.0879846,0,0,0.0919557,-1.126203,-45.8055)"/>
</g>
</svg>
