<?xml version="1.0" encoding="UTF-8"?>
<svg xmlns="http://www.w3.org/2000/svg" xmlns:xlink="http://www.w3.org/1999/xlink" width="320px" height="320px" viewBox="0 0 320 351" version="1.1">
<g id="surface1">
<path style=" stroke:none;fill-rule:nonzero;fill:rgb(44.705882%,62.352941%,38.039216%);fill-opacity:1;" d="M 195.496094 384.9375 L 195.199219 384.9375 L 175.816406 383.152344 C 128.101562 380.769531 79.890625 382.753906 31.183594 389.101562 L 31.183594 415.871094 C 75.714844 415.671875 119.847656 416.164062 163.585938 417.351562 L 163.882812 417.351562 C 211.003906 418.742188 257.625 420.921875 303.746094 423.898438 L 303.746094 398.617188 C 267.960938 392.867188 231.878906 388.308594 195.496094 384.9375 M 203.25 355.785156 L 170.742188 355.785156 C 123.824219 356.976562 80.183594 364.214844 39.828125 377.5 C 85.554688 377.5 130.882812 379.382812 175.816406 383.152344 L 195.199219 384.9375 L 195.496094 384.9375 C 231.878906 388.308594 267.960938 392.867188 303.746094 398.617188 C 308.121094 399.410156 312.496094 400.203125 316.867188 400.996094 L 316.867188 372.738281 C 282.472656 364.214844 244.601562 358.5625 203.25 355.785156 M 302.550781 288.277344 L 302.550781 256.15625 L 31.183594 256.15625 L 29.09375 306.121094 L 28.5 315.042969 C 70.445312 311.671875 108.816406 313.457031 143.605469 320.398438 L 30.582031 328.726562 L 31.183594 355.785156 L 302.550781 355.785156 L 302.550781 296.007812 L 234.261719 289.464844 Z M 302.550781 288.277344 "/>
<path style=" stroke:none;fill-rule:nonzero;fill:rgb(66.27451%,84.705882%,56.078431%);fill-opacity:1;" d="M 39.828125 355.785156 L 31.183594 355.785156 L 31.183594 389.101562 C 79.890625 382.753906 128.101562 380.769531 175.816406 383.152344 C 130.882812 379.382812 85.554688 377.5 39.828125 377.5 L 39.828125 355.785156 M 28.5 315.042969 L 29.09375 306.121094 L 20.742188 329.617188 L 30.582031 328.726562 L 143.605469 320.398438 C 108.816406 313.457031 70.445312 311.671875 28.5 315.042969 M 275.417969 229.386719 C 263.488281 229.1875 255.136719 227.007812 250.363281 222.839844 L 81.578125 222.839844 C 76.609375 226.414062 68.355469 228.394531 56.824219 228.789062 L 50.265625 243.367188 C 64.777344 241.582031 72.433594 244.359375 73.230469 251.691406 L 260.804688 251.691406 C 263.386719 246.140625 269.75 243.265625 279.886719 243.066406 L 275.417969 229.386719 M 153.746094 231.167969 C 157.722656 229.78125 162.492188 229.089844 168.058594 229.089844 C 173.824219 229.089844 178.597656 229.78125 182.375 231.167969 C 186.546875 232.558594 188.632812 234.246094 188.632812 236.226562 C 188.632812 238.011719 186.546875 239.597656 182.375 240.984375 C 178.597656 242.371094 173.824219 243.066406 168.058594 243.066406 C 162.492188 243.066406 157.722656 242.371094 153.746094 240.984375 C 149.769531 239.597656 147.785156 238.011719 147.785156 236.226562 C 147.785156 234.246094 149.769531 232.558594 153.746094 231.167969 M 219.949219 232.953125 C 223.925781 232.953125 227.40625 233.449219 230.386719 234.441406 C 233.171875 235.433594 234.5625 236.625 234.5625 238.011719 C 234.5625 239.398438 233.171875 240.589844 230.386719 241.582031 C 227.40625 242.570312 223.925781 243.066406 219.949219 243.066406 C 215.972656 243.066406 212.492188 242.570312 209.511719 241.582031 C 206.730469 240.589844 205.339844 239.398438 205.339844 238.011719 C 205.339844 236.625 206.730469 235.433594 209.511719 234.441406 C 212.492188 233.449219 215.972656 232.953125 219.949219 232.953125 M 101.554688 234.441406 C 104.339844 233.449219 107.820312 232.953125 111.996094 232.953125 C 115.972656 232.953125 119.351562 233.449219 122.136719 234.441406 C 125.117188 235.433594 126.609375 236.625 126.609375 238.011719 C 126.609375 239.398438 125.117188 240.589844 122.136719 241.582031 C 119.351562 242.570312 115.972656 243.066406 111.996094 243.066406 C 107.820312 243.066406 104.339844 242.570312 101.554688 241.582031 C 98.578125 240.589844 97.085938 239.398438 97.085938 238.011719 C 97.085938 236.625 98.578125 235.433594 101.554688 234.441406 M 302.550781 340.621094 L 302.550781 355.785156 L 203.25 355.785156 C 244.601562 358.5625 282.472656 364.214844 316.867188 372.738281 L 302.550781 340.621094 M 310.308594 296.902344 L 302.550781 272.214844 L 302.550781 288.277344 L 234.261719 289.464844 L 302.550781 296.007812 L 310.308594 296.902344 M 303.378906 443.664062 L 303.152344 442.929688 C 296.933594 443.167969 290.753906 443.410156 284.613281 443.664062 Z M 303.378906 443.664062 "/>
<path style=" stroke:none;fill-rule:nonzero;fill:rgb(38.039216%,52.156863%,31.764706%);fill-opacity:1;" d="M 302.550781 256.15625 L 283.46875 219.574219 L 46.984375 219.574219 L 31.183594 256.15625 L 302.550781 256.15625 M 250.363281 222.839844 C 255.136719 227.007812 263.488281 229.1875 275.417969 229.386719 L 279.886719 243.066406 C 269.75 243.265625 263.386719 246.140625 260.804688 251.691406 L 73.230469 251.691406 C 72.433594 244.359375 64.777344 241.582031 50.265625 243.367188 L 56.824219 228.789062 C 68.355469 228.394531 76.609375 226.414062 81.578125 222.839844 L 250.363281 222.839844 M 168.058594 229.089844 C 162.492188 229.089844 157.722656 229.78125 153.746094 231.167969 C 149.769531 232.558594 147.785156 234.246094 147.785156 236.226562 C 147.785156 238.011719 149.769531 239.597656 153.746094 240.984375 C 157.722656 242.371094 162.492188 243.066406 168.058594 243.066406 C 173.824219 243.066406 178.597656 242.371094 182.375 240.984375 C 186.546875 239.597656 188.632812 238.011719 188.632812 236.226562 C 188.632812 234.246094 186.546875 232.558594 182.375 231.167969 C 178.597656 229.78125 173.824219 229.089844 168.058594 229.089844 Z M 168.058594 229.089844 "/>
<path style=" stroke:none;fill-rule:nonzero;fill:rgb(95.294118%,100%,92.941176%);fill-opacity:1;" d="M 111.996094 232.953125 C 107.820312 232.953125 104.339844 233.449219 101.554688 234.441406 C 98.578125 235.433594 97.085938 236.625 97.085938 238.011719 C 97.085938 239.398438 98.578125 240.589844 101.554688 241.582031 C 104.339844 242.570312 107.820312 243.066406 111.996094 243.066406 C 115.972656 243.066406 119.351562 242.570312 122.136719 241.582031 C 125.117188 240.589844 126.609375 239.398438 126.609375 238.011719 C 126.609375 236.625 125.117188 235.433594 122.136719 234.441406 C 119.351562 233.449219 115.972656 232.953125 111.996094 232.953125 M 230.386719 234.441406 C 227.40625 233.449219 223.925781 232.953125 219.949219 232.953125 C 215.972656 232.953125 212.492188 233.449219 209.511719 234.441406 C 206.730469 235.433594 205.339844 236.625 205.339844 238.011719 C 205.339844 239.398438 206.730469 240.589844 209.511719 241.582031 C 212.492188 242.570312 215.972656 243.066406 219.949219 243.066406 C 223.925781 243.066406 227.40625 242.570312 230.386719 241.582031 C 233.171875 240.589844 234.5625 239.398438 234.5625 238.011719 C 234.5625 236.625 233.171875 235.433594 230.386719 234.441406 Z M 230.386719 234.441406 "/>
<path style="fill:none;stroke-width:0.5;stroke-linecap:round;stroke-linejoin:round;stroke:rgb(0%,0%,0%);stroke-opacity:1;stroke-miterlimit:4;" d="M 594.642761 1506.482764 C 725.702625 1501.986681 819.513428 1479.417236 875.986377 1438.685399 L 2794.335168 1438.685399 C 2848.588269 1486.183618 2943.508997 1511.023362 3079.097351 1513.293661 L 3129.887488 1669.187536 C 3014.677344 1671.457835 2942.354675 1704.221368 2913.008276 1767.478134 L 781.110046 1767.478134 C 772.053064 1683.922222 685.034998 1652.271581 520.100244 1672.615242 Z M 3387.478723 2001.363462 L 3475.651111 2282.702493 L 3387.478723 2272.508405 L 3387.478723 2780.921866 L 3550.193628 3146.929701 L 3550.193628 3468.956054 C 3500.513416 3459.919373 3450.788806 3450.882692 3401.064197 3441.846011 L 3401.064197 3729.951425 C 2876.869141 3696.030484 2346.991272 3671.190741 1811.430591 3655.343162 M 1808.056421 3655.343162 C 1310.943518 3641.810399 809.346521 3636.201425 303.221033 3638.471724 L 303.221033 2953.731695 L 296.383899 2645.371652 L 184.547925 2655.521225 L 279.468652 2387.759473 L 303.221033 1818.359544 L 482.806787 1401.470299 L 3170.599512 1401.470299 L 3387.478723 1818.359544 L 3387.478723 2184.411895 L 2611.330847 2197.944658 L 3387.478723 2272.508405 M 3387.478723 2780.921866 L 3387.478723 2953.731695 L 2258.863281 2953.731695 C 2728.849634 2985.382336 3159.278284 3049.79651 3550.193628 3146.929701 M 2092.72981 1591.240598 C 2092.72981 1611.584259 2069.021826 1629.657621 2021.605859 1645.460684 C 1978.673987 1661.263746 1924.420886 1669.187536 1858.890955 1669.187536 C 1795.625269 1669.187536 1741.416565 1661.263746 1696.220447 1645.460684 C 1651.024329 1629.657621 1628.470667 1611.584259 1628.470667 1591.240598 C 1628.470667 1568.671154 1651.024329 1549.440385 1696.220447 1533.592806 C 1741.416565 1517.789744 1795.625269 1509.91047 1858.890955 1509.91047 C 1924.420886 1509.91047 1978.673987 1517.789744 2021.605859 1533.592806 C 2069.021826 1549.440385 2092.72981 1568.671154 2092.72981 1591.240598 Z M 2614.749414 1611.584259 C 2614.749414 1627.387322 2598.944092 1640.964601 2567.28905 1652.271581 C 2533.41416 1663.534046 2493.856458 1669.187536 2448.660339 1669.187536 C 2403.464221 1669.187536 2363.906519 1663.534046 2330.031628 1652.271581 C 2298.420984 1640.964601 2282.615662 1627.387322 2282.615662 1611.584259 C 2282.615662 1595.781197 2298.420984 1582.203917 2330.031628 1570.896937 C 2363.906519 1559.589957 2403.464221 1553.936467 2448.660339 1553.936467 C 2493.856458 1553.936467 2533.41416 1559.589957 2567.28905 1570.896937 C 2598.944092 1582.203917 2614.749414 1595.781197 2614.749414 1611.584259 Z M 1387.794678 1611.584259 C 1387.794678 1627.387322 1370.835034 1640.964601 1336.960144 1652.271581 C 1305.305103 1663.534046 1266.901721 1669.187536 1221.705603 1669.187536 C 1174.245239 1669.187536 1134.687537 1663.534046 1103.032495 1652.271581 C 1069.202002 1640.964601 1052.242358 1627.387322 1052.242358 1611.584259 C 1052.242358 1595.781197 1069.202002 1582.203917 1103.032495 1570.896937 C 1134.687537 1559.589957 1174.245239 1553.936467 1221.705603 1553.936467 C 1266.901721 1553.936467 1305.305103 1559.589957 1336.960144 1570.896937 C 1370.835034 1582.203917 1387.794678 1595.781197 1387.794678 1611.584259 Z M 279.468652 2387.759473 L 272.720312 2489.433262 C 749.455005 2451.016239 1185.566467 2471.3599 1580.965906 2550.464245 L 296.383899 2645.371652 M 401.471533 2953.731695 L 303.221033 2953.731695 M 2258.863281 2953.731695 L 1889.391675 2953.731695 C 1356.139636 2967.308974 860.136658 3049.79651 401.471533 3201.194302 M 1889.391675 2953.731695 L 401.471533 2953.731695 L 401.471533 3201.194302 C 921.182495 3201.194302 1436.364966 3222.650855 1947.063342 3265.608476 L 2167.361121 3285.952137 L 2170.735291 3285.952137 C 2584.248694 3324.36916 2994.34353 3376.318946 3401.064197 3441.846011 M 303.221033 3333.40584 C 856.806885 3261.067877 1404.754321 3238.453917 1947.063342 3265.608476 M 3394.315857 3946.831766 L 3396.935278 3955.200712 M 3387.478723 1818.359544 L 303.221033 1818.359544 " transform="matrix(0.0879846,0,0,0.08775,4.504812,96.5952)"/>
<path style=" stroke:none;fill-rule:nonzero;fill:rgb(38.039216%,52.156863%,31.764706%);fill-opacity:1;" d="M 303.417969 287.738281 L 303.417969 279.410156 C 289.703125 277.230469 270.320312 277.925781 245.269531 281.492188 C 267.933594 281.292969 287.316406 283.375 303.417969 287.738281 M 28.171875 283.871094 L 118.828125 282.980469 L 28.171875 276.433594 L 28.171875 283.871094 M 28.171875 255.316406 L 28.171875 266.027344 L 122.703125 247.289062 C 89.703125 249.667969 58.191406 252.34375 28.171875 255.316406 M 299.542969 50.699219 L 280.460938 14.113281 L 43.976562 14.113281 L 28.171875 50.699219 L 299.542969 50.699219 M 276.878906 37.609375 C 266.738281 37.808594 260.378906 40.683594 257.792969 46.234375 L 70.21875 46.234375 C 69.421875 38.898438 61.769531 36.125 47.257812 37.90625 L 53.816406 23.332031 C 65.347656 22.9375 73.597656 20.953125 78.570312 17.382812 L 247.355469 17.382812 C 252.128906 21.546875 260.476562 23.730469 272.410156 23.929688 L 276.878906 37.609375 M 185.625 30.769531 C 185.625 28.785156 183.539062 27.101562 179.367188 25.710938 C 175.589844 24.324219 170.816406 23.632812 165.050781 23.632812 C 159.484375 23.632812 154.710938 24.324219 150.734375 25.710938 C 146.761719 27.101562 144.773438 28.785156 144.773438 30.769531 C 144.773438 32.554688 146.761719 34.140625 150.734375 35.527344 C 154.710938 36.914062 159.484375 37.609375 165.050781 37.609375 C 170.816406 37.609375 175.589844 36.914062 179.367188 35.527344 C 183.539062 34.140625 185.625 32.554688 185.625 30.769531 Z M 185.625 30.769531 "/>
<path style=" stroke:none;fill-rule:nonzero;fill:rgb(44.705882%,62.352941%,38.039216%);fill-opacity:1;" d="M 28.171875 266.027344 L 28.171875 276.433594 L 118.828125 282.980469 L 28.171875 283.871094 L 28.171875 310.640625 L 302.855469 314.851562 L 303.417969 287.738281 C 287.316406 283.375 267.933594 281.292969 245.269531 281.492188 L 228.570312 281.792969 L 245.269531 281.492188 C 270.320312 277.925781 289.703125 277.230469 303.417969 279.410156 L 303.417969 247.886719 C 260.082031 244.117188 209.386719 243.226562 151.332031 245.207031 C 141.789062 245.800781 132.246094 246.496094 122.703125 247.289062 L 28.171875 266.027344 M 300.734375 218.441406 L 300.734375 193.160156 C 264.953125 187.410156 228.871094 182.847656 192.488281 179.480469 L 192.1875 179.480469 L 172.804688 177.695312 C 125.09375 175.3125 76.882812 177.296875 28.171875 183.644531 L 28.171875 210.410156 C 72.703125 210.210938 116.839844 210.707031 160.578125 211.894531 L 160.875 211.894531 C 207.992188 213.285156 254.613281 215.464844 300.734375 218.441406 M 300.140625 237.472656 L 300.734375 218.441406 C 254.613281 215.464844 207.992188 213.285156 160.875 211.894531 L 160.578125 211.894531 C 107.695312 213.484375 58.488281 218.042969 12.960938 225.578125 L 12.960938 257.101562 C 18.128906 256.507812 23.203125 255.914062 28.171875 255.316406 C 58.191406 252.34375 89.703125 249.667969 122.703125 247.289062 C 132.246094 246.496094 141.789062 245.800781 151.332031 245.207031 C 198.253906 242.035156 247.855469 239.457031 300.140625 237.472656 M 300.734375 193.160156 C 305.113281 193.953125 309.484375 194.746094 313.859375 195.539062 L 313.859375 167.28125 C 279.464844 158.753906 241.59375 153.105469 200.238281 150.328125 L 167.734375 150.328125 C 120.816406 151.519531 77.175781 158.757812 36.816406 172.042969 C 82.546875 172.042969 127.875 173.925781 172.804688 177.695312 L 192.1875 179.480469 L 192.488281 179.480469 C 228.871094 182.847656 264.953125 187.410156 300.734375 193.160156 M 299.542969 66.753906 L 299.542969 50.699219 L 28.171875 50.699219 L 26.082031 100.664062 L 25.488281 109.585938 C 67.4375 106.214844 105.804688 108 140.59375 114.9375 L 27.574219 123.265625 L 28.171875 150.328125 L 299.542969 150.328125 L 299.542969 90.550781 L 231.253906 84.007812 L 299.542969 82.820312 Z M 299.542969 66.753906 "/>
<path style=" stroke:none;fill-rule:nonzero;fill:rgb(66.27451%,84.705882%,56.078431%);fill-opacity:1;" d="M 28.171875 210.410156 L 28.171875 183.644531 L 12.960938 225.578125 C 58.488281 218.042969 107.695312 213.484375 160.578125 211.894531 C 116.839844 210.707031 72.703125 210.210938 28.171875 210.410156 M 36.816406 172.042969 L 36.816406 150.328125 L 28.171875 150.328125 L 28.171875 183.644531 C 76.882812 177.296875 125.09375 175.3125 172.804688 177.695312 C 127.875 173.925781 82.546875 172.042969 36.816406 172.042969 M 17.734375 124.15625 L 27.574219 123.265625 L 140.59375 114.9375 C 105.804688 108 67.4375 106.214844 25.488281 109.585938 L 26.082031 100.664062 L 17.734375 124.15625 M 313.859375 167.28125 L 299.542969 135.160156 L 299.542969 150.328125 L 200.238281 150.328125 C 241.59375 153.105469 279.464844 158.753906 313.859375 167.28125 M 303.417969 247.886719 L 300.140625 237.472656 C 247.855469 239.457031 198.253906 242.035156 151.332031 245.207031 C 209.386719 243.226562 260.082031 244.117188 303.417969 247.886719 M 257.792969 46.234375 C 260.378906 40.683594 266.738281 37.808594 276.878906 37.609375 L 272.410156 23.929688 C 260.476562 23.730469 252.128906 21.546875 247.355469 17.382812 L 78.570312 17.382812 C 73.597656 20.953125 65.347656 22.9375 53.816406 23.332031 L 47.257812 37.90625 C 61.769531 36.125 69.421875 38.898438 70.21875 46.234375 L 257.792969 46.234375 M 202.328125 32.554688 C 202.328125 31.164062 203.722656 29.976562 206.503906 28.984375 C 209.484375 27.992188 212.960938 27.496094 216.9375 27.496094 C 220.917969 27.496094 224.394531 27.992188 227.378906 28.984375 C 230.160156 29.976562 231.554688 31.164062 231.554688 32.554688 C 231.554688 33.941406 230.160156 35.128906 227.378906 36.121094 C 224.394531 37.113281 220.917969 37.609375 216.9375 37.609375 C 212.960938 37.609375 209.484375 37.113281 206.503906 36.121094 C 203.722656 35.128906 202.328125 33.941406 202.328125 32.554688 M 179.367188 25.710938 C 183.539062 27.101562 185.625 28.785156 185.625 30.769531 C 185.625 32.554688 183.539062 34.140625 179.367188 35.527344 C 175.589844 36.914062 170.816406 37.609375 165.050781 37.609375 C 159.484375 37.609375 154.710938 36.914062 150.734375 35.527344 C 146.761719 34.140625 144.773438 32.554688 144.773438 30.769531 C 144.773438 28.785156 146.761719 27.101562 150.734375 25.710938 C 154.710938 24.324219 159.484375 23.632812 165.050781 23.632812 C 170.816406 23.632812 175.589844 24.324219 179.367188 25.710938 M 119.125 28.984375 C 122.109375 29.976562 123.601562 31.164062 123.601562 32.554688 C 123.601562 33.941406 122.109375 35.128906 119.125 36.121094 C 116.34375 37.113281 112.964844 37.609375 108.988281 37.609375 C 104.808594 37.609375 101.332031 37.113281 98.546875 36.121094 C 95.566406 35.128906 94.078125 33.941406 94.078125 32.554688 C 94.078125 31.164062 95.566406 29.976562 98.546875 28.984375 C 101.332031 27.992188 104.808594 27.496094 108.988281 27.496094 C 112.964844 27.496094 116.34375 27.992188 119.125 28.984375 M 299.542969 90.550781 L 307.300781 91.445312 L 299.542969 66.753906 L 299.542969 82.820312 L 231.253906 84.007812 Z M 299.542969 90.550781 "/>
<path style=" stroke:none;fill-rule:nonzero;fill:rgb(44.313725%,63.137255%,35.686275%);fill-opacity:1;" d="M 36.816406 150.328125 L 36.816406 172.042969 C 77.175781 158.757812 120.816406 151.519531 167.734375 150.328125 Z M 36.816406 150.328125 "/>
<path style=" stroke:none;fill-rule:nonzero;fill:rgb(95.294118%,100%,92.941176%);fill-opacity:1;" d="M 123.601562 32.554688 C 123.601562 31.164062 122.109375 29.976562 119.125 28.984375 C 116.34375 27.992188 112.964844 27.496094 108.988281 27.496094 C 104.808594 27.496094 101.332031 27.992188 98.546875 28.984375 C 95.566406 29.976562 94.078125 31.164062 94.078125 32.554688 C 94.078125 33.941406 95.566406 35.128906 98.546875 36.121094 C 101.332031 37.113281 104.808594 37.609375 108.988281 37.609375 C 112.964844 37.609375 116.34375 37.113281 119.125 36.121094 C 122.109375 35.128906 123.601562 33.941406 123.601562 32.554688 M 206.503906 28.984375 C 203.722656 29.976562 202.328125 31.164062 202.328125 32.554688 C 202.328125 33.941406 203.722656 35.128906 206.503906 36.121094 C 209.484375 37.113281 212.960938 37.609375 216.9375 37.609375 C 220.917969 37.609375 224.394531 37.113281 227.378906 36.121094 C 230.160156 35.128906 231.554688 33.941406 231.554688 32.554688 C 231.554688 31.164062 230.160156 29.976562 227.378906 28.984375 C 224.394531 27.992188 220.917969 27.496094 216.9375 27.496094 C 212.960938 27.496094 209.484375 27.992188 206.503906 28.984375 Z M 206.503906 28.984375 "/>
<path style="fill:none;stroke-width:0.5;stroke-linecap:round;stroke-linejoin:round;stroke:rgb(0%,0%,0%);stroke-opacity:1;stroke-miterlimit:4;" d="M 3404.493054 577.768875 L 3404.493054 760.728276 L 3492.665442 1042.111823 L 3404.493054 1031.917735 L 3404.493054 1540.286681 L 3567.207959 1906.339031 L 3567.207959 2228.365385 C 3517.48335 2219.328704 3467.803137 2210.292023 3418.034131 2201.255342 L 3418.034131 2489.360755 L 3411.285791 2706.241097 L 3448.534851 2824.919872 L 3448.534851 3279.068732 L 3442.141687 3588.051994 M 320.190967 3540.064103 L 320.190967 2909.588675 C 263.718018 2916.399573 206.04635 2923.165954 147.309155 2929.932336 L 147.309155 2570.690883 L 320.190967 2092.815171 L 320.190967 1713.141026 L 313.39823 1404.736467 L 201.562256 1414.88604 L 296.438586 1147.168803 L 320.190967 577.768875 L 499.821118 160.835114 L 3187.613843 160.835114 L 3404.493054 577.768875 L 320.190967 577.768875 M 611.657092 265.892094 C 742.716956 261.396011 836.483362 238.782051 893.000708 198.094729 L 2811.3495 198.094729 C 2865.6026 245.548433 2960.478931 270.432692 3096.111682 272.702991 L 3146.901819 428.596866 C 3031.647278 430.867165 2959.369006 463.630698 2929.97821 526.887464 L 798.07998 526.887464 C 789.022998 443.287037 702.049329 411.680912 537.114575 431.980057 Z M 3404.493054 760.728276 L 3404.493054 943.821225 L 2628.345178 957.353989 L 3404.493054 1031.917735 M 3404.493054 1540.286681 L 3404.493054 1713.141026 L 2275.833215 1713.141026 C 2745.863965 1744.791667 3176.292615 1809.161325 3567.207959 1906.339031 M 2631.763745 370.99359 C 2631.763745 386.796652 2615.914026 400.329416 2584.303381 411.636396 C 2550.384094 422.943376 2510.870789 428.596866 2465.630273 428.596866 C 2420.434155 428.596866 2380.92085 422.943376 2347.045959 411.636396 C 2315.435315 400.329416 2299.585596 386.796652 2299.585596 370.99359 C 2299.585596 355.146011 2315.435315 341.613248 2347.045959 330.306268 C 2380.92085 318.999288 2420.434155 313.345798 2465.630273 313.345798 C 2510.870789 313.345798 2550.384094 318.999288 2584.303381 330.306268 C 2615.914026 341.613248 2631.763745 355.146011 2631.763745 370.99359 Z M 2109.744141 350.649929 C 2109.744141 370.99359 2086.036157 389.066952 2038.62019 404.870014 C 1995.688318 420.673077 1941.435217 428.596866 1875.905286 428.596866 C 1812.6396 428.596866 1758.386499 420.673077 1713.190381 404.870014 C 1668.03866 389.066952 1645.440601 370.99359 1645.440601 350.649929 C 1645.440601 328.035969 1668.03866 308.849715 1713.190381 293.002137 C 1758.386499 277.199074 1812.6396 269.319801 1875.905286 269.319801 C 1941.435217 269.319801 1995.688318 277.199074 2038.62019 293.002137 C 2086.036157 308.849715 2109.744141 328.035969 2109.744141 350.649929 Z M 1404.809009 370.99359 C 1404.809009 386.796652 1387.849365 400.329416 1353.930078 411.636396 C 1322.319434 422.943376 1283.916052 428.596866 1238.719934 428.596866 C 1191.215173 428.596866 1151.701868 422.943376 1120.046826 411.636396 C 1086.171936 400.329416 1069.256689 386.796652 1069.256689 370.99359 C 1069.256689 355.146011 1086.171936 341.613248 1120.046826 330.306268 C 1151.701868 318.999288 1191.215173 313.345798 1238.719934 313.345798 C 1283.916052 313.345798 1322.319434 318.999288 1353.930078 330.306268 C 1387.849365 341.613248 1404.809009 355.146011 1404.809009 370.99359 Z M 296.438586 1147.168803 L 289.690247 1248.842593 C 766.469336 1210.42557 1202.536401 1230.769231 1597.93584 1309.82906 L 313.39823 1404.736467 M 418.441467 1713.141026 L 418.441467 1960.603632 C 877.150989 1809.20584 1373.153967 1726.718305 1906.406006 1713.141026 L 320.190967 1713.141026 M 1964.033276 2025.017806 C 1421.768652 1997.863248 873.821216 2020.477208 320.190967 2092.815171 L 320.190967 2397.836538 C 826.316455 2395.566239 1327.957849 2401.219729 1825.070752 2414.752493 L 1828.444922 2414.752493 C 2363.961206 2430.600071 2893.839075 2455.439815 3418.034131 2489.360755 M 1964.033276 2025.017806 L 2184.331055 2045.361467 L 2187.749622 2045.361467 C 2601.263025 2083.733974 3011.357861 2135.728276 3418.034131 2201.255342 M 1394.597705 2818.108974 C 1503.059509 2809.072293 1611.521313 2801.148504 1719.983118 2794.382123 C 2253.279553 2758.235399 2817.032312 2728.855057 3411.285791 2706.241097 M 1906.406006 1713.141026 L 2275.833215 1713.141026 M 320.190967 2909.588675 C 661.381702 2875.712251 1019.53208 2845.219017 1394.597705 2818.108974 L 320.190967 3031.650641 M 147.309155 2570.690883 C 664.755872 2484.820157 1224.024536 2432.87037 1825.070752 2414.752493 M 418.441467 1960.603632 C 938.196826 1960.603632 1453.379297 1982.060185 1964.033276 2025.017806 M 320.190967 3150.240385 L 1350.555908 3224.848647 L 320.190967 3234.998219 M 2597.844458 3211.315883 L 2787.641516 3207.888177 C 3072.359302 3167.24537 3292.65708 3159.321581 3448.534851 3184.161325 M 2787.641516 3207.888177 C 3045.232751 3205.617877 3265.53053 3229.344729 3448.534851 3279.068732 M 3448.534851 2824.919872 C 2955.994836 2781.962251 2379.810925 2771.812678 1719.983118 2794.382123 " transform="matrix(0.0879846,0,0,0.08775,0,0)"/>
</g>
</svg>
